<svg width="118" height="118" viewBox="0 0 118 118" fill="none" xmlns="http://www.w3.org/2000/svg">
<g filter="url(#filter0_bdi_1_13430)">
<rect x="33.1133" y="10" width="64" height="64" rx="16" transform="rotate(10 33.1133 10)" fill="white" fill-opacity="0.1" shape-rendering="crispEdges"/>
<rect x="33.5189" y="10.5792" width="63" height="63" rx="15.5" transform="rotate(10 33.5189 10.5792)" stroke="url(#paint0_linear_1_13430)" stroke-opacity="0.2" shape-rendering="crispEdges"/>
<g opacity="0.6">
<path d="M68.0935 35.6483L68.4999 33.3438C68.6067 32.7382 68.193 32.1474 67.5873 32.0406C66.9816 31.9338 66.3908 32.3475 66.284 32.9531L65.8933 35.1689L56.2915 33.4759L56.6822 31.2601C56.789 30.6544 56.3753 30.0636 55.7696 29.9568C55.164 29.85 54.5731 30.2637 54.4663 30.8694L54.06 33.1738C50.0064 32.8398 47.6519 34.8769 46.7339 38.3554C46.6289 38.7785 46.9209 39.1956 47.3345 39.2685L72.3289 43.6757C72.7573 43.7512 73.177 43.4445 73.2056 43.023C73.5327 39.4404 72.0169 36.7209 68.0935 35.6483Z" fill="url(#paint1_linear_1_13430)"/>
<path d="M67.6011 35.5615L67.522 36.0104L67.9617 36.1306C69.833 36.6422 71.0779 37.5302 71.8255 38.6688C72.5757 39.8114 72.864 41.2654 72.7076 42.9776L72.7075 42.9776L72.7067 42.9892C72.7034 43.0377 72.6773 43.0912 72.6197 43.1338C72.5614 43.177 72.4871 43.1959 72.4157 43.1833L47.4213 38.7761C47.2798 38.7512 47.1886 38.6061 47.2186 38.4784C47.6575 36.8183 48.4253 35.5521 49.52 34.7358C50.612 33.9215 52.0855 33.5128 54.019 33.6721L54.4733 33.7095L54.5524 33.2606L54.9588 30.9562C55.0176 30.6225 55.3491 30.3904 55.6828 30.4492C56.0165 30.508 56.2486 30.8395 56.1898 31.1732L55.7991 33.3891L55.7122 33.8815L56.2046 33.9683L65.8065 35.6614L66.2989 35.7482L66.3857 35.2558L66.7764 33.04C66.8353 32.7062 67.1668 32.4741 67.5005 32.533C67.8342 32.5918 68.0663 32.9233 68.0075 33.257L67.6011 35.5615Z" stroke="white" stroke-opacity="0.5"/>
<path d="M71.2587 45.7718L47.6233 41.6042C46.8109 41.461 46.0289 42.0085 45.8856 42.821L44.2811 51.9206C43.4997 56.3522 45.1946 59.6974 50.3648 60.609L62.1825 62.6928C67.3528 63.6044 70.0895 61.0407 70.8709 56.6091L72.4755 47.5095C72.6187 46.697 72.0712 45.915 71.2587 45.7718ZM53.1395 55.3255C53.0552 55.3716 52.9683 55.4324 52.8866 55.4637C52.7876 55.5072 52.6911 55.5359 52.5973 55.5498C52.5008 55.5785 52.407 55.5924 52.3157 55.5915C52.2097 55.5881 52.1185 55.5872 52.0151 55.569C51.8231 55.5351 51.6388 55.457 51.4746 55.3518C51.2956 55.2441 51.1661 55.1147 51.0418 54.9557C50.8254 54.6281 50.7306 54.2154 50.7984 53.8313C50.8661 53.4472 51.0963 53.0918 51.4117 52.858C51.5828 52.7511 51.7488 52.6738 51.9539 52.6338C52.2406 52.5625 52.5412 52.585 52.8263 52.6962C52.9123 52.7266 52.9957 52.7718 53.0765 52.8317C53.16 52.8769 53.2408 52.9368 53.319 53.0116C53.3824 53.0837 53.4459 53.1558 53.5093 53.2279C53.7257 53.5555 53.8205 53.9682 53.7528 54.3523C53.6851 54.7363 53.4548 55.0918 53.1395 55.3255ZM54.0511 50.1553C53.7235 50.3717 53.3108 50.4665 52.9267 50.3988C52.5427 50.331 52.1872 50.1008 51.9535 49.7854C51.7371 49.4579 51.6423 49.0452 51.71 48.6611C51.7777 48.277 52.0079 47.9216 52.3233 47.6878C52.8099 47.3471 53.4833 47.3288 53.9882 47.6615C54.1672 47.7692 54.3115 47.9013 54.421 48.0577C54.6374 48.3852 54.7322 48.7979 54.6644 49.182C54.5967 49.5661 54.3665 49.9215 54.0511 50.1553ZM58.3097 56.2372C57.9821 56.4536 57.5694 56.5484 57.1853 56.4807C56.8013 56.4129 56.4458 56.1827 56.212 55.8673C55.9956 55.5398 55.9009 55.127 55.9686 54.743C56.0363 54.3589 56.2665 54.0035 56.5819 53.7697C57.2249 53.3195 58.2294 53.4966 58.6796 54.1396C58.896 54.4671 58.9907 54.8798 58.923 55.2639C58.8553 55.648 58.6251 56.0034 58.3097 56.2372ZM59.2213 51.067C59.1371 51.113 59.0528 51.1591 58.9685 51.2052C58.8695 51.2486 58.773 51.2773 58.6792 51.2912C58.5827 51.3199 58.4889 51.3338 58.3976 51.333C58.2916 51.3295 58.2004 51.3286 58.097 51.3104C57.7129 51.2427 57.3575 51.0125 57.1237 50.6971C56.9073 50.3695 56.8125 49.9568 56.8802 49.5727C56.948 49.1887 57.1782 48.8332 57.4936 48.5994C57.65 48.4899 57.8307 48.4152 58.0358 48.3752C58.624 48.2352 59.2505 48.4828 59.5912 48.9693C59.8076 49.2969 59.9024 49.7096 59.8347 50.0937C59.7669 50.4777 59.5367 50.8332 59.2213 51.067ZM63.4799 57.1488C63.1524 57.3653 62.7396 57.46 62.3556 57.3923C61.9715 57.3246 61.6161 57.0944 61.3823 56.779C61.1659 56.4514 61.0711 56.0387 61.1388 55.6546C61.2066 55.2705 61.4368 54.9151 61.7522 54.6813C62.3951 54.2311 63.3996 54.4083 63.8498 55.0512C64.0662 55.3788 64.161 55.7915 64.0933 56.1756C64.0255 56.5596 63.7953 56.9151 63.4799 57.1488ZM64.3916 51.9786C64.3073 52.0247 64.223 52.0707 64.1387 52.1168C64.0397 52.1603 63.9432 52.189 63.8494 52.2029C63.753 52.2316 63.6591 52.2455 63.5679 52.2446C63.4619 52.2412 63.3559 52.2377 63.2672 52.2221C62.8832 52.1543 62.5277 51.9241 62.2939 51.6087C62.0775 51.2812 61.9828 50.8685 62.0505 50.4844C62.1182 50.1003 62.3484 49.7449 62.6638 49.5111C62.835 49.4042 63.0009 49.3268 63.206 49.2868C63.4927 49.2155 63.7934 49.2381 64.0784 49.3493C64.1644 49.3797 64.2479 49.4249 64.3287 49.4848C64.4121 49.53 64.4929 49.5899 64.5711 49.6646C64.6346 49.7367 64.698 49.8089 64.7615 49.881C64.9779 50.2085 65.0726 50.6213 65.0049 51.0053C64.9372 51.3894 64.707 51.7448 64.3916 51.9786Z" fill="url(#paint2_linear_1_13430)"/>
<path d="M53.3793 55.7643L53.4095 55.7478L53.4372 55.7272C53.8484 55.4224 54.1538 54.9575 54.2452 54.4391C54.3366 53.9207 54.2086 53.3793 53.9265 52.9523L53.9075 52.9235L53.8847 52.8976L53.7896 52.7895L53.6944 52.6813L53.6801 52.665L53.6644 52.65C53.5672 52.5572 53.4613 52.4757 53.346 52.4096C53.2394 52.334 53.1243 52.2721 53.0008 52.2276C52.6308 52.0849 52.2319 52.0522 51.8457 52.1455C51.5697 52.2012 51.35 52.3071 51.1468 52.434L51.1299 52.4445L51.1139 52.4564C50.7028 52.7611 50.3974 53.2261 50.3059 53.7445C50.2145 54.2629 50.3425 54.8042 50.6246 55.2313L50.6356 55.2479L50.6479 55.2636C50.7964 55.4536 50.968 55.6294 51.2108 55.7767C51.4204 55.9099 51.664 56.0148 51.9283 56.0614C52.0582 56.0843 52.1776 56.0877 52.2666 56.0903C52.2781 56.0906 52.289 56.0909 52.2994 56.0913L52.2994 56.0914L52.3111 56.0915C52.4452 56.0928 52.5774 56.074 52.7061 56.0387C52.8336 56.0166 52.9578 55.9777 53.0779 55.9258C53.1541 55.8954 53.2208 55.8574 53.2648 55.8316C53.2896 55.8171 53.3076 55.8063 53.3225 55.7973C53.3438 55.7845 53.359 55.7754 53.3793 55.7643ZM54.3267 50.5725L54.338 50.565L54.3489 50.557C54.76 50.2522 55.0654 49.7872 55.1568 49.2688C55.2482 48.7505 55.1203 48.2091 54.8381 47.782L54.8383 47.7819L54.8305 47.7709C54.6792 47.5547 54.4842 47.3779 54.2547 47.2383C53.5763 46.7965 52.685 46.8242 52.0365 47.2782L52.0364 47.2781L52.0256 47.2861C51.6144 47.5909 51.309 48.0559 51.2176 48.5743C51.1262 49.0926 51.2542 49.634 51.5363 50.0611L51.5437 50.0723L51.5518 50.0832C51.8566 50.4944 52.3215 50.7998 52.8399 50.8912C53.3583 50.9826 53.8997 50.8546 54.3267 50.5725ZM58.5853 56.6544L58.5966 56.6469L58.6074 56.6389C59.0186 56.3341 59.324 55.8691 59.4154 55.3507C59.5068 54.8324 59.3789 54.291 59.0967 53.8639L59.0969 53.8638L59.0891 53.8528C58.7763 53.4061 58.2868 53.1399 57.7898 53.0523C57.2929 52.9647 56.7419 53.0473 56.2951 53.3601L56.295 53.36L56.2842 53.368C55.873 53.6728 55.5676 54.1378 55.4762 54.6561C55.3848 55.1745 55.5127 55.7159 55.7949 56.1429L55.8023 56.1542L55.8104 56.1651C56.1152 56.5763 56.5801 56.8817 57.0985 56.9731C57.6169 57.0645 58.1583 56.9365 58.5853 56.6544ZM59.4611 51.5057L59.4914 51.4892L59.5191 51.4686C59.9303 51.1638 60.2357 50.6989 60.3271 50.1805C60.4185 49.6621 60.2905 49.1207 60.0084 48.6937L60.0085 48.6936L60.0008 48.6825C59.5467 48.0341 58.7187 47.7032 57.9301 47.8864C57.6667 47.939 57.423 48.0385 57.2068 48.1899L57.2067 48.1897L57.1958 48.1978C56.7846 48.5026 56.4792 48.9675 56.3878 49.4859C56.2964 50.0043 56.4244 50.5457 56.7065 50.9727L56.714 50.984L56.722 50.9948C57.0268 51.406 57.4918 51.7114 58.0102 51.8028C58.1401 51.8257 58.2595 51.8292 58.3485 51.8317C58.3599 51.832 58.3709 51.8324 58.3813 51.8327L58.3813 51.8328L58.3929 51.8329C58.5271 51.8342 58.6593 51.8154 58.788 51.7801C58.919 51.7574 59.0463 51.717 59.1694 51.663L59.1893 51.6543L59.2083 51.6439L59.3347 51.5748L59.4611 51.5057ZM63.7555 57.566L63.7668 57.5586L63.7777 57.5505C64.1889 57.2457 64.4943 56.7808 64.5857 56.2624C64.6771 55.744 64.5491 55.2026 64.267 54.7756L64.2671 54.7755L64.2594 54.7644C63.9466 54.3177 63.457 54.0516 62.9601 53.9639C62.4632 53.8763 61.9121 53.959 61.4654 54.2718L61.4653 54.2716L61.4544 54.2797C61.0432 54.5845 60.7378 55.0494 60.6464 55.5678C60.555 56.0862 60.683 56.6276 60.9651 57.0546L60.9726 57.0659L60.9806 57.0767C61.2854 57.4879 61.7504 57.7933 62.2687 57.8847C62.7871 57.9761 63.3285 57.8482 63.7555 57.566ZM64.6314 52.4174L64.6616 52.4008L64.6893 52.3803C65.1005 52.0755 65.4059 51.6105 65.4973 51.0921C65.5887 50.5738 65.4608 50.0324 65.1786 49.6053L65.1596 49.5766L65.1369 49.5507L64.9465 49.3344L64.9322 49.3181L64.9165 49.3031C64.8193 49.2103 64.7134 49.1288 64.5982 49.0626C64.4915 48.9871 64.3764 48.9252 64.2529 48.8807C63.883 48.7379 63.484 48.7053 63.0978 48.7986C62.8219 48.8542 62.6021 48.9601 62.3989 49.087L62.3821 49.0976L62.3661 49.1094C61.9549 49.4142 61.6495 49.8792 61.5581 50.3976C61.4667 50.9159 61.5946 51.4573 61.8768 51.8844L61.8842 51.8956L61.8923 51.9065C62.1971 52.3177 62.662 52.6231 63.1804 52.7145C63.3049 52.7364 63.4419 52.7408 63.5374 52.7439L63.5516 52.7443L63.5516 52.7445L63.5632 52.7446C63.6974 52.7459 63.8295 52.727 63.9582 52.6917C64.0892 52.669 64.2166 52.6287 64.3396 52.5747L64.3595 52.566L64.3786 52.5555L64.6314 52.4174ZM47.5365 42.0966L71.1719 46.2642C71.7124 46.3595 72.0784 46.8821 71.9831 47.4226L70.3785 56.5223C70.0011 58.6626 69.1648 60.2766 67.8708 61.256C66.5841 62.2298 64.7606 62.6397 62.2694 62.2004L50.4517 60.1166C47.9604 59.6773 46.387 58.6685 45.511 57.3134C44.6301 55.9505 44.3961 54.1477 44.7735 52.0074L46.378 42.9078C46.4734 42.3673 46.996 42.0013 47.5365 42.0966Z" stroke="white" stroke-opacity="0.5"/>
</g>
</g>
<defs>
<filter id="filter0_bdi_1_13430" x="-2.00021" y="-2" width="122.141" height="122.141" filterUnits="userSpaceOnUse" color-interpolation-filters="sRGB">
<feFlood flood-opacity="0" result="BackgroundImageFix"/>
<feGaussianBlur in="BackgroundImageFix" stdDeviation="2"/>
<feComposite in2="SourceAlpha" operator="in" result="effect1_backgroundBlur_1_13430"/>
<feColorMatrix in="SourceAlpha" type="matrix" values="0 0 0 0 0 0 0 0 0 0 0 0 0 0 0 0 0 0 127 0" result="hardAlpha"/>
<feOffset dy="12"/>
<feGaussianBlur stdDeviation="12"/>
<feComposite in2="hardAlpha" operator="out"/>
<feColorMatrix type="matrix" values="0 0 0 0 0.0509804 0 0 0 0 0.0509804 0 0 0 0 0.0705882 0 0 0 0.25 0"/>
<feBlend mode="normal" in2="effect1_backgroundBlur_1_13430" result="effect2_dropShadow_1_13430"/>
<feBlend mode="normal" in="SourceGraphic" in2="effect2_dropShadow_1_13430" result="shape"/>
<feColorMatrix in="SourceAlpha" type="matrix" values="0 0 0 0 0 0 0 0 0 0 0 0 0 0 0 0 0 0 127 0" result="hardAlpha"/>
<feOffset dy="-6"/>
<feGaussianBlur stdDeviation="2"/>
<feComposite in2="hardAlpha" operator="arithmetic" k2="-1" k3="1"/>
<feColorMatrix type="matrix" values="0 0 0 0 1 0 0 0 0 1 0 0 0 0 1 0 0 0 0.15 0"/>
<feBlend mode="normal" in2="shape" result="effect3_innerShadow_1_13430"/>
</filter>
<linearGradient id="paint0_linear_1_13430" x1="65.1133" y1="10" x2="65.1133" y2="74" gradientUnits="userSpaceOnUse">
<stop stop-color="white"/>
<stop offset="1" stop-color="white" stop-opacity="0"/>
</linearGradient>
<linearGradient id="paint1_linear_1_13430" x1="61.6795" y1="30.9989" x2="59.8327" y2="41.4723" gradientUnits="userSpaceOnUse">
<stop stop-color="white"/>
<stop offset="1" stop-color="white" stop-opacity="0.5"/>
</linearGradient>
<linearGradient id="paint2_linear_1_13430" x1="59.441" y1="43.688" x2="56.2737" y2="61.6509" gradientUnits="userSpaceOnUse">
<stop stop-color="white"/>
<stop offset="1" stop-color="white" stop-opacity="0.5"/>
</linearGradient>
</defs>
</svg>