<svg width="348" height="2" viewBox="0 0 348 2" fill="none" xmlns="http://www.w3.org/2000/svg">
<path d="M1 0.5C0.723858 0.5 0.5 0.723858 0.5 1C0.5 1.27614 0.723858 1.5 1 1.5V0.5ZM3.0155 1.5C3.29165 1.5 3.5155 1.27614 3.5155 1C3.5155 0.723858 3.29165 0.5 3.0155 0.5V1.5ZM7.04651 0.5C6.77037 0.5 6.54651 0.723858 6.54651 1C6.54651 1.27614 6.77037 1.5 7.04651 1.5V0.5ZM11.0775 1.5C11.3537 1.5 11.5775 1.27614 11.5775 1C11.5775 0.723858 11.3537 0.5 11.0775 0.5V1.5ZM15.1085 0.5C14.8324 0.5 14.6085 0.723858 14.6085 1C14.6085 1.27614 14.8324 1.5 15.1085 1.5V0.5ZM19.1395 1.5C19.4157 1.5 19.6395 1.27614 19.6395 1C19.6395 0.723858 19.4157 0.5 19.1395 0.5V1.5ZM23.1705 0.5C22.8944 0.5 22.6705 0.723858 22.6705 1C22.6705 1.27614 22.8944 1.5 23.1705 1.5V0.5ZM27.2015 1.5C27.4777 1.5 27.7015 1.27614 27.7015 1C27.7015 0.723858 27.4777 0.5 27.2015 0.5V1.5ZM31.2326 0.5C30.9564 0.5 30.7326 0.723858 30.7326 1C30.7326 1.27614 30.9564 1.5 31.2326 1.5V0.5ZM35.2636 1.5C35.5397 1.5 35.7636 1.27614 35.7636 1C35.7636 0.723858 35.5397 0.5 35.2636 0.5V1.5ZM39.2946 0.5C39.0184 0.5 38.7946 0.723858 38.7946 1C38.7946 1.27614 39.0184 1.5 39.2946 1.5V0.5ZM43.3256 1.5C43.6017 1.5 43.8256 1.27614 43.8256 1C43.8256 0.723858 43.6017 0.5 43.3256 0.5V1.5ZM47.3566 0.5C47.0804 0.5 46.8566 0.723858 46.8566 1C46.8566 1.27614 47.0804 1.5 47.3566 1.5V0.5ZM51.3876 1.5C51.6637 1.5 51.8876 1.27614 51.8876 1C51.8876 0.723858 51.6637 0.5 51.3876 0.5V1.5ZM55.4186 0.5C55.1424 0.5 54.9186 0.723858 54.9186 1C54.9186 1.27614 55.1424 1.5 55.4186 1.5V0.5ZM59.4496 1.5C59.7257 1.5 59.9496 1.27614 59.9496 1C59.9496 0.723858 59.7257 0.5 59.4496 0.5V1.5ZM63.4806 0.5C63.2045 0.5 62.9806 0.723858 62.9806 1C62.9806 1.27614 63.2045 1.5 63.4806 1.5V0.5ZM67.5116 1.5C67.7878 1.5 68.0116 1.27614 68.0116 1C68.0116 0.723858 67.7878 0.5 67.5116 0.5V1.5ZM71.5426 0.5C71.2665 0.5 71.0426 0.723858 71.0426 1C71.0426 1.27614 71.2665 1.5 71.5426 1.5V0.5ZM75.5736 1.5C75.8498 1.5 76.0736 1.27614 76.0736 1C76.0736 0.723858 75.8498 0.5 75.5736 0.5V1.5ZM79.6046 0.5C79.3285 0.5 79.1046 0.723858 79.1046 1C79.1046 1.27614 79.3285 1.5 79.6046 1.5V0.5ZM83.6356 1.5C83.9118 1.5 84.1356 1.27614 84.1356 1C84.1356 0.723858 83.9118 0.5 83.6356 0.5V1.5ZM87.6666 0.5C87.3905 0.5 87.1666 0.723858 87.1666 1C87.1666 1.27614 87.3905 1.5 87.6666 1.5V0.5ZM91.6976 1.5C91.9738 1.5 92.1976 1.27614 92.1976 1C92.1976 0.723858 91.9738 0.5 91.6976 0.5V1.5ZM95.7286 0.5C95.4525 0.5 95.2286 0.723858 95.2286 1C95.2286 1.27614 95.4525 1.5 95.7286 1.5V0.5ZM99.7597 1.5C100.036 1.5 100.26 1.27614 100.26 1C100.26 0.723858 100.036 0.5 99.7597 0.5V1.5ZM103.791 0.5C103.515 0.5 103.291 0.723858 103.291 1C103.291 1.27614 103.515 1.5 103.791 1.5V0.5ZM107.822 1.5C108.098 1.5 108.322 1.27614 108.322 1C108.322 0.723858 108.098 0.5 107.822 0.5V1.5ZM111.853 0.5C111.577 0.5 111.353 0.723858 111.353 1C111.353 1.27614 111.577 1.5 111.853 1.5V0.5ZM115.884 1.5C116.16 1.5 116.384 1.27614 116.384 1C116.384 0.723858 116.16 0.5 115.884 0.5V1.5ZM119.915 0.5C119.639 0.5 119.415 0.723858 119.415 1C119.415 1.27614 119.639 1.5 119.915 1.5V0.5ZM123.946 1.5C124.222 1.5 124.446 1.27614 124.446 1C124.446 0.723858 124.222 0.5 123.946 0.5V1.5ZM127.977 0.5C127.701 0.5 127.477 0.723858 127.477 1C127.477 1.27614 127.701 1.5 127.977 1.5V0.5ZM132.008 1.5C132.284 1.5 132.508 1.27614 132.508 1C132.508 0.723858 132.284 0.5 132.008 0.5V1.5ZM136.039 0.5C135.763 0.5 135.539 0.723858 135.539 1C135.539 1.27614 135.763 1.5 136.039 1.5V0.5ZM140.07 1.5C140.346 1.5 140.57 1.27614 140.57 1C140.57 0.723858 140.346 0.5 140.07 0.5V1.5ZM144.101 0.5C143.825 0.5 143.601 0.723858 143.601 1C143.601 1.27614 143.825 1.5 144.101 1.5V0.5ZM148.132 1.5C148.408 1.5 148.632 1.27614 148.632 1C148.632 0.723858 148.408 0.5 148.132 0.5V1.5ZM152.163 0.5C151.887 0.5 151.663 0.723858 151.663 1C151.663 1.27614 151.887 1.5 152.163 1.5V0.5ZM156.194 1.5C156.47 1.5 156.694 1.27614 156.694 1C156.694 0.723858 156.47 0.5 156.194 0.5V1.5ZM160.225 0.5C159.949 0.5 159.725 0.723858 159.725 1C159.725 1.27614 159.949 1.5 160.225 1.5V0.5ZM164.256 1.5C164.532 1.5 164.756 1.27614 164.756 1C164.756 0.723858 164.532 0.5 164.256 0.5V1.5ZM168.287 0.5C168.011 0.5 167.787 0.723858 167.787 1C167.787 1.27614 168.011 1.5 168.287 1.5V0.5ZM172.318 1.5C172.594 1.5 172.818 1.27614 172.818 1C172.818 0.723858 172.594 0.5 172.318 0.5V1.5ZM176.349 0.5C176.073 0.5 175.849 0.723858 175.849 1C175.849 1.27614 176.073 1.5 176.349 1.5V0.5ZM180.38 1.5C180.656 1.5 180.88 1.27614 180.88 1C180.88 0.723858 180.656 0.5 180.38 0.5V1.5ZM184.411 0.5C184.135 0.5 183.911 0.723858 183.911 1C183.911 1.27614 184.135 1.5 184.411 1.5V0.5ZM188.442 1.5C188.718 1.5 188.942 1.27614 188.942 1C188.942 0.723858 188.718 0.5 188.442 0.5V1.5ZM192.473 0.5C192.197 0.5 191.973 0.723858 191.973 1C191.973 1.27614 192.197 1.5 192.473 1.5V0.5ZM196.504 1.5C196.78 1.5 197.004 1.27614 197.004 1C197.004 0.723858 196.78 0.5 196.504 0.5V1.5ZM200.535 0.5C200.259 0.5 200.035 0.723858 200.035 1C200.035 1.27614 200.259 1.5 200.535 1.5V0.5ZM204.566 1.5C204.842 1.5 205.066 1.27614 205.066 1C205.066 0.723858 204.842 0.5 204.566 0.5V1.5ZM208.597 0.5C208.321 0.5 208.097 0.723858 208.097 1C208.097 1.27614 208.321 1.5 208.597 1.5V0.5ZM212.628 1.5C212.904 1.5 213.128 1.27614 213.128 1C213.128 0.723858 212.904 0.5 212.628 0.5V1.5ZM216.659 0.5C216.383 0.5 216.159 0.723858 216.159 1C216.159 1.27614 216.383 1.5 216.659 1.5V0.5ZM220.69 1.5C220.966 1.5 221.19 1.27614 221.19 1C221.19 0.723858 220.966 0.5 220.69 0.5V1.5ZM224.721 0.5C224.445 0.5 224.221 0.723858 224.221 1C224.221 1.27614 224.445 1.5 224.721 1.5V0.5ZM228.752 1.5C229.028 1.5 229.252 1.27614 229.252 1C229.252 0.723858 229.028 0.5 228.752 0.5V1.5ZM232.783 0.5C232.507 0.5 232.283 0.723858 232.283 1C232.283 1.27614 232.507 1.5 232.783 1.5V0.5ZM236.814 1.5C237.09 1.5 237.314 1.27614 237.314 1C237.314 0.723858 237.09 0.5 236.814 0.5V1.5ZM240.845 0.5C240.569 0.5 240.345 0.723858 240.345 1C240.345 1.27614 240.569 1.5 240.845 1.5V0.5ZM244.876 1.5C245.152 1.5 245.376 1.27614 245.376 1C245.376 0.723858 245.152 0.5 244.876 0.5V1.5ZM248.907 0.5C248.631 0.5 248.407 0.723858 248.407 1C248.407 1.27614 248.631 1.5 248.907 1.5V0.5ZM252.938 1.5C253.214 1.5 253.438 1.27614 253.438 1C253.438 0.723858 253.214 0.5 252.938 0.5V1.5ZM256.969 0.5C256.693 0.5 256.469 0.723858 256.469 1C256.469 1.27614 256.693 1.5 256.969 1.5V0.5ZM261 1.5C261.276 1.5 261.5 1.27614 261.5 1C261.5 0.723858 261.276 0.5 261 0.5V1.5ZM265.031 0.5C264.755 0.5 264.531 0.723858 264.531 1C264.531 1.27614 264.755 1.5 265.031 1.5V0.5ZM269.062 1.5C269.338 1.5 269.562 1.27614 269.562 1C269.562 0.723858 269.338 0.5 269.062 0.5V1.5ZM273.093 0.5C272.817 0.5 272.593 0.723858 272.593 1C272.593 1.27614 272.817 1.5 273.093 1.5V0.5ZM277.124 1.5C277.4 1.5 277.624 1.27614 277.624 1C277.624 0.723858 277.4 0.5 277.124 0.5V1.5ZM281.155 0.5C280.879 0.5 280.655 0.723858 280.655 1C280.655 1.27614 280.879 1.5 281.155 1.5V0.5ZM285.186 1.5C285.462 1.5 285.686 1.27614 285.686 1C285.686 0.723858 285.462 0.5 285.186 0.5V1.5ZM289.217 0.5C288.941 0.5 288.717 0.723858 288.717 1C288.717 1.27614 288.941 1.5 289.217 1.5V0.5ZM293.248 1.5C293.524 1.5 293.748 1.27614 293.748 1C293.748 0.723858 293.524 0.5 293.248 0.5V1.5ZM297.279 0.5C297.003 0.5 296.779 0.723858 296.779 1C296.779 1.27614 297.003 1.5 297.279 1.5V0.5ZM301.31 1.5C301.586 1.5 301.81 1.27614 301.81 1C301.81 0.723858 301.586 0.5 301.31 0.5V1.5ZM305.341 0.5C305.065 0.5 304.841 0.723858 304.841 1C304.841 1.27614 305.065 1.5 305.341 1.5V0.5ZM309.372 1.5C309.648 1.5 309.872 1.27614 309.872 1C309.872 0.723858 309.648 0.5 309.372 0.5V1.5ZM313.403 0.5C313.127 0.5 312.903 0.723858 312.903 1C312.903 1.27614 313.127 1.5 313.403 1.5V0.5ZM317.434 1.5C317.71 1.5 317.934 1.27614 317.934 1C317.934 0.723858 317.71 0.5 317.434 0.5V1.5ZM321.465 0.5C321.189 0.5 320.965 0.723858 320.965 1C320.965 1.27614 321.189 1.5 321.465 1.5V0.5ZM325.496 1.5C325.772 1.5 325.996 1.27614 325.996 1C325.996 0.723858 325.772 0.5 325.496 0.5V1.5ZM329.527 0.5C329.251 0.5 329.027 0.723858 329.027 1C329.027 1.27614 329.251 1.5 329.527 1.5V0.5ZM333.558 1.5C333.834 1.5 334.058 1.27614 334.058 1C334.058 0.723858 333.834 0.5 333.558 0.5V1.5ZM337.589 0.5C337.313 0.5 337.089 0.723858 337.089 1C337.089 1.27614 337.313 1.5 337.589 1.5V0.5ZM341.62 1.5C341.896 1.5 342.12 1.27614 342.12 1C342.12 0.723858 341.896 0.5 341.62 0.5V1.5ZM345.651 0.5C345.375 0.5 345.151 0.723858 345.151 1C345.151 1.27614 345.375 1.5 345.651 1.5V0.5ZM1 1.5H3.0155V0.5H1V1.5ZM7.04651 1.5H11.0775V0.5H7.04651V1.5ZM15.1085 1.5H19.1395V0.5H15.1085V1.5ZM23.1705 1.5H27.2015V0.5H23.1705V1.5ZM31.2326 1.5H35.2636V0.5H31.2326V1.5ZM39.2946 1.5H43.3256V0.5H39.2946V1.5ZM47.3566 1.5H51.3876V0.5H47.3566V1.5ZM55.4186 1.5H59.4496V0.5H55.4186V1.5ZM63.4806 1.5H67.5116V0.5H63.4806V1.5ZM71.5426 1.5H75.5736V0.5H71.5426V1.5ZM79.6046 1.5H83.6356V0.5H79.6046V1.5ZM87.6666 1.5H91.6976V0.5H87.6666V1.5ZM95.7286 1.5H99.7597V0.5H95.7286V1.5ZM103.791 1.5H107.822V0.5H103.791V1.5ZM111.853 1.5H115.884V0.5H111.853V1.5ZM119.915 1.5H123.946V0.5H119.915V1.5ZM127.977 1.5H132.008V0.5H127.977V1.5ZM136.039 1.5H140.07V0.5H136.039V1.5ZM144.101 1.5H148.132V0.5H144.101V1.5ZM152.163 1.5H156.194V0.5H152.163V1.5ZM160.225 1.5H164.256V0.5H160.225V1.5ZM168.287 1.5H172.318V0.5H168.287V1.5ZM176.349 1.5H180.38V0.5H176.349V1.5ZM184.411 1.5H188.442V0.5H184.411V1.5ZM192.473 1.5H196.504V0.5H192.473V1.5ZM200.535 1.5H204.566V0.5H200.535V1.5ZM208.597 1.5H212.628V0.5H208.597V1.5ZM216.659 1.5H220.69V0.5H216.659V1.5ZM224.721 1.5H228.752V0.5H224.721V1.5ZM232.783 1.5H236.814V0.5H232.783V1.5ZM240.845 1.5H244.876V0.5H240.845V1.5ZM248.907 1.5H252.938V0.5H248.907V1.5ZM256.969 1.5H261V0.5H256.969V1.5ZM265.031 1.5H269.062V0.5H265.031V1.5ZM273.093 1.5H277.124V0.5H273.093V1.5ZM281.155 1.5H285.186V0.5H281.155V1.5ZM289.217 1.5H293.248V0.5H289.217V1.5ZM297.279 1.5H301.31V0.5H297.279V1.5ZM305.341 1.5H309.372V0.5H305.341V1.5ZM313.403 1.5H317.434V0.5H313.403V1.5ZM321.465 1.5H325.496V0.5H321.465V1.5ZM329.527 1.5H333.558V0.5H329.527V1.5ZM337.589 1.5H341.62V0.5H337.589V1.5ZM345.651 1.5H347.667V0.5H345.651V1.5Z" fill="white" fill-opacity="0.1"/>
</svg>
