<svg width="90" height="27" viewBox="0 0 90 27" fill="none" xmlns="http://www.w3.org/2000/svg">
<path fill-rule="evenodd" clip-rule="evenodd" d="M5.88247 11.3974L10.9755 8.14842L16.0686 11.3799L10.9755 14.6289L16.0422 17.8955L21.1353 14.6464L16.0422 11.3974L21.1353 8.14842L16.0422 4.89941L10.9755 8.14842L5.88247 4.89941L0.789429 8.14842L5.88247 11.3799L0.789429 14.6289L5.88247 17.8955L10.9755 14.6464L5.88247 11.3974ZM10.9492 15.6914L5.85613 18.9404L10.9492 22.1894L16.0422 18.9404L10.9492 15.6914ZM29.249 8.14837H25.1307V18.9316H29.328C32.0151 18.9316 34.0435 17.3597 34.0435 13.8649V13.136C34.0435 9.6675 31.8746 8.14837 29.249 8.14837ZM27.4313 16.9646V10.1066H29.1173C30.6364 10.1066 31.6902 11.0813 31.6902 13.2502V13.821C31.6902 15.9899 30.6891 16.9646 29.1963 16.9646H27.4313ZM37.1081 10.2119H35.2992V18.9579H37.5735V14.9449C37.5735 13.1009 38.0301 12.4511 39.9005 12.4511H40.8489V10.1241H40.2781C38.6536 10.1241 37.7579 10.8617 37.4067 12.2404L37.1081 10.2119ZM41.3055 14.5147V14.7605C41.3055 17.6407 42.9036 19.1511 45.7224 19.1774C48.3743 19.1774 50.1393 17.632 50.1393 14.7605V14.5147C50.1393 11.5906 48.3216 9.9924 45.7224 9.9924C43.1758 9.9924 41.3055 11.5906 41.3055 14.5147ZM47.8123 14.5147V14.7342C47.8123 16.306 46.9956 17.1753 45.696 17.2017C44.3964 17.2017 43.5798 16.306 43.5798 14.7342V14.5147C43.5798 12.8111 44.4228 11.9155 45.696 11.9155C46.9956 11.9155 47.8123 12.8902 47.8123 14.5147ZM53.2302 10.2119H51.3335L51.3071 21.9786H53.5288V17.5617C53.9942 18.5628 54.9425 19.1862 56.3212 19.1862C58.3847 19.1862 60.0092 17.6671 60.0092 14.7957V14.5498C60.0092 11.5906 58.5428 9.9924 56.3212 9.9924C54.8811 9.9924 53.9064 10.7564 53.4497 11.8628L53.2302 10.2119ZM57.6998 14.541V14.7342C57.6998 16.3675 56.8919 17.2017 55.5835 17.228C54.3103 17.228 53.4936 16.2533 53.4936 14.7079V14.541C53.4936 12.9165 54.3366 11.9418 55.6099 11.9418C56.8041 11.9418 57.6998 12.8024 57.6998 14.541ZM63.1792 18.9403L63.3724 17.3422C63.829 18.4749 64.7774 19.1511 66.2438 19.1862C68.4654 19.1862 69.9319 17.5266 69.9319 14.6288V14.3566C69.9319 11.4588 68.3864 10.0187 66.2965 9.9924C64.9179 9.9924 63.9432 10.6159 63.4514 11.7574V7.28782H61.2298V18.9403H63.1792ZM67.5961 14.4093V14.6288C67.5961 16.3675 66.8146 17.2017 65.4799 17.2017C64.2329 17.2017 63.39 16.2533 63.39 14.6288V14.4356C63.39 12.9165 64.2593 11.9155 65.5062 11.9155C66.7268 11.9155 67.5961 12.8111 67.5961 14.4093ZM70.9066 14.5147V14.7605C70.9066 17.6407 72.5047 19.1511 75.3235 19.1774C77.949 19.1774 79.7404 17.632 79.7404 14.7605V14.5147C79.7404 11.5906 77.9227 9.9924 75.3235 9.9924C72.777 9.9924 70.9066 11.5906 70.9066 14.5147ZM77.431 14.5147V14.7342C77.431 16.306 76.6231 17.1753 75.3147 17.2017C74.0151 17.2017 73.1984 16.306 73.1984 14.7342V14.5147C73.1984 12.8111 74.0414 11.9155 75.3147 11.9155C76.6143 11.9155 77.431 12.8902 77.431 14.5147ZM79.6526 10.2119L82.7172 14.4093L79.3891 18.9403H82.0762L84.0256 16.0426L86.0277 18.9403H88.6005L85.3252 14.383L88.4337 10.2119H85.8345L84.0431 12.8375L82.2781 10.2119H79.6526Z" fill="#818898"/>
</svg>
