<svg width="136" height="40" viewBox="0 0 136 40" fill="none" xmlns="http://www.w3.org/2000/svg">
<path fill-rule="evenodd" clip-rule="evenodd" d="M7.7475 12.8855C8.04514 12.563 8.06995 12.067 8.06995 11.7693V8.47048C8.06995 7.55275 8.06995 7.00708 8.11955 6.63503C8.14436 6.4366 8.24357 6.18857 8.29318 6.06455C8.31798 6.01494 8.29318 6.01494 8.26837 6.03974L1.02577 13.4064C1.00097 13.4312 1.00097 13.456 1.05058 13.4312C1.1746 13.3816 1.42263 13.2823 1.62106 13.2575C1.99311 13.2079 2.53878 13.2079 3.45651 13.2079H6.63135C6.92899 13.2079 7.42506 13.1831 7.7475 12.8855ZM13.3531 32.3314C13.5267 32.7778 13.9732 33.4971 14.8165 34.0428C15.4862 34.5141 16.5031 34.9605 17.8673 34.9605C17.8673 34.9605 24.217 35.3326 25.2835 27.6931C25.3579 27.6931 26.2757 19.8553 24.7626 11.7693C24.1741 8.66813 21.3131 8.21127 19.7807 7.96657C19.634 7.94315 19.4995 7.92167 19.3803 7.9C17.9417 7.65197 15.0893 7.1559 15.0893 7.1559C15.0893 7.1559 14.7669 5.61809 13.2539 5.24604C13.2011 5.23285 13.1523 5.22045 13.1065 5.20883C12.8939 5.15483 12.7474 5.11762 12.5842 5.09721C12.3113 5.07241 12.0137 5.04761 11.7657 5.04761H11.1704C9.95501 5.04761 9.13649 5.81651 9.01248 6.73424V6.88306V11.9678C9.01248 12.6375 8.91326 13.2079 8.4916 13.6048C8.16916 13.9024 7.67309 14.1257 6.80497 14.1257H1.89389H1.74507C0.802544 14.2497 0.0584412 15.0682 0.0584412 16.2836C0.059617 16.2977 0.0607928 16.3118 0.0619738 16.3261C0.0857077 16.612 0.111575 16.9236 0.182458 17.3253C0.320717 18.2536 0.537616 19.2291 0.695387 19.9387C0.735743 20.1202 0.772231 20.2843 0.802544 20.4257C1.44743 23.2781 2.6876 24.2951 2.6876 24.2951C4.52306 26.1801 7.17702 26.9738 9.68217 26.825C9.75658 26.825 10.0046 26.8002 10.2278 26.7506C10.4511 26.701 10.6495 26.6266 10.7983 26.5522C12.3361 25.6097 13.105 22.1372 13.105 22.1372C13.2787 24.4439 15.883 25.2624 16.9248 25.3864C16.9496 25.3864 17.2968 25.436 17.6689 25.5104C17.6985 25.5179 17.7284 25.5253 17.7585 25.5327C18.0296 25.5999 18.3087 25.6691 18.4874 25.7585C19.8268 26.3538 20.8437 27.6931 20.8437 29.2061C20.8437 30.8928 19.4795 32.257 17.7929 32.257C17.148 32.257 16.5527 32.0089 16.1063 31.5625C15.8582 31.3144 15.7094 30.9672 15.7094 30.5951C15.7094 30.2479 15.9078 29.9254 16.1559 29.727C16.347 29.5572 16.7198 29.4964 16.901 29.4668C16.9315 29.4618 16.9565 29.4578 16.9744 29.4542C17.0984 29.4294 17.272 29.3798 17.396 29.3054C17.7433 29.1069 17.9665 28.7597 17.9665 28.338C17.9665 27.7179 17.4704 27.2219 16.8504 27.2219C14.7669 27.2219 13.0802 28.9085 13.0802 30.9672C13.0802 31.4385 13.1795 31.9097 13.3531 32.3314ZM18.7602 18.6647C19.0083 18.0446 19.7028 17.7222 20.5213 17.7966C21.3398 17.8958 21.9351 18.3671 22.0343 19.0615C22.0343 19.0926 22.0358 19.1251 22.0374 19.1577C22.042 19.2553 22.0467 19.353 22.0095 19.4088C21.9599 19.4832 21.9103 19.508 21.8606 19.508C21.5382 19.5576 21.0421 19.508 20.3228 19.4336C19.6035 19.3592 19.1075 19.2848 18.8098 19.136C18.7602 19.1112 18.7106 19.0863 18.6858 19.0119C18.661 18.9375 18.7106 18.7887 18.7602 18.6647ZM33.7658 25.982L32.9224 26.1556L32.9473 26.8501H46.862L47.2092 21.0213H46.4155C45.7706 22.5839 45.2994 23.6257 44.8529 24.2954C44.0344 25.5107 43.6375 25.7588 41.6533 25.7588C39.2473 25.7588 39.1729 25.5107 39.1729 23.3032V18.541H39.8426C41.6533 18.541 41.9757 18.665 42.2733 19.2851C42.6206 20.0044 42.819 20.5004 43.0422 21.2693H43.7863V14.8701H43.0422C42.819 15.6638 42.6206 16.135 42.2733 16.7551C41.9757 17.3008 41.5788 17.4992 39.8426 17.4992H39.1729V11.1743C39.545 11.0751 40.165 10.9263 41.43 10.9263C43.1415 10.9263 43.6623 11.0255 44.456 12.1665C44.8281 12.7122 45.2249 13.4315 45.845 14.7956H46.6139L46.3659 9.85977H32.9224V10.5543L33.7658 10.7279C34.4851 10.9015 34.7083 11.0255 34.7083 12.5137V24.1961C34.7083 25.6844 34.5099 25.7836 33.7658 25.982ZM47.8293 14.9197C48.4494 15.1181 48.7222 15.4653 49.2927 16.8543L53.3357 26.8501H55.4192L59.2141 17.1272C59.8094 15.5149 60.0822 15.1429 60.7271 14.9197L61.1983 14.7708V14.126H56.6593V14.7708L57.329 14.9445C57.8499 15.0685 58.0979 15.3413 58.0979 15.887C58.0979 16.2342 57.9987 16.6559 57.7755 17.2512L55.7912 22.9064H55.6672L53.6085 17.2512C53.4101 16.7055 53.2861 16.2839 53.2861 15.9366C53.2861 15.3413 53.5341 15.0933 54.055 14.9445L54.7247 14.7708V14.126H47.358V14.7708L47.8293 14.9197ZM67.0272 13.8035C63.7779 13.8035 60.6279 16.1598 60.6279 20.426C60.6279 24.593 62.7362 27.123 67.0023 27.1726C69.4579 27.1726 71.3181 25.8828 72.1863 24.9403V24.1217C71.2685 24.593 70.1028 25.0395 68.5898 25.0395C66.0598 25.0395 64.5468 23.9481 64.4724 19.93H72.5831C72.5087 15.4901 70.4004 13.8035 67.0272 13.8035ZM68.6642 18.7642L64.4724 18.9874C64.5716 15.9118 65.5638 14.7212 66.8039 14.7212C68.2673 14.7212 68.6642 15.8126 68.6642 18.7642ZM82.7773 13.7291C81.1403 13.7291 79.7265 14.9445 79.032 15.6886L78.9576 15.6638L79.0072 13.9771L78.7344 13.7787L73.5753 14.374V14.8701L74.3938 15.4157L74.4129 15.4287C75.0906 15.8885 75.2123 15.971 75.2123 17.0032V24.6178C75.2123 25.6595 75.1131 25.7836 74.2946 26.0068L73.6497 26.1804V26.8501H80.7186V26.1804L79.9001 26.0068C79.156 25.8828 79.0568 25.7588 79.0568 24.6178V16.6807C79.3793 16.3831 79.9001 16.0606 80.3466 16.0606C80.5698 16.0606 80.8923 16.135 81.0411 16.4079C81.3139 17.0776 82.0084 17.5488 82.7773 17.5488C83.8439 17.5488 84.6872 16.7055 84.6872 15.639C84.6872 14.5724 83.8191 13.7291 82.7773 13.7291ZM86.0762 26.0068L85.4313 26.1804H85.4809V26.8501H92.3018V26.1804L91.7066 26.0316C90.9625 25.8332 90.8881 25.7836 90.8881 24.6178V16.3831L90.8973 16.381C91.4435 16.2568 92.3067 16.0606 93.17 16.0606C94.3109 16.0606 94.8566 16.5319 94.8566 18.0201V24.593C94.8566 25.734 94.7822 25.8084 94.0381 26.0068L93.4428 26.1556V26.8253H100.264V26.1556L99.6189 25.982C98.8251 25.7836 98.7259 25.6595 98.7259 24.593V17.0528C98.7259 14.8453 97.6098 13.7787 95.5263 13.7787C93.7404 13.7787 92.1282 14.5972 90.8384 15.5149H90.7392L90.7888 13.9523L90.516 13.7787L85.3569 14.374V14.8701L86.1754 15.4157L86.1945 15.4287C86.8722 15.8885 86.9939 15.971 86.9939 17.0032V24.6178C86.9939 25.6595 86.8947 25.7836 86.0762 26.0068ZM107.358 13.8035C104.059 13.8035 100.735 15.8126 100.735 20.5004C100.735 24.9899 103.811 27.123 107.358 27.123C110.731 27.123 114.005 25.0643 114.005 20.3764C114.005 15.9366 110.904 13.8035 107.358 13.8035ZM107.258 14.746C108.945 14.746 109.887 15.6886 109.887 20.6245C109.887 25.3123 108.871 26.1804 107.407 26.1804C105.621 26.1804 104.803 25.0891 104.803 20.0788C104.803 15.8622 105.721 14.746 107.258 14.746ZM116.113 15.5646V23.7497C116.113 26.1556 117.304 27.123 119.511 27.123C121.57 27.123 122.785 26.23 123.381 25.6844V24.9899C122.934 25.0891 122.215 25.2131 121.619 25.2131C120.404 25.2131 120.032 24.717 120.032 23.5016V15.5646H122.959L123.281 14.126H120.032V10.8519H118.643C117.949 12.8114 116.485 14.2252 114.575 14.9693V15.5646H116.113ZM130.276 13.8035C127.027 13.8035 123.877 16.1598 123.877 20.426C123.877 24.593 125.985 27.123 130.276 27.1726C132.731 27.1726 134.592 25.8828 135.46 24.9403V24.1217C134.542 24.593 133.376 25.0395 131.863 25.0395C129.333 25.0395 127.82 23.9481 127.746 19.93H135.832C135.757 15.4901 133.649 13.8035 130.276 13.8035ZM131.913 18.7642L127.721 18.9874C127.82 15.9118 128.812 14.7212 130.053 14.7212C131.516 14.7212 131.913 15.8126 131.913 18.7642Z" fill="#818898"/>
</svg>
