<svg width="36" height="36" viewBox="0 0 36 36" fill="none" xmlns="http://www.w3.org/2000/svg">
<g filter="url(#filter0_di_1_13390)">
<rect x="8" y="8" width="20" height="20" rx="5" fill="url(#paint0_radial_1_13390)"/>
<rect x="7.58333" y="7.58333" width="20.8333" height="20.8333" rx="5.41667" stroke="#BDB6F6" stroke-width="0.833333"/>
<rect x="9.875" y="9.87508" width="16.25" height="16.25" rx="3.125" stroke="white" stroke-opacity="0.4" stroke-width="0.416667"/>
<path fill-rule="evenodd" clip-rule="evenodd" d="M14.4867 15.4999C14.4911 15.4999 14.4956 15.4999 14.5 15.4999H14.8333C14.8378 15.4999 14.8422 15.4999 14.8466 15.4999C14.9518 15.4999 15.0542 15.4999 15.1409 15.507C15.2362 15.5148 15.3486 15.5331 15.4617 15.5907C15.6185 15.6706 15.7459 15.7981 15.8258 15.9549C15.8835 16.068 15.9018 16.1804 15.9096 16.2757C15.9167 16.3624 15.9167 16.4648 15.9167 16.57C15.9167 16.5744 15.9167 16.5788 15.9167 16.5833L15.9167 21.0965C15.9167 21.2017 15.9167 21.3041 15.9096 21.3909C15.9018 21.4861 15.8835 21.5985 15.8258 21.7116C15.7459 21.8684 15.6185 21.9959 15.4617 22.0758C15.3486 22.1334 15.2362 22.1517 15.1409 22.1595C15.0542 22.1666 14.9518 22.1666 14.8466 22.1666H14.4867C14.3816 22.1666 14.2791 22.1666 14.1924 22.1595C14.0972 22.1517 13.9848 22.1334 13.8717 22.0758C13.7149 21.9959 13.5874 21.8684 13.5075 21.7116C13.4499 21.5985 13.4315 21.4861 13.4237 21.3909C13.4166 21.3041 13.4167 21.2017 13.4167 21.0965L13.4167 16.5833C13.4167 16.5788 13.4167 16.5744 13.4167 16.57C13.4167 16.4648 13.4166 16.3624 13.4237 16.2757C13.4315 16.1804 13.4499 16.068 13.5075 15.9549C13.5874 15.7981 13.7149 15.6706 13.8717 15.5907C13.9848 15.5331 14.0972 15.5148 14.1924 15.507C14.2791 15.4999 14.3816 15.4999 14.4867 15.4999Z" fill="white"/>
<path fill-rule="evenodd" clip-rule="evenodd" d="M17.82 13.8333C17.8245 13.8333 17.8289 13.8333 17.8333 13.8333L18.1667 13.8333C18.1711 13.8333 18.1755 13.8333 18.18 13.8333C18.2851 13.8332 18.3875 13.8332 18.4743 13.8403C18.5695 13.8481 18.6819 13.8665 18.795 13.9241C18.9518 14.004 19.0793 14.1315 19.1592 14.2883C19.2168 14.4014 19.2352 14.5137 19.2429 14.609C19.25 14.6957 19.25 14.7981 19.25 14.9033C19.25 14.9077 19.25 14.9122 19.25 14.9166L19.25 21.0965C19.25 21.2017 19.25 21.3041 19.2429 21.3909C19.2352 21.4861 19.2168 21.5985 19.1592 21.7116C19.0793 21.8684 18.9518 21.9959 18.795 22.0758C18.6819 22.1334 18.5695 22.1517 18.4743 22.1595C18.3875 22.1666 18.2851 22.1666 18.18 22.1666H17.82C17.7149 22.1666 17.6125 22.1666 17.5257 22.1595C17.4305 22.1517 17.3181 22.1334 17.205 22.0758C17.0482 21.9959 16.9207 21.8684 16.8408 21.7116C16.7832 21.5985 16.7648 21.4861 16.7571 21.3909C16.75 21.3041 16.75 21.2017 16.75 21.0965L16.75 14.9166C16.75 14.9122 16.75 14.9077 16.75 14.9033C16.75 14.7981 16.75 14.6957 16.7571 14.609C16.7648 14.5137 16.7832 14.4014 16.8408 14.2883C16.9207 14.1315 17.0482 14.004 17.205 13.9241C17.3181 13.8665 17.4305 13.8481 17.5257 13.8403C17.6125 13.8332 17.7149 13.8332 17.82 13.8333Z" fill="white"/>
<path fill-rule="evenodd" clip-rule="evenodd" d="M21.1534 17.1666C21.1578 17.1666 21.1622 17.1666 21.1667 17.1666H21.5C21.5044 17.1666 21.5089 17.1666 21.5133 17.1666C21.6185 17.1666 21.7209 17.1666 21.8076 17.1736C21.9028 17.1814 22.0152 17.1998 22.1283 17.2574C22.2851 17.3373 22.4126 17.4648 22.4925 17.6216C22.5501 17.7347 22.5685 17.8471 22.5763 17.9423C22.5834 18.0291 22.5833 18.1315 22.5833 18.2366C22.5833 18.2411 22.5833 18.2455 22.5833 18.2499L22.5833 21.0965C22.5833 21.2017 22.5834 21.3041 22.5763 21.3909C22.5685 21.4861 22.5501 21.5985 22.4925 21.7116C22.4126 21.8684 22.2851 21.9959 22.1283 22.0758C22.0152 22.1334 21.9028 22.1517 21.8076 22.1595C21.7209 22.1666 21.6184 22.1666 21.5133 22.1666H21.1534C21.0482 22.1666 20.9458 22.1666 20.8591 22.1595C20.7638 22.1517 20.6514 22.1334 20.5383 22.0758C20.3815 21.9959 20.2541 21.8684 20.1742 21.7116C20.1165 21.5985 20.0982 21.4861 20.0904 21.3909C20.0833 21.3041 20.0833 21.2017 20.0833 21.0965L20.0833 18.2499C20.0833 18.2455 20.0833 18.2411 20.0833 18.2366C20.0833 18.1315 20.0833 18.0291 20.0904 17.9423C20.0982 17.8471 20.1165 17.7347 20.1742 17.6216C20.2541 17.4648 20.3815 17.3373 20.5383 17.2574C20.6514 17.1998 20.7638 17.1814 20.8591 17.1736C20.9458 17.1666 21.0482 17.1666 21.1534 17.1666Z" fill="white"/>
</g>
<defs>
<filter id="filter0_di_1_13390" x="0.500001" y="0.500082" width="35" height="34.9998" filterUnits="userSpaceOnUse" color-interpolation-filters="sRGB">
<feFlood flood-opacity="0" result="BackgroundImageFix"/>
<feColorMatrix in="SourceAlpha" type="matrix" values="0 0 0 0 0 0 0 0 0 0 0 0 0 0 0 0 0 0 127 0" result="hardAlpha"/>
<feOffset/>
<feGaussianBlur stdDeviation="3.33333"/>
<feComposite in2="hardAlpha" operator="out"/>
<feColorMatrix type="matrix" values="0 0 0 0 0.0235294 0 0 0 0 0.101961 0 0 0 0 0.164706 0 0 0 0.12 0"/>
<feBlend mode="normal" in2="BackgroundImageFix" result="effect1_dropShadow_1_13390"/>
<feBlend mode="normal" in="SourceGraphic" in2="effect1_dropShadow_1_13390" result="shape"/>
<feColorMatrix in="SourceAlpha" type="matrix" values="0 0 0 0 0 0 0 0 0 0 0 0 0 0 0 0 0 0 127 0" result="hardAlpha"/>
<feOffset/>
<feGaussianBlur stdDeviation="1.66667"/>
<feComposite in2="hardAlpha" operator="arithmetic" k2="-1" k3="1"/>
<feColorMatrix type="matrix" values="0 0 0 0 0.0235294 0 0 0 0 0.101961 0 0 0 0 0.164706 0 0 0 0.15 0"/>
<feBlend mode="normal" in2="shape" result="effect2_innerShadow_1_13390"/>
</filter>
<radialGradient id="paint0_radial_1_13390" cx="0" cy="0" r="1" gradientUnits="userSpaceOnUse" gradientTransform="translate(4.25 -8.66667) rotate(62.7232) scale(30.0029)">
<stop stop-color="white"/>
<stop offset="1" stop-color="#5B49E9"/>
</radialGradient>
</defs>
</svg>
