<svg width="266" height="274" viewBox="0 0 266 274" fill="none" xmlns="http://www.w3.org/2000/svg">
<rect width="266" height="274" rx="12" fill="white"/>
<path d="M23.125 34.1172C21.4453 34.1172 20.3809 33.1699 20.3809 31.6562H21.2793C21.2793 32.6963 21.958 33.3164 23.125 33.3164C24.1846 33.3164 24.8828 32.8184 24.8828 32.0371C24.8828 31.4316 24.4922 31.0801 23.4424 30.8213L22.627 30.6211C21.1426 30.2549 20.5273 29.6787 20.5273 28.6875C20.5273 27.4326 21.5186 26.6074 23.0371 26.6074C24.5508 26.6074 25.5176 27.4766 25.5566 28.873H24.6875C24.6338 27.9648 23.9941 27.4131 23.0078 27.4131C22.0654 27.4131 21.3965 27.9209 21.3965 28.6436C21.3965 29.21 21.8018 29.5371 22.8564 29.8008L23.6816 30.0059C25.0977 30.3574 25.7617 30.9824 25.7617 31.998C25.7617 33.2627 24.707 34.1172 23.125 34.1172ZM26.7578 36.041V28.8438H27.5684V29.6055H27.5781C27.9102 29.0293 28.54 28.7461 29.209 28.7461C30.5518 28.7461 31.4453 29.8301 31.4453 31.4219C31.4453 33.0088 30.5518 34.0977 29.209 34.0977C28.54 34.0977 27.9688 33.8145 27.5977 33.2188H27.5879V36.041H26.7578ZM29.082 33.3506C29.9756 33.3506 30.6055 32.6865 30.6055 31.4219C30.6055 30.1572 29.9756 29.4883 29.082 29.4883C28.125 29.4883 27.5195 30.2549 27.5195 31.4219C27.5195 32.5889 28.125 33.3506 29.082 33.3506ZM34.541 34.1172C33.0273 34.1172 32.1484 32.9844 32.1484 31.4316C32.1484 29.8643 33.1152 28.7266 34.4824 28.7266C35.918 28.7266 36.8262 29.8301 36.8262 31.4316V31.6611H32.9688C33.0078 32.6719 33.5645 33.3652 34.541 33.3652C35.2734 33.3652 35.752 32.9941 35.9082 32.457H36.7383C36.543 33.4434 35.6641 34.1172 34.541 34.1172ZM32.9785 30.9482H35.9961C35.9082 30.04 35.332 29.4688 34.4824 29.4688C33.6377 29.4688 33.0664 30.04 32.9785 30.9482ZM38.6035 30.9824V34H37.7734V28.8438H38.584V29.6006C38.9404 29.0146 39.4629 28.7461 40.1172 28.7461C41.1572 28.7461 42.0117 29.4248 42.0117 30.7969V34H41.1816V30.8555C41.1816 29.9619 40.7324 29.5078 39.9609 29.5078C39.209 29.5078 38.6035 29.9424 38.6035 30.9824ZM45.2148 34.0977C43.8721 34.0977 42.9785 33.0088 42.9785 31.4219C42.9785 29.8301 43.8721 28.7461 45.2148 28.7461C45.8838 28.7461 46.4941 29.0293 46.8262 29.6055H46.8359V26.7246H47.666V34H46.8555V33.2188H46.8457C46.4746 33.8145 45.8838 34.0977 45.2148 34.0977ZM45.3418 33.3506C46.2988 33.3506 46.9043 32.5889 46.9043 31.4219C46.9043 30.2549 46.2988 29.4883 45.3418 29.4883C44.4482 29.4883 43.8184 30.1572 43.8184 31.4219C43.8184 32.6865 44.4482 33.3506 45.3418 33.3506ZM48.8965 34V28.8438H49.7266V34H48.8965ZM49.3115 27.8379C48.999 27.8379 48.7451 27.584 48.7451 27.2715C48.7451 26.959 48.999 26.7051 49.3115 26.7051C49.624 26.7051 49.8779 26.959 49.8779 27.2715C49.8779 27.584 49.624 27.8379 49.3115 27.8379ZM51.7871 30.9824V34H50.957V28.8438H51.7676V29.6006C52.124 29.0146 52.6465 28.7461 53.3008 28.7461C54.3408 28.7461 55.1953 29.4248 55.1953 30.7969V34H54.3652V30.8555C54.3652 29.9619 53.916 29.5078 53.1445 29.5078C52.3926 29.5078 51.7871 29.9424 51.7871 30.9824ZM58.584 36.1094C57.4219 36.1094 56.543 35.5625 56.416 34.5469H57.2656C57.4121 35.1035 57.9199 35.377 58.584 35.377C59.4824 35.377 60.0293 34.8789 60.0293 34V33.2188H60.0244C59.6436 33.8193 59.0771 34.0977 58.3984 34.0977C57.0557 34.0977 56.1621 33.0088 56.1621 31.4219C56.1621 29.8301 57.0557 28.7461 58.3984 28.7461C59.0674 28.7461 59.6777 29.0146 60.0342 29.6494H60.0391V28.8438H60.8496V34C60.8496 35.5234 59.7852 36.1094 58.584 36.1094ZM58.5254 33.3506C59.4824 33.3506 60.0879 32.5889 60.0879 31.4219C60.0879 30.2549 59.4824 29.4883 58.5254 29.4883C57.6318 29.4883 57.002 30.1572 57.002 31.4219C57.002 32.6865 57.6318 33.3506 58.5254 33.3506ZM64.5801 36.041V28.8438H65.3906V29.6055H65.4004C65.7324 29.0293 66.3623 28.7461 67.0312 28.7461C68.374 28.7461 69.2676 29.8301 69.2676 31.4219C69.2676 33.0088 68.374 34.0977 67.0312 34.0977C66.3623 34.0977 65.791 33.8145 65.4199 33.2188H65.4102V36.041H64.5801ZM66.9043 33.3506C67.7979 33.3506 68.4277 32.6865 68.4277 31.4219C68.4277 30.1572 67.7979 29.4883 66.9043 29.4883C65.9473 29.4883 65.3418 30.2549 65.3418 31.4219C65.3418 32.5889 65.9473 33.3506 66.9043 33.3506ZM72.3633 34.1172C70.8496 34.1172 69.9707 32.9844 69.9707 31.4316C69.9707 29.8643 70.9375 28.7266 72.3047 28.7266C73.7402 28.7266 74.6484 29.8301 74.6484 31.4316V31.6611H70.791C70.8301 32.6719 71.3867 33.3652 72.3633 33.3652C73.0957 33.3652 73.5742 32.9941 73.7305 32.457H74.5605C74.3652 33.4434 73.4863 34.1172 72.3633 34.1172ZM70.8008 30.9482H73.8184C73.7305 30.04 73.1543 29.4688 72.3047 29.4688C71.46 29.4688 70.8887 30.04 70.8008 30.9482ZM75.5957 34V28.8438H76.3867V29.6543H76.4062C76.5967 29.1221 77.002 28.7656 77.6465 28.7656C77.7979 28.7656 77.9297 28.7852 77.998 28.7949V29.625C77.9297 29.6055 77.7295 29.5664 77.4902 29.5664C76.9189 29.5664 76.4258 29.9521 76.4258 30.8262V34H75.5957ZM81.3184 34V28.8438H82.1289V29.6787C82.4561 29.0732 83.0273 28.7461 83.6572 28.7461C84.3652 28.7461 84.9219 29.1562 85.1367 29.6738C85.4199 29.1465 85.9961 28.7461 86.7627 28.7461C87.7051 28.7461 88.4766 29.3516 88.4766 30.6211V34H87.6465V30.6211C87.6465 29.8203 87.1191 29.5078 86.5283 29.5078C85.7715 29.5078 85.3125 30.0205 85.3125 30.7188V34H84.4824V30.5332C84.4824 29.918 84.0186 29.5078 83.3936 29.5078C82.7441 29.5078 82.1484 29.9668 82.1484 30.8555V34H81.3184ZM91.8359 34.1172C90.4053 34.1172 89.4434 33.0039 89.4434 31.4316C89.4434 29.8496 90.4053 28.7266 91.8359 28.7266C93.2666 28.7266 94.2285 29.8496 94.2285 31.4316C94.2285 33.0039 93.2666 34.1172 91.8359 34.1172ZM91.8359 33.3652C92.8125 33.3652 93.3887 32.5986 93.3887 31.4316C93.3887 30.2549 92.8076 29.4785 91.8359 29.4785C90.8643 29.4785 90.2832 30.25 90.2832 31.4316C90.2832 32.6035 90.8594 33.3652 91.8359 33.3652ZM96.0254 30.9824V34H95.1953V28.8438H96.0059V29.6006C96.3623 29.0146 96.8848 28.7461 97.5391 28.7461C98.5791 28.7461 99.4336 29.4248 99.4336 30.7969V34H98.6035V30.8555C98.6035 29.9619 98.1543 29.5078 97.3828 29.5078C96.6309 29.5078 96.0254 29.9424 96.0254 30.9824ZM102.915 28.8438V29.5566H101.87V32.75C101.87 33.1504 102.012 33.2871 102.437 33.2871H102.915V34H102.358C101.475 34 101.04 33.6143 101.04 32.8379V29.5566H100.122V28.8438H101.04V27.4375H101.87V28.8438H102.915ZM104.609 30.9824V34H103.779V26.7246H104.609V29.5664C104.966 29.0049 105.483 28.7461 106.123 28.7461C107.163 28.7461 108.018 29.4248 108.018 30.7969V34H107.188V30.8555C107.188 29.9619 106.738 29.5078 105.967 29.5078C105.215 29.5078 104.609 29.9424 104.609 30.9824Z" fill="#818898"/>
<path d="M31.8 60.04C31.8 62.38 30.18 63.9 27.16 64.14V65.8H25.54V64.16C22.52 63.9 20.88 62.18 20.74 59.54H23.12C23.22 60.92 24.1 61.8 25.54 62.02V57.78L25.18 57.7C22.6 57.14 21.2 55.98 21.2 53.74C21.2 51.58 22.84 50.08 25.54 49.86V48.2H27.16V49.86C28.48 50 29.54 50.48 30.34 51.26C31.14 52.04 31.54 53 31.56 54.16H29.18C29.12 52.96 28.44 52.24 27.16 52.02V55.8L27.56 55.88C30.38 56.46 31.8 57.86 31.8 60.04ZM23.62 53.74C23.62 54.58 24.26 55.16 25.54 55.46V51.98C24.26 52.14 23.62 52.72 23.62 53.74ZM27.16 58.12V62.04C28.64 61.86 29.38 61.22 29.38 60.08C29.38 59.02 28.68 58.46 27.22 58.14L27.16 58.12ZM41.5167 64H39.2167V61.22H32.9367V58.94L38.5167 50H41.5167V59.18H43.3167V61.22H41.5167V64ZM35.1767 59.1V59.18H39.2167V52.6H39.1367L35.1767 59.1ZM45.9745 66.76H44.1745V66.56L44.7945 61.86H47.3745V62.06L45.9745 66.76ZM53.8802 64.18C52.4402 64.18 51.2602 63.78 50.3602 62.98C49.4602 62.16 49.0202 61.16 49.0202 59.96H51.3202C51.3802 61.18 52.2802 62.14 53.8802 62.14C55.6402 62.14 56.4802 61 56.4802 59.38C56.4802 57.84 55.6002 56.7 53.9002 56.7C52.9202 56.7 52.1202 57.1 51.5202 57.92H49.2402L49.7802 50H57.9602V52.06H51.7002L51.4402 55.74H51.5202C52.1802 55.1 53.1002 54.78 54.2402 54.78C55.6202 54.78 56.7402 55.22 57.5602 56.08C58.3802 56.94 58.8002 58.02 58.8002 59.34C58.8002 62.24 57.0202 64.18 53.8802 64.18ZM65.7152 64.18C63.9752 64.18 62.6952 63.56 61.8352 62.32C60.9952 61.06 60.5752 59.36 60.5752 57.22C60.5752 55.02 61.0152 53.22 61.8952 51.84C62.7952 50.46 64.1352 49.76 65.9152 49.76C67.2152 49.76 68.2552 50.12 69.0752 50.84C69.8952 51.54 70.3752 52.46 70.5152 53.56H68.2752C68.0952 52.5 67.2152 51.82 65.9152 51.82C63.8352 51.82 62.7952 53.62 62.7952 56.48H62.8752C63.5752 55.4 64.6552 54.86 66.0752 54.86C67.4952 54.86 68.5952 55.3 69.4152 56.2C70.2352 57.1 70.6552 58.16 70.6552 59.42C70.6552 60.8 70.2152 61.94 69.3152 62.84C68.4152 63.74 67.2152 64.18 65.7152 64.18ZM65.7352 62.14C67.3152 62.14 68.3552 61.04 68.3552 59.46C68.3552 57.88 67.3952 56.78 65.7352 56.78C64.1152 56.78 63.0952 57.9 63.0952 59.44C63.0952 61.04 64.1152 62.14 65.7352 62.14ZM75.7984 64H73.4184V63.8C74.4784 59.78 76.3984 55.92 79.2184 52.18V52.1H72.0384V50H81.5784V52.2C78.7584 56.06 76.8184 59.98 75.7984 64Z" fill="#0D0D12"/>
<line x1="20" y1="92.5" x2="246" y2="92.5" stroke="#F4F4F6"/>
<line x1="20" y1="129.75" x2="246" y2="129.75" stroke="#F4F4F6"/>
<line x1="20" y1="167" x2="246" y2="167" stroke="#F4F4F6"/>
<line x1="20" y1="204.25" x2="246" y2="204.25" stroke="#F4F4F6"/>
<line x1="20" y1="241.5" x2="246" y2="241.5" stroke="#F4F4F6"/>
<path d="M81 150.95C56.2048 151.893 48 139.231 20 139.231V167H246V120.025C213.5 120.025 197.978 103.392 166 106.353C123.793 110.262 123.559 149.331 81 150.95Z" fill="url(#paint0_linear_1_13363)" fill-opacity="0.15"/>
<path d="M20 139.231C48 139.231 56.2048 151.893 81 150.95C123.559 149.331 123.793 110.262 166 106.353C197.978 103.392 213.5 120.025 246 120.025" stroke="#33CFFF" stroke-width="1.5" stroke-linecap="round"/>
<path d="M86.1223 198.617C60.1881 195.924 47.6332 207.765 20 207.765V167H246V187.062C210.472 185.136 196.166 228.884 158.166 227.986C127.683 227.267 116.443 201.765 86.1223 198.617Z" fill="url(#paint1_linear_1_13363)"/>
<path d="M20 207.765C47.6332 207.765 60.1881 195.924 86.1223 198.617C116.443 201.765 127.683 227.267 158.166 227.986C196.166 228.884 210.472 185.136 246 187.062" stroke="#5B49E9" stroke-width="1.5" stroke-linecap="round"/>
<circle cx="121" cy="133" r="3.25" fill="white" stroke="#33CFFF" stroke-width="1.5"/>
<circle cx="195" cy="214" r="3.25" fill="white" stroke="#5B49E9" stroke-width="1.5"/>
<g filter="url(#filter0_d_1_13363)">
<rect x="82" y="104" width="77" height="22" rx="11" fill="#0D0D12" shape-rendering="crispEdges"/>
<path d="M90.1953 112.805V112.18H94.6875V112.805H92.7969V118H92.0938V112.805H90.1953ZM95.9591 115.586V118H95.295V112.18H95.9591V114.453C96.2442 114.004 96.6583 113.797 97.17 113.797C98.002 113.797 98.6856 114.34 98.6856 115.438V118H98.0216V115.484C98.0216 114.77 97.6622 114.406 97.045 114.406C96.4434 114.406 95.9591 114.754 95.9591 115.586ZM99.59 118V113.875H100.254V118H99.59ZM99.922 113.07C99.672 113.07 99.4689 112.867 99.4689 112.617C99.4689 112.367 99.672 112.164 99.922 112.164C100.172 112.164 100.375 112.367 100.375 112.617C100.375 112.867 100.172 113.07 99.922 113.07ZM102.596 118.094C101.713 118.094 101.018 117.664 100.963 116.766H101.619C101.666 117.258 102.002 117.523 102.58 117.523C103.151 117.523 103.506 117.258 103.506 116.891C103.506 116.578 103.252 116.398 102.885 116.312L102.221 116.156C101.455 115.977 101.057 115.586 101.057 114.984C101.057 114.281 101.67 113.781 102.553 113.781C103.412 113.781 104.057 114.289 104.08 115.109H103.432C103.424 114.672 103.084 114.352 102.553 114.352C102.045 114.352 101.721 114.633 101.721 114.984C101.721 115.297 101.963 115.48 102.362 115.574L103.026 115.73C103.815 115.918 104.174 116.281 104.174 116.875C104.174 117.641 103.494 118.094 102.596 118.094ZM106.795 118V113.875H107.444V114.543C107.705 114.059 108.163 113.797 108.666 113.797C109.233 113.797 109.678 114.125 109.85 114.539C110.077 114.117 110.538 113.797 111.151 113.797C111.905 113.797 112.522 114.281 112.522 115.297V118H111.858V115.297C111.858 114.656 111.436 114.406 110.963 114.406C110.358 114.406 109.991 114.816 109.991 115.375V118H109.327V115.227C109.327 114.734 108.955 114.406 108.455 114.406C107.936 114.406 107.459 114.773 107.459 115.484V118H106.795ZM115.129 118.094C113.985 118.094 113.215 117.203 113.215 115.945C113.215 114.68 113.985 113.781 115.129 113.781C116.274 113.781 117.043 114.68 117.043 115.945C117.043 117.203 116.274 118.094 115.129 118.094ZM115.129 117.492C115.911 117.492 116.372 116.879 116.372 115.945C116.372 115.004 115.907 114.383 115.129 114.383C114.352 114.383 113.887 115 113.887 115.945C113.887 116.883 114.348 117.492 115.129 117.492ZM118.401 115.586V118H117.737V113.875H118.385V114.48C118.67 114.012 119.088 113.797 119.612 113.797C120.444 113.797 121.128 114.34 121.128 115.438V118H120.463V115.484C120.463 114.77 120.104 114.406 119.487 114.406C118.885 114.406 118.401 114.754 118.401 115.586ZM123.833 113.875V114.445H122.997V117C122.997 117.32 123.11 117.43 123.45 117.43H123.833V118H123.387C122.68 118 122.333 117.691 122.333 117.07V114.445H121.598V113.875H122.333V112.75H122.997V113.875H123.833ZM125.108 115.586V118H124.444V112.18H125.108V114.453C125.393 114.004 125.807 113.797 126.319 113.797C127.151 113.797 127.835 114.34 127.835 115.438V118H127.171V115.484C127.171 114.77 126.811 114.406 126.194 114.406C125.592 114.406 125.108 114.754 125.108 115.586Z" fill="#666D80"/>
<path d="M137.551 117.5V117.441C137.855 116.311 138.43 115.182 139.273 114.055V114.031H137.144V113.299H140.103V114.061C139.267 115.207 138.702 116.354 138.409 117.5H137.551ZM142.065 117.553C141.536 117.553 141.143 117.367 140.885 116.996C140.619 116.621 140.486 116.111 140.486 115.467C140.486 115.152 140.521 114.858 140.589 114.585C140.657 114.313 140.756 114.077 140.885 113.876C141.018 113.671 141.189 113.511 141.4 113.396C141.605 113.284 141.85 113.229 142.133 113.229C142.543 113.229 142.872 113.338 143.12 113.557C143.372 113.779 143.519 114.06 143.56 114.397H142.78C142.751 114.265 142.681 114.157 142.569 114.075C142.456 113.991 142.311 113.949 142.133 113.949C141.844 113.949 141.625 114.055 141.477 114.266C141.324 114.486 141.248 114.792 141.248 115.183H141.274C141.499 114.899 141.809 114.758 142.203 114.758C142.629 114.758 142.967 114.892 143.217 115.159C143.465 115.431 143.589 115.749 143.589 116.114C143.589 116.526 143.453 116.868 143.182 117.14C142.906 117.415 142.534 117.553 142.065 117.553ZM142.065 116.841C142.278 116.841 142.454 116.774 142.593 116.642C142.729 116.511 142.798 116.339 142.798 116.126C142.798 115.921 142.733 115.751 142.604 115.616C142.47 115.487 142.29 115.423 142.065 115.423C141.849 115.423 141.673 115.487 141.538 115.616C141.405 115.749 141.339 115.919 141.339 116.126C141.339 116.337 141.405 116.509 141.538 116.642C141.671 116.774 141.847 116.841 142.065 116.841ZM145.637 117.553C145.229 117.553 144.898 117.441 144.646 117.219C144.396 116.998 144.251 116.72 144.21 116.384H144.989C145.019 116.519 145.089 116.627 145.2 116.709C145.313 116.793 145.459 116.835 145.637 116.835C145.918 116.835 146.134 116.727 146.284 116.51C146.437 116.295 146.513 115.991 146.513 115.599H146.489C146.271 115.882 145.962 116.023 145.563 116.023C145.14 116.023 144.804 115.888 144.556 115.616C144.304 115.347 144.178 115.03 144.178 114.667C144.178 114.257 144.316 113.913 144.594 113.636C144.865 113.364 145.235 113.229 145.704 113.229C146.231 113.229 146.627 113.414 146.891 113.785C147.15 114.16 147.28 114.671 147.28 115.317C147.28 115.647 147.248 115.941 147.184 116.199C147.117 116.463 147.018 116.698 146.885 116.905C146.756 117.104 146.584 117.263 146.369 117.38C146.156 117.495 145.912 117.553 145.637 117.553ZM145.704 115.358C145.923 115.358 146.099 115.292 146.231 115.159C146.358 115.032 146.422 114.864 146.422 114.655C146.422 114.44 146.358 114.267 146.231 114.134C146.099 114.007 145.923 113.943 145.704 113.943C145.491 113.943 145.316 114.009 145.18 114.14C145.041 114.272 144.972 114.444 144.972 114.655C144.972 114.866 145.037 115.034 145.168 115.159C145.295 115.292 145.474 115.358 145.704 115.358ZM147.852 117.5V116.847L149.237 115.429C149.458 115.208 149.616 115.028 149.712 114.89C149.796 114.759 149.838 114.617 149.838 114.465C149.838 114.307 149.788 114.181 149.688 114.087C149.587 113.991 149.444 113.943 149.261 113.943C149.067 113.943 148.914 113.997 148.801 114.104C148.684 114.222 148.625 114.388 148.625 114.603H147.84C147.84 114.175 147.968 113.839 148.224 113.595C148.479 113.351 148.825 113.229 149.261 113.229C149.679 113.229 150.018 113.341 150.277 113.565C150.533 113.792 150.661 114.084 150.661 114.441C150.661 114.654 150.604 114.859 150.491 115.057C150.378 115.254 150.192 115.484 149.935 115.748L148.933 116.75V116.773H150.726V117.5H147.852Z" fill="white"/>
</g>
<g filter="url(#filter1_d_1_13363)">
<rect x="153" y="185" width="77" height="22" rx="11" fill="#0D0D12" shape-rendering="crispEdges"/>
<path d="M161.578 199V193.18H162.281V198.375H165.086V199H161.578ZM166.951 199.062C166.131 199.062 165.514 198.637 165.514 197.812C165.514 196.867 166.326 196.695 167.154 196.586C167.94 196.48 168.193 196.512 168.193 196.195V196.156C168.193 195.707 167.858 195.383 167.279 195.383C166.705 195.383 166.307 195.699 166.275 196.109H165.6C165.635 195.355 166.303 194.797 167.279 194.797C168.24 194.797 168.85 195.34 168.85 196.156V199H168.193V198.414H168.178C168.025 198.711 167.701 199.062 166.951 199.062ZM167.045 198.469C167.858 198.469 168.193 197.977 168.193 197.438V196.922C168.092 197.016 167.596 197.09 167.123 197.156C166.647 197.223 166.193 197.387 166.193 197.852C166.193 198.238 166.518 198.469 167.045 198.469ZM171.192 199.094C170.309 199.094 169.613 198.664 169.559 197.766H170.215C170.262 198.258 170.598 198.523 171.176 198.523C171.746 198.523 172.102 198.258 172.102 197.891C172.102 197.578 171.848 197.398 171.481 197.312L170.817 197.156C170.051 196.977 169.653 196.586 169.653 195.984C169.653 195.281 170.266 194.781 171.149 194.781C172.008 194.781 172.653 195.289 172.676 196.109H172.028C172.02 195.672 171.68 195.352 171.149 195.352C170.641 195.352 170.317 195.633 170.317 195.984C170.317 196.297 170.559 196.48 170.957 196.574L171.621 196.73C172.41 196.918 172.77 197.281 172.77 197.875C172.77 198.641 172.09 199.094 171.192 199.094ZM175.35 194.875V195.445H174.514V198C174.514 198.32 174.627 198.43 174.967 198.43H175.35V199H174.905C174.198 199 173.85 198.691 173.85 198.07V195.445H173.115V194.875H173.85V193.75H174.514V194.875H175.35ZM177.881 199V194.875H178.53V195.543C178.791 195.059 179.248 194.797 179.752 194.797C180.319 194.797 180.764 195.125 180.936 195.539C181.163 195.117 181.623 194.797 182.237 194.797C182.991 194.797 183.608 195.281 183.608 196.297V199H182.944V196.297C182.944 195.656 182.522 195.406 182.049 195.406C181.444 195.406 181.077 195.816 181.077 196.375V199H180.413V196.227C180.413 195.734 180.041 195.406 179.541 195.406C179.022 195.406 178.545 195.773 178.545 196.484V199H177.881ZM186.215 199.094C185.071 199.094 184.301 198.203 184.301 196.945C184.301 195.68 185.071 194.781 186.215 194.781C187.36 194.781 188.129 195.68 188.129 196.945C188.129 198.203 187.36 199.094 186.215 199.094ZM186.215 198.492C186.997 198.492 187.458 197.879 187.458 196.945C187.458 196.004 186.993 195.383 186.215 195.383C185.438 195.383 184.973 196 184.973 196.945C184.973 197.883 185.434 198.492 186.215 198.492ZM189.487 196.586V199H188.823V194.875H189.471V195.48C189.756 195.012 190.174 194.797 190.698 194.797C191.53 194.797 192.213 195.34 192.213 196.438V199H191.549V196.484C191.549 195.77 191.19 195.406 190.573 195.406C189.971 195.406 189.487 195.754 189.487 196.586ZM194.919 194.875V195.445H194.083V198C194.083 198.32 194.196 198.43 194.536 198.43H194.919V199H194.473C193.766 199 193.419 198.691 193.419 198.07V195.445H192.684V194.875H193.419V193.75H194.083V194.875H194.919ZM196.194 196.586V199H195.53V193.18H196.194V195.453C196.479 195.004 196.893 194.797 197.405 194.797C198.237 194.797 198.921 195.34 198.921 196.438V199H198.257V196.484C198.257 195.77 197.897 195.406 197.28 195.406C196.678 195.406 196.194 195.754 196.194 196.586Z" fill="#666D80"/>
<path d="M208.551 198.5V198.441C208.855 197.311 209.43 196.182 210.273 195.055V195.031H208.144V194.299H211.103V195.061C210.267 196.207 209.702 197.354 209.409 198.5H208.551ZM213.065 198.553C212.536 198.553 212.143 198.367 211.885 197.996C211.619 197.621 211.486 197.111 211.486 196.467C211.486 196.152 211.521 195.858 211.589 195.585C211.657 195.313 211.756 195.077 211.885 194.876C212.018 194.671 212.189 194.511 212.4 194.396C212.605 194.284 212.85 194.229 213.133 194.229C213.543 194.229 213.872 194.338 214.12 194.557C214.372 194.779 214.519 195.06 214.56 195.397H213.78C213.751 195.265 213.681 195.157 213.569 195.075C213.456 194.991 213.311 194.949 213.133 194.949C212.844 194.949 212.625 195.055 212.477 195.266C212.324 195.486 212.248 195.792 212.248 196.183H212.274C212.499 195.899 212.809 195.758 213.203 195.758C213.629 195.758 213.967 195.892 214.217 196.159C214.465 196.431 214.589 196.749 214.589 197.114C214.589 197.526 214.453 197.868 214.182 198.14C213.906 198.415 213.534 198.553 213.065 198.553ZM213.065 197.841C213.278 197.841 213.454 197.774 213.593 197.642C213.729 197.511 213.798 197.339 213.798 197.126C213.798 196.921 213.733 196.751 213.604 196.616C213.47 196.487 213.29 196.423 213.065 196.423C212.849 196.423 212.673 196.487 212.538 196.616C212.405 196.749 212.339 196.919 212.339 197.126C212.339 197.337 212.405 197.509 212.538 197.642C212.671 197.774 212.847 197.841 213.065 197.841ZM216.637 198.553C216.229 198.553 215.898 198.441 215.646 198.219C215.396 197.998 215.251 197.72 215.21 197.384H215.989C216.019 197.519 216.089 197.627 216.2 197.709C216.313 197.793 216.459 197.835 216.637 197.835C216.918 197.835 217.134 197.727 217.284 197.51C217.437 197.295 217.513 196.991 217.513 196.599H217.489C217.271 196.882 216.962 197.023 216.563 197.023C216.14 197.023 215.804 196.888 215.556 196.616C215.304 196.347 215.178 196.03 215.178 195.667C215.178 195.257 215.316 194.913 215.594 194.636C215.865 194.364 216.235 194.229 216.704 194.229C217.231 194.229 217.627 194.414 217.891 194.785C218.15 195.16 218.28 195.671 218.28 196.317C218.28 196.647 218.248 196.941 218.184 197.199C218.117 197.463 218.018 197.698 217.885 197.905C217.756 198.104 217.584 198.263 217.369 198.38C217.156 198.495 216.912 198.553 216.637 198.553ZM216.704 196.358C216.923 196.358 217.099 196.292 217.231 196.159C217.358 196.032 217.422 195.864 217.422 195.655C217.422 195.44 217.358 195.267 217.231 195.134C217.099 195.007 216.923 194.943 216.704 194.943C216.491 194.943 216.316 195.009 216.18 195.14C216.041 195.272 215.972 195.444 215.972 195.655C215.972 195.866 216.037 196.034 216.168 196.159C216.295 196.292 216.474 196.358 216.704 196.358ZM218.852 198.5V197.847L220.237 196.429C220.458 196.208 220.616 196.028 220.712 195.89C220.796 195.759 220.838 195.617 220.838 195.465C220.838 195.307 220.788 195.181 220.688 195.087C220.587 194.991 220.444 194.943 220.261 194.943C220.067 194.943 219.914 194.997 219.801 195.104C219.684 195.222 219.625 195.388 219.625 195.603H218.84C218.84 195.175 218.968 194.839 219.224 194.595C219.479 194.351 219.825 194.229 220.261 194.229C220.679 194.229 221.018 194.341 221.277 194.565C221.533 194.792 221.661 195.084 221.661 195.441C221.661 195.654 221.604 195.859 221.491 196.057C221.378 196.254 221.192 196.484 220.935 196.748L219.933 197.75V197.773H221.726V198.5H218.852Z" fill="white"/>
</g>
<defs>
<filter id="filter0_d_1_13363" x="78" y="100" width="93" height="38" filterUnits="userSpaceOnUse" color-interpolation-filters="sRGB">
<feFlood flood-opacity="0" result="BackgroundImageFix"/>
<feColorMatrix in="SourceAlpha" type="matrix" values="0 0 0 0 0 0 0 0 0 0 0 0 0 0 0 0 0 0 127 0" result="hardAlpha"/>
<feOffset dx="4" dy="4"/>
<feGaussianBlur stdDeviation="4"/>
<feComposite in2="hardAlpha" operator="out"/>
<feColorMatrix type="matrix" values="0 0 0 0 0.0235294 0 0 0 0 0.101961 0 0 0 0 0.164706 0 0 0 0.12 0"/>
<feBlend mode="normal" in2="BackgroundImageFix" result="effect1_dropShadow_1_13363"/>
<feBlend mode="normal" in="SourceGraphic" in2="effect1_dropShadow_1_13363" result="shape"/>
</filter>
<filter id="filter1_d_1_13363" x="149" y="181" width="93" height="38" filterUnits="userSpaceOnUse" color-interpolation-filters="sRGB">
<feFlood flood-opacity="0" result="BackgroundImageFix"/>
<feColorMatrix in="SourceAlpha" type="matrix" values="0 0 0 0 0 0 0 0 0 0 0 0 0 0 0 0 0 0 127 0" result="hardAlpha"/>
<feOffset dx="4" dy="4"/>
<feGaussianBlur stdDeviation="4"/>
<feComposite in2="hardAlpha" operator="out"/>
<feColorMatrix type="matrix" values="0 0 0 0 0.0235294 0 0 0 0 0.101961 0 0 0 0 0.164706 0 0 0 0.12 0"/>
<feBlend mode="normal" in2="BackgroundImageFix" result="effect1_dropShadow_1_13363"/>
<feBlend mode="normal" in="SourceGraphic" in2="effect1_dropShadow_1_13363" result="shape"/>
</filter>
<linearGradient id="paint0_linear_1_13363" x1="133" y1="101.5" x2="133" y2="171" gradientUnits="userSpaceOnUse">
<stop stop-color="#33CFFF"/>
<stop offset="1" stop-color="#33CFFF" stop-opacity="0"/>
</linearGradient>
<linearGradient id="paint1_linear_1_13363" x1="133" y1="162.5" x2="133" y2="246" gradientUnits="userSpaceOnUse">
<stop stop-color="#907BFF" stop-opacity="0"/>
<stop offset="1" stop-color="#907BFF" stop-opacity="0.2"/>
</linearGradient>
</defs>
</svg>
