<svg width="16" height="16" viewBox="0 0 16 16" fill="none" xmlns="http://www.w3.org/2000/svg">
<path d="M2.59998 11.6V7.99998C2.59998 6.56781 3.1689 5.1943 4.1816 4.1816C5.1943 3.1689 6.56781 2.59998 7.99998 2.59998C9.43214 2.59998 10.8057 3.1689 11.8184 4.1816C12.831 5.1943 13.4 6.56781 13.4 7.99998V11.6" stroke="white" stroke-width="1.5" stroke-linecap="round" stroke-linejoin="round"/>
<path d="M13.4 12.2C13.4 12.5182 13.2735 12.8234 13.0485 13.0485C12.8235 13.2735 12.5182 13.4 12.2 13.4H11.6C11.2817 13.4 10.9765 13.2735 10.7514 13.0485C10.5264 12.8234 10.4 12.5182 10.4 12.2V10.4C10.4 10.0817 10.5264 9.77647 10.7514 9.55142C10.9765 9.32638 11.2817 9.19995 11.6 9.19995H13.4V12.2ZM2.59998 12.2C2.59998 12.5182 2.7264 12.8234 2.95145 13.0485C3.17649 13.2735 3.48172 13.4 3.79998 13.4H4.39998C4.71824 13.4 5.02346 13.2735 5.2485 13.0485C5.47355 12.8234 5.59998 12.5182 5.59998 12.2V10.4C5.59998 10.0817 5.47355 9.77647 5.2485 9.55142C5.02346 9.32638 4.71824 9.19995 4.39998 9.19995H2.59998V12.2Z" stroke="white" stroke-width="1.5" stroke-linecap="round" stroke-linejoin="round"/>
</svg>
