<svg width="349" height="329" viewBox="0 0 349 329" fill="none" xmlns="http://www.w3.org/2000/svg">
<rect x="160.856" y="32.2896" width="156.442" height="161.147" rx="7.05755" fill="white"/>
<path d="M174.457 52.4735C173.469 52.4735 172.843 51.9163 172.843 51.0261H173.371C173.371 51.6378 173.77 52.0025 174.457 52.0025C175.08 52.0025 175.49 51.7096 175.49 51.2501C175.49 50.894 175.261 50.6872 174.643 50.535L174.164 50.4173C173.291 50.2019 172.929 49.8631 172.929 49.2801C172.929 48.5421 173.512 48.0567 174.405 48.0567C175.295 48.0567 175.864 48.5679 175.887 49.3892H175.376C175.344 48.8551 174.968 48.5306 174.388 48.5306C173.833 48.5306 173.44 48.8292 173.44 49.2543C173.44 49.5874 173.678 49.7798 174.299 49.9349L174.784 50.0555C175.617 50.2622 176.007 50.6298 176.007 51.2271C176.007 51.9709 175.387 52.4735 174.457 52.4735ZM176.593 53.6049V49.372H177.07V49.82H177.076C177.271 49.4811 177.641 49.3146 178.035 49.3146C178.824 49.3146 179.35 49.9521 179.35 50.8883C179.35 51.8216 178.824 52.462 178.035 52.462C177.641 52.462 177.305 52.2954 177.087 51.9451H177.081V53.6049H176.593ZM177.96 52.0226C178.486 52.0226 178.856 51.632 178.856 50.8883C178.856 50.1445 178.486 49.7511 177.96 49.7511C177.397 49.7511 177.041 50.2019 177.041 50.8883C177.041 51.5746 177.397 52.0226 177.96 52.0226ZM181.171 52.4735C180.28 52.4735 179.764 51.8072 179.764 50.894C179.764 49.9722 180.332 49.3031 181.136 49.3031C181.98 49.3031 182.515 49.9521 182.515 50.894V51.029H180.246C180.269 51.6234 180.596 52.0312 181.171 52.0312C181.601 52.0312 181.883 51.813 181.975 51.4971H182.463C182.348 52.0772 181.831 52.4735 181.171 52.4735ZM180.252 50.6097H182.026C181.975 50.0756 181.636 49.7396 181.136 49.7396C180.639 49.7396 180.303 50.0756 180.252 50.6097ZM183.56 50.6298V52.4045H183.072V49.372H183.548V49.8171C183.758 49.4725 184.065 49.3146 184.45 49.3146C185.062 49.3146 185.564 49.7137 185.564 50.5207V52.4045H185.076V50.5551C185.076 50.0296 184.812 49.7626 184.358 49.7626C183.916 49.7626 183.56 50.0181 183.56 50.6298ZM187.448 52.462C186.659 52.462 186.133 51.8216 186.133 50.8883C186.133 49.9521 186.659 49.3146 187.448 49.3146C187.842 49.3146 188.201 49.4811 188.396 49.82H188.402V48.1257H188.89V52.4045H188.413V51.9451H188.407C188.189 52.2954 187.842 52.462 187.448 52.462ZM187.523 52.0226C188.086 52.0226 188.442 51.5746 188.442 50.8883C188.442 50.2019 188.086 49.7511 187.523 49.7511C186.997 49.7511 186.627 50.1445 186.627 50.8883C186.627 51.632 186.997 52.0226 187.523 52.0226ZM189.614 52.4045V49.372H190.102V52.4045H189.614ZM189.858 48.7804C189.674 48.7804 189.525 48.6311 189.525 48.4473C189.525 48.2635 189.674 48.1142 189.858 48.1142C190.041 48.1142 190.191 48.2635 190.191 48.4473C190.191 48.6311 190.041 48.7804 189.858 48.7804ZM191.314 50.6298V52.4045H190.825V49.372H191.302V49.8171C191.512 49.4725 191.819 49.3146 192.204 49.3146C192.816 49.3146 193.318 49.7137 193.318 50.5207V52.4045H192.83V50.5551C192.83 50.0296 192.566 49.7626 192.112 49.7626C191.67 49.7626 191.314 50.0181 191.314 50.6298ZM195.311 53.6451C194.628 53.6451 194.111 53.3235 194.036 52.7262H194.536C194.622 53.0536 194.92 53.2144 195.311 53.2144C195.839 53.2144 196.161 52.9215 196.161 52.4045V51.9451H196.158C195.934 52.2983 195.601 52.462 195.202 52.462C194.412 52.462 193.887 51.8216 193.887 50.8883C193.887 49.9521 194.412 49.3146 195.202 49.3146C195.595 49.3146 195.954 49.4725 196.164 49.8458H196.167V49.372H196.644V52.4045C196.644 53.3005 196.017 53.6451 195.311 53.6451ZM195.277 52.0226C195.839 52.0226 196.196 51.5746 196.196 50.8883C196.196 50.2019 195.839 49.7511 195.277 49.7511C194.751 49.7511 194.381 50.1445 194.381 50.8883C194.381 51.632 194.751 52.0226 195.277 52.0226ZM198.838 53.6049V49.372H199.314V49.82H199.32C199.515 49.4811 199.886 49.3146 200.279 49.3146C201.069 49.3146 201.594 49.9521 201.594 50.8883C201.594 51.8216 201.069 52.462 200.279 52.462C199.886 52.462 199.55 52.2954 199.331 51.9451H199.326V53.6049H198.838ZM200.204 52.0226C200.73 52.0226 201.1 51.632 201.1 50.8883C201.1 50.1445 200.73 49.7511 200.204 49.7511C199.642 49.7511 199.286 50.2019 199.286 50.8883C199.286 51.5746 199.642 52.0226 200.204 52.0226ZM203.415 52.4735C202.525 52.4735 202.008 51.8072 202.008 50.894C202.008 49.9722 202.577 49.3031 203.381 49.3031C204.225 49.3031 204.759 49.9521 204.759 50.894V51.029H202.49C202.513 51.6234 202.841 52.0312 203.415 52.0312C203.846 52.0312 204.127 51.813 204.219 51.4971H204.707C204.592 52.0772 204.076 52.4735 203.415 52.4735ZM202.496 50.6097H204.271C204.219 50.0756 203.88 49.7396 203.381 49.7396C202.884 49.7396 202.548 50.0756 202.496 50.6097ZM205.316 52.4045V49.372H205.781V49.8487H205.793C205.905 49.5357 206.143 49.3261 206.522 49.3261C206.611 49.3261 206.689 49.3375 206.729 49.3433V49.8315C206.689 49.82 206.571 49.797 206.43 49.797C206.094 49.797 205.804 50.0239 205.804 50.5379V52.4045H205.316ZM208.682 52.4045V49.372H209.158V49.8631C209.351 49.507 209.687 49.3146 210.057 49.3146C210.474 49.3146 210.801 49.5558 210.927 49.8602C211.094 49.55 211.433 49.3146 211.884 49.3146C212.438 49.3146 212.892 49.6707 212.892 50.4173V52.4045H212.404V50.4173C212.404 49.9463 212.093 49.7626 211.746 49.7626C211.301 49.7626 211.031 50.0641 211.031 50.4747V52.4045H210.543V50.3656C210.543 50.0038 210.27 49.7626 209.902 49.7626C209.52 49.7626 209.17 50.0325 209.17 50.5551V52.4045H208.682ZM214.867 52.4735C214.026 52.4735 213.46 51.8187 213.46 50.894C213.46 49.9636 214.026 49.3031 214.867 49.3031C215.709 49.3031 216.275 49.9636 216.275 50.894C216.275 51.8187 215.709 52.4735 214.867 52.4735ZM214.867 52.0312C215.442 52.0312 215.781 51.5804 215.781 50.894C215.781 50.2019 215.439 49.7453 214.867 49.7453C214.296 49.7453 213.954 50.1991 213.954 50.894C213.954 51.5832 214.293 52.0312 214.867 52.0312ZM217.331 50.6298V52.4045H216.843V49.372H217.32V49.8171C217.53 49.4725 217.837 49.3146 218.222 49.3146C218.833 49.3146 219.336 49.7137 219.336 50.5207V52.4045H218.848V50.5551C218.848 50.0296 218.584 49.7626 218.13 49.7626C217.688 49.7626 217.331 50.0181 217.331 50.6298ZM221.383 49.372V49.7913H220.769V51.6694C220.769 51.9049 220.852 51.9853 221.102 51.9853H221.383V52.4045H221.056C220.536 52.4045 220.281 52.1777 220.281 51.7211V49.7913H219.741V49.372H220.281V48.5449H220.769V49.372H221.383ZM222.38 50.6298V52.4045H221.892V48.1257H222.38V49.797C222.59 49.4668 222.894 49.3146 223.27 49.3146C223.882 49.3146 224.384 49.7137 224.384 50.5207V52.4045H223.896V50.5551C223.896 50.0296 223.632 49.7626 223.178 49.7626C222.736 49.7626 222.38 50.0181 222.38 50.6298Z" fill="#818898"/>
<path d="M179.559 68.1908C179.559 69.567 178.606 70.461 176.83 70.6021V71.5784H175.877V70.6139C174.101 70.461 173.136 69.4494 173.054 67.8967H174.454C174.512 68.7083 175.03 69.2259 175.877 69.3553V66.8616L175.665 66.8146C174.148 66.4852 173.324 65.803 173.324 64.4856C173.324 63.2152 174.289 62.333 175.877 62.2036V61.2273H176.83V62.2036C177.606 62.286 178.229 62.5683 178.7 63.027C179.17 63.4857 179.406 64.0504 179.417 64.7326H178.018C177.982 64.0268 177.582 63.6034 176.83 63.474V65.6971L177.065 65.7442C178.723 66.0853 179.559 66.9087 179.559 68.1908ZM174.748 64.4856C174.748 64.9796 175.124 65.3207 175.877 65.4971V63.4505C175.124 63.5446 174.748 63.8857 174.748 64.4856ZM176.83 67.0616V69.367C177.7 69.2612 178.135 68.8848 178.135 68.2143C178.135 67.5909 177.724 67.2615 176.865 67.0733L176.83 67.0616ZM185.273 70.5198H183.921V68.8848H180.227V67.5438L183.509 62.286H185.273V67.685H186.332V68.8848H185.273V70.5198ZM181.545 67.6379V67.685H183.921V63.8151H183.874L181.545 67.6379ZM187.895 72.143H186.836V72.0254L187.201 69.2612H188.718V69.3788L187.895 72.143ZM192.545 70.6256C191.698 70.6256 191.004 70.3904 190.474 69.9199C189.945 69.4376 189.686 68.8495 189.686 68.1437H191.039C191.074 68.8613 191.604 69.4259 192.545 69.4259C193.58 69.4259 194.074 68.7554 194.074 67.8026C194.074 66.8969 193.556 66.2264 192.556 66.2264C191.98 66.2264 191.509 66.4617 191.157 66.9439H189.816L190.133 62.286H194.944V63.4975H191.262L191.11 65.6618H191.157C191.545 65.2854 192.086 65.0972 192.756 65.0972C193.568 65.0972 194.227 65.356 194.709 65.8618C195.191 66.3676 195.438 67.0028 195.438 67.7791C195.438 69.4847 194.391 70.6256 192.545 70.6256ZM199.505 70.6256C198.482 70.6256 197.729 70.261 197.223 69.5317C196.729 68.7907 196.482 67.7909 196.482 66.5323C196.482 65.2384 196.741 64.1797 197.258 63.3681C197.788 62.5565 198.576 62.1448 199.623 62.1448C200.387 62.1448 200.999 62.3565 201.481 62.78C201.963 63.1917 202.246 63.7328 202.328 64.3797H201.011C200.905 63.7563 200.387 63.3564 199.623 63.3564C198.399 63.3564 197.788 64.415 197.788 66.097H197.835C198.246 65.4619 198.882 65.1443 199.717 65.1443C200.552 65.1443 201.199 65.403 201.681 65.9324C202.163 66.4617 202.41 67.0851 202.41 67.8261C202.41 68.6378 202.152 69.3082 201.622 69.8375C201.093 70.3669 200.387 70.6256 199.505 70.6256ZM199.517 69.4259C200.446 69.4259 201.058 68.7789 201.058 67.8497C201.058 66.9204 200.493 66.2735 199.517 66.2735C198.564 66.2735 197.964 66.9322 197.964 67.8379C197.964 68.7789 198.564 69.4259 199.517 69.4259ZM205.435 70.5198H204.036V70.4021C204.659 68.0379 205.788 65.7677 207.447 63.5681V63.521H203.224V62.286H208.835V63.5798C207.176 65.85 206.035 68.1555 205.435 70.5198Z" fill="#0D0D12"/>
<line x1="172.619" y1="86.6915" x2="305.536" y2="86.6915" stroke="#F4F4F6" stroke-width="0.58813"/>
<line x1="172.619" y1="108.599" x2="305.536" y2="108.599" stroke="#F4F4F6" stroke-width="0.58813"/>
<line x1="172.619" y1="130.507" x2="305.536" y2="130.507" stroke="#F4F4F6" stroke-width="0.58813"/>
<line x1="172.619" y1="152.415" x2="305.536" y2="152.415" stroke="#F4F4F6" stroke-width="0.58813"/>
<line x1="172.619" y1="174.323" x2="305.536" y2="174.323" stroke="#F4F4F6" stroke-width="0.58813"/>
<path d="M208.495 121.068C193.912 121.622 189.086 114.175 172.619 114.175V130.507H305.536V102.88C286.422 102.88 277.293 93.0973 258.486 94.8391C233.662 97.1382 233.525 120.115 208.495 121.068Z" fill="url(#paint0_linear_1_19195)" fill-opacity="0.15"/>
<path d="M172.619 114.175C189.086 114.175 193.912 121.622 208.495 121.068C233.525 120.115 233.662 97.1382 258.486 94.8391C277.293 93.0973 286.422 102.88 305.536 102.88" stroke="#33CFFF" stroke-width="0.882194" stroke-linecap="round"/>
<path d="M211.507 149.102C196.254 147.518 188.871 154.482 172.619 154.482V130.507H305.536V142.306C284.641 141.173 276.227 166.903 253.878 166.375C235.95 165.952 229.34 150.954 211.507 149.102Z" fill="url(#paint1_linear_1_19195)"/>
<path d="M172.619 154.482C188.871 154.482 196.254 147.518 211.507 149.102C229.34 150.954 235.95 165.952 253.878 166.375C276.227 166.903 284.641 141.173 305.536 142.306" stroke="#5B49E9" stroke-width="0.882194" stroke-linecap="round"/>
<circle cx="232.02" cy="110.511" r="1.91142" fill="white" stroke="#33CFFF" stroke-width="0.882194"/>
<circle cx="275.541" cy="158.149" r="1.91142" fill="white" stroke="#5B49E9" stroke-width="0.882194"/>
<g filter="url(#filter0_d_1_19195)">
<rect x="209.083" y="93.4551" width="46.1151" height="13.0576" rx="6.52878" fill="#0D0D12" shape-rendering="crispEdges"/>
<path d="M213.903 98.9284V98.5608H216.545V98.9284H215.433V101.984H215.019V98.9284H213.903ZM217.292 100.564V101.984H216.902V98.5608H217.292V99.8979C217.46 99.6337 217.704 99.5119 218.005 99.5119C218.494 99.5119 218.896 99.8312 218.896 100.477V101.984H218.505V100.504C218.505 100.084 218.294 99.8703 217.931 99.8703C217.577 99.8703 217.292 100.075 217.292 100.564ZM219.428 101.984V99.5579H219.818V101.984H219.428ZM219.623 99.0846C219.476 99.0846 219.357 98.9651 219.357 98.8181C219.357 98.6711 219.476 98.5516 219.623 98.5516C219.77 98.5516 219.89 98.6711 219.89 98.8181C219.89 98.9651 219.77 99.0846 219.623 99.0846ZM221.196 102.039C220.677 102.039 220.268 101.786 220.235 101.258H220.621C220.649 101.547 220.847 101.704 221.187 101.704C221.522 101.704 221.731 101.547 221.731 101.331C221.731 101.148 221.582 101.042 221.366 100.991L220.975 100.9C220.525 100.794 220.291 100.564 220.291 100.21C220.291 99.7968 220.651 99.5027 221.17 99.5027C221.676 99.5027 222.055 99.8014 222.069 100.284H221.687C221.683 100.027 221.483 99.8381 221.17 99.8381C220.872 99.8381 220.681 100.004 220.681 100.21C220.681 100.394 220.824 100.502 221.058 100.557L221.448 100.649C221.913 100.759 222.124 100.973 222.124 101.322C222.124 101.773 221.724 102.039 221.196 102.039ZM223.666 101.984V99.5579H224.047V99.9507C224.201 99.6658 224.47 99.5119 224.766 99.5119C225.099 99.5119 225.361 99.7049 225.462 99.9484C225.595 99.7003 225.866 99.5119 226.227 99.5119C226.671 99.5119 227.033 99.7968 227.033 100.394V101.984H226.643V100.394C226.643 100.017 226.395 99.8703 226.117 99.8703C225.761 99.8703 225.545 100.112 225.545 100.44V101.984H225.154V100.353C225.154 100.063 224.936 99.8703 224.642 99.8703C224.336 99.8703 224.056 100.086 224.056 100.504V101.984H223.666ZM228.567 102.039C227.894 102.039 227.441 101.515 227.441 100.775C227.441 100.031 227.894 99.5027 228.567 99.5027C229.24 99.5027 229.693 100.031 229.693 100.775C229.693 101.515 229.24 102.039 228.567 102.039ZM228.567 101.685C229.027 101.685 229.298 101.325 229.298 100.775C229.298 100.222 229.024 99.8565 228.567 99.8565C228.11 99.8565 227.836 100.219 227.836 100.775C227.836 101.327 228.108 101.685 228.567 101.685ZM230.491 100.564V101.984H230.101V99.5579H230.482V99.9139C230.65 99.6383 230.895 99.5119 231.203 99.5119C231.693 99.5119 232.095 99.8312 232.095 100.477V101.984H231.704V100.504C231.704 100.084 231.493 99.8703 231.13 99.8703C230.776 99.8703 230.491 100.075 230.491 100.564ZM233.686 99.5579V99.8933H233.194V101.396C233.194 101.584 233.261 101.648 233.461 101.648H233.686V101.984H233.424C233.008 101.984 232.804 101.802 232.804 101.437V99.8933H232.372V99.5579H232.804V98.8962H233.194V99.5579H233.686ZM234.436 100.564V101.984H234.045V98.5608H234.436V99.8979C234.604 99.6337 234.847 99.5119 235.148 99.5119C235.637 99.5119 236.039 99.8312 236.039 100.477V101.984H235.649V100.504C235.649 100.084 235.438 99.8703 235.075 99.8703C234.721 99.8703 234.436 100.075 234.436 100.564Z" fill="#666D80"/>
<path d="M241.817 100.984V100.949C241.996 100.284 242.334 99.6204 242.83 98.9576V98.9438H241.577V98.5131H243.317V98.961C242.826 99.6353 242.494 100.31 242.321 100.984H241.817ZM244.472 101.015C244.161 101.015 243.929 100.906 243.777 100.688C243.621 100.467 243.543 100.167 243.543 99.7881C243.543 99.6032 243.563 99.4303 243.603 99.2695C243.644 99.1098 243.702 98.9708 243.777 98.8525C243.856 98.7319 243.957 98.6377 244.081 98.5699C244.201 98.5044 244.345 98.4717 244.511 98.4717C244.753 98.4717 244.946 98.536 245.092 98.6647C245.24 98.7956 245.326 98.9605 245.351 99.1592H244.892C244.875 99.0811 244.834 99.0179 244.768 98.9697C244.702 98.9203 244.616 98.8956 244.511 98.8956C244.341 98.8956 244.213 98.9576 244.125 99.0817C244.036 99.2115 243.991 99.3912 243.991 99.621H244.007C244.139 99.4544 244.321 99.3711 244.553 99.3711C244.803 99.3711 245.002 99.4498 245.149 99.6072C245.295 99.7668 245.368 99.9541 245.368 100.169C245.368 100.411 245.288 100.612 245.128 100.772C244.966 100.934 244.747 101.015 244.472 101.015ZM244.472 100.596C244.597 100.596 244.7 100.557 244.782 100.479C244.862 100.402 244.903 100.301 244.903 100.176C244.903 100.055 244.865 99.9552 244.789 99.876C244.71 99.8002 244.604 99.7623 244.472 99.7623C244.344 99.7623 244.241 99.8002 244.162 99.876C244.084 99.9541 244.044 100.054 244.044 100.176C244.044 100.3 244.084 100.401 244.162 100.479C244.24 100.557 244.343 100.596 244.472 100.596ZM246.572 101.015C246.332 101.015 246.138 100.949 245.99 100.818C245.843 100.689 245.757 100.525 245.733 100.327H246.191C246.209 100.407 246.25 100.47 246.315 100.519C246.382 100.568 246.468 100.593 246.572 100.593C246.738 100.593 246.865 100.529 246.953 100.402C247.043 100.275 247.087 100.097 247.087 99.8656H247.074C246.945 100.032 246.763 100.115 246.529 100.115C246.28 100.115 246.082 100.036 245.936 99.876C245.788 99.7175 245.714 99.5314 245.714 99.3177C245.714 99.0765 245.796 98.8743 245.959 98.7112C246.118 98.5515 246.336 98.4717 246.612 98.4717C246.922 98.4717 247.155 98.5808 247.31 98.7991C247.462 99.0196 247.539 99.32 247.539 99.7002C247.539 99.8944 247.52 100.067 247.482 100.219C247.443 100.374 247.384 100.512 247.306 100.634C247.23 100.751 247.129 100.844 247.003 100.913C246.878 100.981 246.734 101.015 246.572 101.015ZM246.612 99.7243C246.74 99.7243 246.844 99.6853 246.922 99.6072C246.997 99.5325 247.034 99.4337 247.034 99.3108C247.034 99.1845 246.997 99.0822 246.922 99.0041C246.844 98.9295 246.74 98.8921 246.612 98.8921C246.487 98.8921 246.384 98.9306 246.303 99.0076C246.222 99.0857 246.181 99.1868 246.181 99.3108C246.181 99.4349 246.22 99.5337 246.296 99.6072C246.371 99.6853 246.476 99.7243 246.612 99.7243ZM247.875 100.984V100.6L248.69 99.7657C248.82 99.6359 248.913 99.5302 248.969 99.4487C249.018 99.3717 249.043 99.2884 249.043 99.1988C249.043 99.1058 249.014 99.0317 248.955 98.9766C248.895 98.9203 248.812 98.8921 248.704 98.8921C248.59 98.8921 248.5 98.9237 248.433 98.9869C248.364 99.0558 248.33 99.1534 248.33 99.2798H247.868C247.868 99.0282 247.943 98.8307 248.094 98.6871C248.244 98.5435 248.447 98.4717 248.704 98.4717C248.949 98.4717 249.149 98.5378 249.301 98.6698C249.452 98.8031 249.527 98.9748 249.527 99.185C249.527 99.3102 249.494 99.4309 249.427 99.5469C249.361 99.6629 249.252 99.7984 249.1 99.9535L248.511 100.543V100.557H249.565V100.984H247.875Z" fill="white"/>
</g>
<g filter="url(#filter1_d_1_19195)">
<rect x="250.84" y="141.094" width="46.1151" height="13.0576" rx="6.52878" fill="#0D0D12" shape-rendering="crispEdges"/>
<path d="M255.885 149.622V146.199H256.298V149.255H257.948V149.622H255.885ZM259.045 149.659C258.563 149.659 258.2 149.409 258.2 148.924C258.2 148.368 258.677 148.267 259.164 148.203C259.626 148.141 259.776 148.159 259.776 147.973V147.95C259.776 147.686 259.578 147.495 259.238 147.495C258.9 147.495 258.666 147.681 258.648 147.922H258.25C258.271 147.479 258.664 147.15 259.238 147.15C259.803 147.15 260.162 147.47 260.162 147.95V149.622H259.776V149.278H259.766C259.677 149.452 259.486 149.659 259.045 149.659ZM259.1 149.31C259.578 149.31 259.776 149.02 259.776 148.703V148.4C259.716 148.455 259.424 148.499 259.146 148.538C258.866 148.577 258.599 148.673 258.599 148.947C258.599 149.174 258.79 149.31 259.1 149.31ZM261.539 149.677C261.02 149.677 260.611 149.425 260.579 148.896H260.965C260.992 149.186 261.19 149.342 261.53 149.342C261.865 149.342 262.074 149.186 262.074 148.97C262.074 148.786 261.925 148.68 261.709 148.63L261.318 148.538C260.868 148.432 260.634 148.203 260.634 147.849C260.634 147.435 260.994 147.141 261.514 147.141C262.019 147.141 262.398 147.44 262.412 147.922H262.031C262.026 147.665 261.826 147.477 261.514 147.477C261.215 147.477 261.024 147.642 261.024 147.849C261.024 148.033 261.167 148.141 261.401 148.196L261.792 148.288C262.256 148.398 262.467 148.611 262.467 148.961C262.467 149.411 262.067 149.677 261.539 149.677ZM263.984 147.196V147.532H263.493V149.034C263.493 149.223 263.559 149.287 263.759 149.287H263.984V149.622H263.723C263.307 149.622 263.102 149.441 263.102 149.076V147.532H262.67V147.196H263.102V146.535H263.493V147.196H263.984ZM265.473 149.622V147.196H265.855V147.589C266.009 147.304 266.277 147.15 266.574 147.15C266.907 147.15 267.169 147.343 267.27 147.587C267.403 147.339 267.674 147.15 268.035 147.15C268.478 147.15 268.841 147.435 268.841 148.033V149.622H268.451V148.033C268.451 147.656 268.203 147.509 267.925 147.509C267.568 147.509 267.353 147.75 267.353 148.078V149.622H266.962V147.991C266.962 147.702 266.744 147.509 266.45 147.509C266.144 147.509 265.864 147.725 265.864 148.143V149.622H265.473ZM270.375 149.677C269.702 149.677 269.249 149.154 269.249 148.414C269.249 147.67 269.702 147.141 270.375 147.141C271.048 147.141 271.501 147.67 271.501 148.414C271.501 149.154 271.048 149.677 270.375 149.677ZM270.375 149.324C270.834 149.324 271.105 148.963 271.105 148.414C271.105 147.86 270.832 147.495 270.375 147.495C269.918 147.495 269.644 147.858 269.644 148.414C269.644 148.965 269.915 149.324 270.375 149.324ZM272.299 148.203V149.622H271.908V147.196H272.29V147.552C272.457 147.277 272.703 147.15 273.011 147.15C273.5 147.15 273.902 147.47 273.902 148.115V149.622H273.512V148.143C273.512 147.722 273.301 147.509 272.938 147.509C272.584 147.509 272.299 147.713 272.299 148.203ZM275.493 147.196V147.532H275.002V149.034C275.002 149.223 275.068 149.287 275.268 149.287H275.493V149.622H275.232C274.816 149.622 274.611 149.441 274.611 149.076V147.532H274.179V147.196H274.611V146.535H275.002V147.196H275.493ZM276.244 148.203V149.622H275.853V146.199H276.244V147.536C276.411 147.272 276.655 147.15 276.956 147.15C277.445 147.15 277.847 147.47 277.847 148.115V149.622H277.457V148.143C277.457 147.722 277.245 147.509 276.882 147.509C276.528 147.509 276.244 147.713 276.244 148.203Z" fill="#666D80"/>
<path d="M283.574 148.622V148.588C283.753 147.923 284.091 147.259 284.587 146.596V146.582H283.334V146.151H285.075V146.599C284.583 147.274 284.251 147.948 284.079 148.622H283.574ZM286.229 148.653C285.918 148.653 285.686 148.544 285.535 148.326C285.378 148.105 285.3 147.806 285.3 147.427C285.3 147.242 285.32 147.069 285.361 146.908C285.401 146.748 285.459 146.609 285.535 146.491C285.613 146.37 285.714 146.276 285.838 146.208C285.958 146.143 286.102 146.11 286.269 146.11C286.51 146.11 286.703 146.174 286.849 146.303C286.997 146.434 287.084 146.599 287.108 146.798H286.649C286.632 146.72 286.591 146.656 286.525 146.608C286.459 146.559 286.373 146.534 286.269 146.534C286.099 146.534 285.97 146.596 285.883 146.72C285.793 146.85 285.748 147.03 285.748 147.259H285.764C285.896 147.093 286.078 147.01 286.31 147.01C286.56 147.01 286.759 147.088 286.906 147.246C287.052 147.405 287.125 147.593 287.125 147.807C287.125 148.05 287.045 148.251 286.885 148.41C286.724 148.572 286.505 148.653 286.229 148.653ZM286.229 148.235C286.354 148.235 286.458 148.196 286.539 148.117C286.62 148.041 286.66 147.939 286.66 147.814C286.66 147.694 286.622 147.594 286.546 147.514C286.467 147.439 286.361 147.401 286.229 147.401C286.102 147.401 285.998 147.439 285.919 147.514C285.841 147.593 285.802 147.692 285.802 147.814C285.802 147.938 285.841 148.039 285.919 148.117C285.997 148.196 286.1 148.235 286.229 148.235ZM288.329 148.653C288.089 148.653 287.895 148.588 287.747 148.457C287.6 148.327 287.514 148.163 287.49 147.966H287.949C287.966 148.045 288.007 148.109 288.073 148.157C288.139 148.206 288.225 148.231 288.329 148.231C288.495 148.231 288.622 148.167 288.71 148.04C288.8 147.914 288.845 147.735 288.845 147.504H288.831C288.702 147.671 288.521 147.754 288.286 147.754C288.037 147.754 287.839 147.674 287.694 147.514C287.545 147.356 287.471 147.17 287.471 146.956C287.471 146.715 287.553 146.513 287.716 146.35C287.876 146.19 288.093 146.11 288.369 146.11C288.679 146.11 288.912 146.219 289.067 146.438C289.22 146.658 289.296 146.958 289.296 147.339C289.296 147.533 289.277 147.706 289.239 147.857C289.2 148.012 289.142 148.151 289.063 148.273C288.988 148.39 288.887 148.483 288.76 148.552C288.635 148.619 288.491 148.653 288.329 148.653ZM288.369 147.363C288.498 147.363 288.601 147.324 288.679 147.246C288.754 147.171 288.791 147.072 288.791 146.949C288.791 146.823 288.754 146.721 288.679 146.643C288.601 146.568 288.498 146.531 288.369 146.531C288.244 146.531 288.141 146.569 288.061 146.646C287.979 146.724 287.938 146.825 287.938 146.949C287.938 147.073 287.977 147.172 288.054 147.246C288.128 147.324 288.233 147.363 288.369 147.363ZM289.632 148.622V148.238L290.447 147.404C290.577 147.274 290.67 147.169 290.726 147.087C290.776 147.01 290.8 146.927 290.8 146.837C290.8 146.744 290.771 146.67 290.712 146.615C290.653 146.559 290.569 146.531 290.461 146.531C290.347 146.531 290.257 146.562 290.19 146.625C290.121 146.694 290.087 146.792 290.087 146.918H289.625C289.625 146.667 289.7 146.469 289.851 146.326C290.001 146.182 290.205 146.11 290.461 146.11C290.707 146.11 290.906 146.176 291.059 146.308C291.209 146.442 291.284 146.613 291.284 146.823C291.284 146.949 291.251 147.069 291.184 147.185C291.118 147.301 291.009 147.437 290.857 147.592L290.268 148.181V148.195H291.322V148.622H289.632Z" fill="white"/>
</g>
<rect x="39.1133" y="65.813" width="102.923" height="127.624" rx="7.05755" fill="#F6F8FA"/>
<rect x="48.8174" y="75.5172" width="83.5144" height="50.5791" rx="4.41097" fill="white" stroke="#F4F4F6" stroke-width="0.58813"/>
<rect x="48.8174" y="133.742" width="83.5144" height="49.991" rx="4.41097" fill="white" stroke="#F4F4F6" stroke-width="0.58813"/>
<g filter="url(#filter2_di_1_19195)">
<rect x="55.5809" y="82.2805" width="11.7626" height="11.7626" rx="2.94065" fill="url(#paint2_radial_1_19195)"/>
<rect x="55.3359" y="82.0355" width="12.2527" height="12.2527" rx="3.1857" stroke="#BDB6F6" stroke-width="0.490108"/>
<rect x="56.6837" y="83.3833" width="9.5571" height="9.5571" rx="1.8379" stroke="white" stroke-opacity="0.4" stroke-width="0.245054"/>
<path d="M60.9728 88.1626C60.9728 87.8919 61.1923 87.6725 61.4629 87.6725C61.7336 87.6725 61.9531 87.8919 61.9531 88.1626C61.9531 88.4333 61.7336 88.6527 61.4629 88.6527C61.1923 88.6527 60.9728 88.4333 60.9728 88.1626Z" fill="white"/>
<path fill-rule="evenodd" clip-rule="evenodd" d="M61.4629 86.2021C60.7617 86.2021 60.19 86.5121 59.7664 86.8656C59.3433 87.2187 59.0533 87.627 58.9081 87.857L58.9022 87.8663C58.8733 87.9116 58.8359 87.9705 58.817 88.0531C58.8017 88.1197 58.8017 88.2054 58.817 88.2721C58.8359 88.3546 58.8733 88.4135 58.9022 88.4589L58.9081 88.4682C59.0533 88.6982 59.3433 89.1065 59.7664 89.4595C60.19 89.8131 60.7617 90.123 61.4629 90.123C62.1642 90.123 62.7359 89.8131 63.1595 89.4595C63.5825 89.1065 63.8726 88.6982 64.0178 88.4682L64.0237 88.4589C64.0525 88.4135 64.09 88.3546 64.1089 88.2721C64.1242 88.2054 64.1242 88.1197 64.1089 88.0531C64.09 87.9705 64.0525 87.9116 64.0237 87.8663L64.0178 87.857C63.8726 87.627 63.5825 87.2187 63.1595 86.8656C62.7359 86.5121 62.1642 86.2021 61.4629 86.2021ZM61.4629 87.1824C60.9216 87.1824 60.4827 87.6212 60.4827 88.1626C60.4827 88.7039 60.9216 89.1428 61.4629 89.1428C62.0043 89.1428 62.4432 88.7039 62.4432 88.1626C62.4432 87.6212 62.0043 87.1824 61.4629 87.1824Z" fill="white"/>
</g>
<g filter="url(#filter3_di_1_19195)">
<rect x="55.5809" y="140.505" width="11.7626" height="11.7626" rx="2.94065" fill="url(#paint3_radial_1_19195)"/>
<rect x="55.3359" y="140.26" width="12.2527" height="12.2527" rx="3.1857" stroke="#BDB6F6" stroke-width="0.490108"/>
<rect x="56.6837" y="141.608" width="9.5571" height="9.5571" rx="1.8379" stroke="white" stroke-opacity="0.4" stroke-width="0.245054"/>
<path fill-rule="evenodd" clip-rule="evenodd" d="M59.3968 144.917C59.3994 144.917 59.402 144.917 59.4046 144.917H59.6006C59.6032 144.917 59.6059 144.917 59.6085 144.917C59.6703 144.917 59.7305 144.917 59.7815 144.921C59.8376 144.926 59.9037 144.937 59.9702 144.97C60.0624 145.017 60.1374 145.092 60.1844 145.185C60.2183 145.251 60.2291 145.317 60.2336 145.373C60.2378 145.424 60.2378 145.484 60.2378 145.546C60.2378 145.549 60.2378 145.552 60.2378 145.554L60.2378 148.209C60.2378 148.27 60.2378 148.331 60.2336 148.382C60.2291 148.438 60.2183 148.504 60.1844 148.57C60.1374 148.662 60.0624 148.737 59.9702 148.784C59.9037 148.818 59.8376 148.829 59.7815 148.834C59.7305 148.838 59.6703 148.838 59.6085 148.838H59.3968C59.3349 148.838 59.2747 148.838 59.2237 148.834C59.1677 148.829 59.1016 148.818 59.0351 148.784C58.9428 148.737 58.8679 148.662 58.8209 148.57C58.787 148.504 58.7762 148.438 58.7716 148.382C58.7674 148.331 58.7674 148.27 58.7675 148.209L58.7675 145.554C58.7675 145.552 58.7675 145.549 58.7675 145.546C58.7674 145.484 58.7674 145.424 58.7716 145.373C58.7762 145.317 58.787 145.251 58.8209 145.185C58.8679 145.092 58.9428 145.017 59.0351 144.97C59.1016 144.937 59.1677 144.926 59.2237 144.921C59.2747 144.917 59.3349 144.917 59.3968 144.917Z" fill="white"/>
<path fill-rule="evenodd" clip-rule="evenodd" d="M61.3572 143.937C61.3598 143.937 61.3624 143.937 61.365 143.937L61.5611 143.937C61.5637 143.937 61.5663 143.937 61.5689 143.937C61.6307 143.937 61.691 143.937 61.742 143.941C61.798 143.945 61.8641 143.956 61.9306 143.99C62.0228 144.037 62.0978 144.112 62.1448 144.204C62.1787 144.271 62.1895 144.337 62.1941 144.393C62.1982 144.444 62.1982 144.504 62.1982 144.566C62.1982 144.569 62.1982 144.571 62.1982 144.574L62.1982 148.209C62.1982 148.27 62.1982 148.331 62.1941 148.382C62.1895 148.438 62.1787 148.504 62.1448 148.57C62.0978 148.662 62.0228 148.737 61.9306 148.784C61.8641 148.818 61.798 148.829 61.742 148.834C61.691 148.838 61.6307 148.838 61.5689 148.838H61.3572C61.2954 148.838 61.2351 148.838 61.1841 148.834C61.1281 148.829 61.062 148.818 60.9955 148.784C60.9033 148.737 60.8283 148.662 60.7813 148.57C60.7474 148.504 60.7366 148.438 60.732 148.382C60.7279 148.331 60.7279 148.27 60.7279 148.209L60.7279 144.574C60.7279 144.571 60.7279 144.569 60.7279 144.566C60.7279 144.504 60.7279 144.444 60.732 144.393C60.7366 144.337 60.7474 144.271 60.7813 144.204C60.8283 144.112 60.9033 144.037 60.9955 143.99C61.062 143.956 61.1281 143.945 61.1841 143.941C61.2351 143.937 61.2954 143.937 61.3572 143.937Z" fill="white"/>
<path fill-rule="evenodd" clip-rule="evenodd" d="M63.3176 145.897C63.3202 145.897 63.3229 145.897 63.3255 145.897H63.5215C63.5241 145.897 63.5267 145.897 63.5293 145.897C63.5912 145.897 63.6514 145.897 63.7024 145.901C63.7584 145.906 63.8245 145.917 63.891 145.951C63.9833 145.998 64.0582 146.073 64.1052 146.165C64.1391 146.231 64.1499 146.297 64.1545 146.353C64.1587 146.404 64.1587 146.465 64.1586 146.527C64.1586 146.529 64.1586 146.532 64.1586 146.534L64.1586 148.209C64.1587 148.27 64.1587 148.331 64.1545 148.382C64.1499 148.438 64.1391 148.504 64.1052 148.57C64.0582 148.662 63.9833 148.737 63.891 148.784C63.8245 148.818 63.7584 148.829 63.7024 148.834C63.6514 148.838 63.5912 148.838 63.5293 148.838H63.3176C63.2558 148.838 63.1956 148.838 63.1446 148.834C63.0885 148.829 63.0224 148.818 62.9559 148.784C62.8637 148.737 62.7887 148.662 62.7417 148.57C62.7078 148.504 62.697 148.438 62.6925 148.382C62.6883 148.331 62.6883 148.27 62.6883 148.209L62.6883 146.534C62.6883 146.532 62.6883 146.529 62.6883 146.527C62.6883 146.465 62.6883 146.404 62.6925 146.353C62.697 146.297 62.7078 146.231 62.7417 146.165C62.7887 146.073 62.8637 145.998 62.9559 145.951C63.0224 145.917 63.0885 145.906 63.1446 145.901C63.1956 145.897 63.2558 145.897 63.3176 145.897Z" fill="white"/>
</g>
<path d="M58.3663 108.774C57.6888 108.774 57.1336 108.585 56.7101 108.209C56.2867 107.823 56.0797 107.353 56.0797 106.788H57.1618C57.1901 107.362 57.6135 107.814 58.3663 107.814C59.1944 107.814 59.5896 107.277 59.5896 106.515C59.5896 105.791 59.1756 105.254 58.3757 105.254C57.9146 105.254 57.5382 105.442 57.2559 105.828H56.1832L56.4372 102.102H60.286V103.071H57.3406L57.2183 104.803H57.2559C57.5665 104.501 57.9993 104.351 58.5357 104.351C59.185 104.351 59.712 104.558 60.0978 104.963C60.4836 105.367 60.6812 105.875 60.6812 106.496C60.6812 107.861 59.8437 108.774 58.3663 108.774ZM62.0998 109.988H61.2529V109.893L61.5446 107.682H62.7585V107.776L62.0998 109.988ZM63.5704 105.377C63.5704 104.332 63.768 103.513 64.1538 102.902C64.549 102.29 65.1607 101.989 65.9888 101.989C66.8169 101.989 67.4285 102.29 67.8143 102.902C68.2095 103.513 68.4072 104.332 68.4072 105.377C68.4072 106.421 68.2095 107.249 67.8143 107.861C67.4285 108.473 66.8169 108.774 65.9888 108.774C65.1607 108.774 64.549 108.473 64.1538 107.861C63.768 107.249 63.5704 106.421 63.5704 105.377ZM67.3062 105.377C67.3062 103.824 66.958 102.949 65.9888 102.949C65.0195 102.949 64.6714 103.824 64.6714 105.377C64.6714 106.948 65.0101 107.814 65.9888 107.814C66.9674 107.814 67.3062 106.948 67.3062 105.377ZM72.848 105.179V105.217C73.5726 105.499 73.9302 106.035 73.9302 106.826C73.9302 108.04 73.0174 108.764 71.5871 108.774C70.1568 108.764 69.244 108.04 69.244 106.826C69.244 106.035 69.6016 105.499 70.3261 105.217V105.179C69.7333 104.897 69.4416 104.417 69.4416 103.73C69.4416 103.203 69.6392 102.779 70.025 102.469C70.4202 102.158 70.9378 101.998 71.5871 101.989C72.2364 101.998 72.7539 102.158 73.1398 102.469C73.535 102.779 73.7326 103.203 73.7326 103.73C73.7326 104.417 73.4409 104.897 72.848 105.179ZM70.5332 103.833C70.5332 104.389 70.9472 104.756 71.5871 104.756C72.227 104.756 72.641 104.389 72.641 103.833C72.641 103.269 72.2552 102.93 71.5871 102.93C70.919 102.93 70.5332 103.269 70.5332 103.833ZM71.5871 107.833C72.387 107.823 72.8292 107.428 72.8292 106.76C72.8292 106.12 72.4058 105.706 71.5871 105.697C70.7684 105.706 70.345 106.12 70.345 106.76C70.345 107.428 70.7872 107.823 71.5871 107.833ZM76.9844 108.774C76.3727 108.774 75.874 108.604 75.4882 108.275C75.1023 107.936 74.8859 107.503 74.82 106.986H75.8834C75.9587 107.484 76.3727 107.804 76.9844 107.804C77.963 107.804 78.4617 106.958 78.4617 105.612H78.4241C78.0948 106.12 77.5866 106.374 76.9091 106.374C76.241 106.374 75.7234 106.167 75.3376 105.744C74.9518 105.32 74.7636 104.821 74.7636 104.229C74.7636 103.579 74.9706 103.052 75.3941 102.629C75.8175 102.205 76.3821 101.989 77.0879 101.989C77.9065 101.989 78.5088 102.281 78.904 102.874C79.3087 103.457 79.5063 104.257 79.5063 105.264C79.5063 105.932 79.4216 106.525 79.2522 107.042C78.9228 108.058 78.123 108.774 76.9844 108.774ZM77.0785 105.471C77.8407 105.471 78.3206 104.944 78.3206 104.219C78.3206 103.466 77.8313 102.949 77.0785 102.949C76.3351 102.949 75.8457 103.466 75.8457 104.21C75.8457 104.953 76.2974 105.471 77.0785 105.471Z" fill="#061A2A"/>
<path d="M59.6743 163.404V163.442C60.3989 163.724 60.7565 164.26 60.7565 165.051C60.7565 166.265 59.8437 166.989 58.4134 166.999C56.983 166.989 56.0703 166.265 56.0703 165.051C56.0703 164.26 56.4278 163.724 57.1524 163.442V163.404C56.5596 163.122 56.2679 162.642 56.2679 161.955C56.2679 161.428 56.4655 161.004 56.8513 160.694C57.2465 160.383 57.7641 160.223 58.4134 160.214C59.0627 160.223 59.5802 160.383 59.966 160.694C60.3612 161.004 60.5589 161.428 60.5589 161.955C60.5589 162.642 60.2671 163.122 59.6743 163.404ZM57.3594 162.058C57.3594 162.613 57.7735 162.98 58.4134 162.98C59.0532 162.98 59.4673 162.613 59.4673 162.058C59.4673 161.494 59.0815 161.155 58.4134 161.155C57.7452 161.155 57.3594 161.494 57.3594 162.058ZM58.4134 166.058C59.2132 166.048 59.6555 165.653 59.6555 164.985C59.6555 164.345 59.232 163.931 58.4134 163.921C57.5947 163.931 57.1712 164.345 57.1712 164.985C57.1712 165.653 57.6135 166.048 58.4134 166.058ZM63.8106 166.999C63.199 166.999 62.7002 166.829 62.3144 166.5C61.9286 166.161 61.7122 165.728 61.6463 165.211H62.7097C62.7849 165.709 63.199 166.029 63.8106 166.029C64.7893 166.029 65.288 165.182 65.288 163.837H65.2504C64.921 164.345 64.4129 164.599 63.7353 164.599C63.0672 164.599 62.5497 164.392 62.1639 163.968C61.7781 163.545 61.5899 163.046 61.5899 162.453C61.5899 161.804 61.7969 161.277 62.2203 160.854C62.6438 160.43 63.2084 160.214 63.9141 160.214C64.7328 160.214 65.3351 160.506 65.7303 161.098C66.1349 161.682 66.3325 162.482 66.3325 163.489C66.3325 164.157 66.2478 164.75 66.0785 165.267C65.7491 166.283 64.9492 166.999 63.8106 166.999ZM63.9047 163.696C64.6669 163.696 65.1469 163.169 65.1469 162.444C65.1469 161.691 64.6575 161.174 63.9047 161.174C63.1613 161.174 62.672 161.691 62.672 162.435C62.672 163.178 63.1237 163.696 63.9047 163.696ZM67.8303 166.999C67.388 166.999 67.1433 166.735 67.1433 166.312C67.1433 165.888 67.388 165.625 67.8303 165.625C68.2537 165.625 68.5078 165.898 68.5078 166.312C68.5078 166.726 68.2537 166.999 67.8303 166.999ZM71.5394 166.999C70.9277 166.999 70.429 166.829 70.0432 166.5C69.6574 166.161 69.4409 165.728 69.3751 165.211H70.4384C70.5137 165.709 70.9277 166.029 71.5394 166.029C72.518 166.029 73.0168 165.182 73.0168 163.837H72.9791C72.6498 164.345 72.1416 164.599 71.4641 164.599C70.796 164.599 70.2784 164.392 69.8926 163.968C69.5068 163.545 69.3186 163.046 69.3186 162.453C69.3186 161.804 69.5256 161.277 69.9491 160.854C70.3725 160.43 70.9371 160.214 71.6429 160.214C72.4616 160.214 73.0638 160.506 73.459 161.098C73.8637 161.682 74.0613 162.482 74.0613 163.489C74.0613 164.157 73.9766 164.75 73.8072 165.267C73.4779 166.283 72.678 166.999 71.5394 166.999ZM71.6335 163.696C72.3957 163.696 72.8756 163.169 72.8756 162.444C72.8756 161.691 72.3863 161.174 71.6335 161.174C70.8901 161.174 70.4008 161.691 70.4008 162.435C70.4008 163.178 70.8525 163.696 71.6335 163.696ZM74.9474 163.601C74.9474 162.557 75.145 161.738 75.5308 161.127C75.926 160.515 76.5377 160.214 77.3658 160.214C78.1939 160.214 78.8055 160.515 79.1913 161.127C79.5865 161.738 79.7842 162.557 79.7842 163.601C79.7842 164.646 79.5865 165.474 79.1913 166.086C78.8055 166.697 78.1939 166.999 77.3658 166.999C76.5377 166.999 75.926 166.697 75.5308 166.086C75.145 165.474 74.9474 164.646 74.9474 163.601ZM78.6832 163.601C78.6832 162.049 78.335 161.174 77.3658 161.174C76.3965 161.174 76.0484 162.049 76.0484 163.601C76.0484 165.173 76.3871 166.039 77.3658 166.039C78.3444 166.039 78.6832 165.173 78.6832 163.601ZM82.136 163.639C81.1856 163.639 80.668 162.952 80.668 161.926C80.668 160.901 81.1856 160.214 82.136 160.214C83.077 160.214 83.5946 160.901 83.5946 161.926C83.5946 162.952 83.077 163.639 82.136 163.639ZM82.3619 166.914H81.4114V166.82L85.8718 160.327H86.8034V160.421L82.3619 166.914ZM82.136 162.896C82.5783 162.896 82.7947 162.576 82.7947 161.926C82.7947 161.277 82.5783 160.957 82.136 160.957C81.6937 160.957 81.4679 161.277 81.4679 161.926C81.4679 162.576 81.6937 162.896 82.136 162.896ZM86.1259 163.573C87.0669 163.573 87.5939 164.26 87.5939 165.286C87.5939 166.312 87.0763 166.999 86.1259 166.999C85.1755 166.999 84.6579 166.312 84.6579 165.286C84.6579 164.26 85.1755 163.573 86.1259 163.573ZM85.4672 165.286C85.4672 165.935 85.6836 166.255 86.1259 166.255C86.5682 166.255 86.7846 165.935 86.7846 165.286C86.7846 164.637 86.5682 164.317 86.1259 164.317C85.6836 164.317 85.4672 164.637 85.4672 165.286Z" fill="#061A2A"/>
<path d="M56.9313 118.451L55.7221 115.205V115.158H56.1502L57.1383 117.901H57.1571L58.1311 115.158H58.5639V115.205L57.35 118.451H56.9313ZM59.3264 115.586C59.1429 115.586 59.0535 115.478 59.0535 115.308C59.0535 115.144 59.1429 115.036 59.3264 115.036C59.5052 115.036 59.5993 115.144 59.5993 115.308C59.5993 115.478 59.5052 115.586 59.3264 115.586ZM59.1288 118.451V116.047H59.524V118.451H59.1288ZM61.2268 118.494C60.5164 118.494 60.1353 117.957 60.1353 117.252C60.1353 116.555 60.4787 116.005 61.2221 116.005C61.8996 116.005 62.2619 116.508 62.2619 117.176V117.369H60.5493C60.5493 117.826 60.7799 118.141 61.2268 118.141C61.5421 118.141 61.7679 118.009 61.8338 117.755H62.229C62.1631 118.197 61.7397 118.494 61.2268 118.494ZM60.554 117.04H61.8526C61.8526 116.659 61.6503 116.358 61.2221 116.358C60.7704 116.358 60.5681 116.664 60.554 117.04ZM63.2724 118.451L62.5902 116.094V116.047H62.9995L63.4794 117.915H63.4982L64.0628 116.047H64.4675L65.0321 117.915H65.0509L65.5308 116.047H65.9307V116.094L65.2532 118.451H64.8439L64.2793 116.584H64.2604L63.6817 118.451H63.2724ZM67.3516 118.494C66.6412 118.494 66.2601 117.957 66.2601 117.252C66.2601 116.555 66.6035 116.005 67.3469 116.005C68.0245 116.005 68.3868 116.508 68.3868 117.176V117.369H66.6741C66.6741 117.826 66.9047 118.141 67.3516 118.141C67.6669 118.141 67.8927 118.009 67.9586 117.755H68.3538C68.2879 118.197 67.8645 118.494 67.3516 118.494ZM66.6788 117.04H67.9774C67.9774 116.659 67.7751 116.358 67.3469 116.358C66.8953 116.358 66.6929 116.664 66.6788 117.04ZM69.0443 118.451V116.047H69.3878L69.4207 116.452H69.4395C69.5383 116.184 69.7783 116.019 70.0747 116.019H70.2912V116.4H70.103C69.6466 116.4 69.4395 116.72 69.4395 117.285V118.451H69.0443ZM71.6728 118.494C71.1035 118.494 70.7035 118.183 70.6894 117.656H71.0847C71.0847 117.976 71.3293 118.141 71.6728 118.141C72.0115 118.141 72.2233 118.028 72.2233 117.797C72.2233 117.637 72.1151 117.51 71.8563 117.454L71.3764 117.365C70.9811 117.285 70.7647 117.045 70.7647 116.692C70.7647 116.292 71.1082 116.005 71.6398 116.005C72.1809 116.005 72.5667 116.301 72.5667 116.781H72.1809C72.1668 116.475 71.941 116.339 71.6398 116.339C71.3481 116.339 71.1458 116.456 71.1458 116.692C71.1458 116.88 71.3011 116.988 71.5646 117.03L71.941 117.101C72.3927 117.205 72.6232 117.383 72.6232 117.797C72.6232 118.24 72.1903 118.494 71.6728 118.494Z" fill="#666D80"/>
<path d="M57.3171 176.719C56.3667 176.719 55.8632 176.036 55.8632 175.034C55.8632 174.018 56.3761 173.34 57.3171 173.34C58.1122 173.34 58.5639 173.787 58.6345 174.484H58.211C58.1593 174.027 57.8723 173.726 57.3171 173.726C56.5502 173.726 56.2867 174.371 56.2867 175.034C56.2867 175.698 56.5502 176.338 57.3171 176.338C57.8535 176.338 58.1358 176.06 58.2158 175.608H58.6345C58.5451 176.286 58.1075 176.719 57.3171 176.719ZM60.2388 176.719C59.486 176.719 59.152 176.168 59.152 175.476C59.152 174.785 59.4954 174.23 60.2388 174.23C60.9822 174.23 61.3257 174.785 61.3257 175.476C61.3257 176.163 60.9917 176.719 60.2388 176.719ZM60.2388 176.366C60.7282 176.366 60.9258 175.994 60.9258 175.476C60.9258 174.959 60.7282 174.583 60.2388 174.583C59.7495 174.583 59.5519 174.964 59.5519 175.476C59.5519 175.994 59.7542 176.366 60.2388 176.366ZM61.9822 176.676V174.272H62.3256L62.3586 174.648H62.3774C62.5044 174.404 62.7491 174.23 63.1208 174.23C63.6525 174.23 63.963 174.564 63.963 175.114V176.676H63.5678V175.175C63.5678 174.799 63.3937 174.583 63.0126 174.583C62.6126 174.583 62.3774 174.865 62.3774 175.349V176.676H61.9822ZM65.3094 176.676L64.3637 174.319V174.272H64.7731L65.5118 176.215H65.5306L66.241 174.272H66.6504V174.319L65.7188 176.676H65.3094ZM68.0041 176.719C67.2936 176.719 66.9125 176.182 66.9125 175.476C66.9125 174.78 67.256 174.23 67.9994 174.23C68.6769 174.23 69.0392 174.733 69.0392 175.401V175.594H67.3266C67.3266 176.05 67.5571 176.366 68.0041 176.366C68.3193 176.366 68.5452 176.234 68.6111 175.98H69.0063C68.9404 176.422 68.517 176.719 68.0041 176.719ZM67.3313 175.265H68.6299C68.6299 174.884 68.4276 174.583 67.9994 174.583C67.5477 174.583 67.3454 174.888 67.3313 175.265ZM69.6968 176.676V174.272H70.0402L70.0732 174.677H70.092C70.1908 174.408 70.4308 174.244 70.7272 174.244H70.9436V174.625H70.7554C70.299 174.625 70.092 174.945 70.092 175.509V176.676H69.6968ZM72.3252 176.719C71.7559 176.719 71.356 176.408 71.3419 175.881H71.7371C71.7371 176.201 71.9818 176.366 72.3252 176.366C72.664 176.366 72.8757 176.253 72.8757 176.022C72.8757 175.862 72.7675 175.735 72.5087 175.679L72.0288 175.589C71.6336 175.509 71.4172 175.269 71.4172 174.917C71.4172 174.517 71.7606 174.23 72.2923 174.23C72.8334 174.23 73.2192 174.526 73.2192 175.006H72.8334C72.8193 174.7 72.5934 174.564 72.2923 174.564C72.0006 174.564 71.7983 174.681 71.7983 174.917C71.7983 175.105 71.9535 175.213 72.217 175.255L72.5934 175.326C73.0451 175.429 73.2757 175.608 73.2757 176.022C73.2757 176.465 72.8428 176.719 72.3252 176.719ZM74.1308 173.811C73.9473 173.811 73.8579 173.703 73.8579 173.533C73.8579 173.369 73.9473 173.26 74.1308 173.26C74.3095 173.26 74.4037 173.369 74.4037 173.533C74.4037 173.703 74.3095 173.811 74.1308 173.811ZM73.9331 176.676V174.272H74.3284V176.676H73.9331ZM76.0264 176.719C75.2736 176.719 74.9396 176.168 74.9396 175.476C74.9396 174.785 75.2831 174.23 76.0264 174.23C76.7698 174.23 77.1133 174.785 77.1133 175.476C77.1133 176.163 76.7793 176.719 76.0264 176.719ZM76.0264 176.366C76.5158 176.366 76.7134 175.994 76.7134 175.476C76.7134 174.959 76.5158 174.583 76.0264 174.583C75.5371 174.583 75.3395 174.964 75.3395 175.476C75.3395 175.994 75.5418 176.366 76.0264 176.366ZM77.7698 176.676V174.272H78.1132L78.1462 174.648H78.165C78.292 174.404 78.5367 174.23 78.9084 174.23C79.4401 174.23 79.7506 174.564 79.7506 175.114V176.676H79.3554V175.175C79.3554 174.799 79.1813 174.583 78.8002 174.583C78.4002 174.583 78.165 174.865 78.165 175.349V176.676H77.7698ZM81.3448 176.719C80.7754 176.719 80.3755 176.408 80.3614 175.881H80.7566C80.7566 176.201 81.0013 176.366 81.3448 176.366C81.6835 176.366 81.8952 176.253 81.8952 176.022C81.8952 175.862 81.787 175.735 81.5283 175.679L81.0483 175.589C80.6531 175.509 80.4367 175.269 80.4367 174.917C80.4367 174.517 80.7802 174.23 81.3118 174.23C81.8529 174.23 82.2387 174.526 82.2387 175.006H81.8529C81.8388 174.7 81.6129 174.564 81.3118 174.564C81.0201 174.564 80.8178 174.681 80.8178 174.917C80.8178 175.105 80.9731 175.213 81.2365 175.255L81.6129 175.326C82.0646 175.429 82.2952 175.608 82.2952 176.022C82.2952 176.465 81.8623 176.719 81.3448 176.719Z" fill="#666D80"/>
<rect x="106.16" y="109.923" width="19.705" height="9.41007" rx="4.70504" fill="#F9F9FA"/>
<path d="M109.454 116.298V115.324H108.536V114.986H109.454V114.012H109.83V114.986H110.729V115.324H109.83V116.298H109.454ZM111.738 116.628V113.781H111.719L110.962 114.374H110.915V113.969L111.734 113.334H112.138V116.628H111.738ZM112.876 116.628V116.317L114 115.004C114.339 114.609 114.471 114.459 114.471 114.181C114.471 113.861 114.278 113.635 113.883 113.635C113.497 113.635 113.266 113.856 113.266 114.256H112.867C112.867 113.682 113.238 113.278 113.883 113.278C114.509 113.278 114.88 113.664 114.88 114.167C114.88 114.534 114.683 114.779 114.273 115.254L113.422 116.242V116.261H114.932V116.628H112.876ZM115.705 116.67C115.522 116.67 115.428 116.552 115.428 116.383C115.428 116.218 115.522 116.101 115.705 116.101C115.884 116.101 115.983 116.218 115.983 116.383C115.983 116.552 115.884 116.67 115.705 116.67ZM117.589 116.67C116.93 116.67 116.502 116.289 116.502 115.715H116.897C116.902 116.054 117.137 116.317 117.584 116.317C118.021 116.317 118.266 116.072 118.266 115.705C118.266 115.31 117.998 115.089 117.537 115.089H117.25V114.736H117.527C117.904 114.736 118.163 114.51 118.163 114.172C118.163 113.875 117.984 113.631 117.575 113.631C117.156 113.631 116.958 113.866 116.944 114.205H116.544C116.572 113.626 116.949 113.278 117.589 113.278C118.153 113.278 118.577 113.612 118.577 114.143C118.577 114.51 118.412 114.736 118.083 114.863V114.882C118.468 115.004 118.68 115.306 118.68 115.701C118.68 116.247 118.29 116.67 117.589 116.67ZM119.934 114.99C119.445 114.99 119.243 114.619 119.243 114.134C119.243 113.649 119.445 113.278 119.934 113.278C120.419 113.278 120.626 113.649 120.626 114.134C120.626 114.619 120.424 114.99 119.934 114.99ZM119.624 116.628V116.581L121.854 113.334H122.216V113.381L119.995 116.628H119.624ZM119.934 114.689C120.198 114.689 120.292 114.468 120.292 114.134C120.292 113.8 120.198 113.579 119.934 113.579C119.671 113.579 119.577 113.8 119.577 114.134C119.577 114.468 119.671 114.689 119.934 114.689ZM121.91 116.67C121.421 116.67 121.219 116.298 121.219 115.814C121.219 115.329 121.421 114.957 121.91 114.957C122.395 114.957 122.602 115.329 122.602 115.814C122.602 116.298 122.4 116.67 121.91 116.67ZM121.91 116.369C122.174 116.369 122.268 116.148 122.268 115.814C122.268 115.48 122.174 115.259 121.91 115.259C121.647 115.259 121.553 115.48 121.553 115.814C121.553 116.148 121.647 116.369 121.91 116.369Z" fill="#666D80"/>
<rect x="107.863" y="167.559" width="17.705" height="9.41007" rx="4.70504" fill="#F9F9FA"/>
<path d="M111.157 173.935V172.961H110.239V172.622H111.157V171.648H111.533V172.622H112.432V172.961H111.533V173.935H111.157ZM113.442 174.264V171.418H113.423L112.665 172.011H112.618V171.606L113.437 170.971H113.841V174.264H113.442ZM115.741 174.307C114.89 174.307 114.593 173.592 114.593 172.608C114.593 171.63 114.89 170.914 115.741 170.914C116.593 170.914 116.889 171.63 116.889 172.608C116.889 173.592 116.593 174.307 115.741 174.307ZM115.741 173.949C116.339 173.949 116.48 173.328 116.48 172.608C116.48 171.893 116.334 171.272 115.741 171.272C115.149 171.272 115.003 171.893 115.003 172.608C115.003 173.328 115.144 173.949 115.741 173.949ZM118.206 174.264V171.418H118.188L117.43 172.011H117.383V171.606L118.202 170.971H118.606V174.264H118.206ZM120.05 172.627C119.561 172.627 119.358 172.255 119.358 171.771C119.358 171.286 119.561 170.914 120.05 170.914C120.535 170.914 120.742 171.286 120.742 171.771C120.742 172.255 120.539 172.627 120.05 172.627ZM119.739 174.264V174.217L121.97 170.971H122.332V171.018L120.111 174.264H119.739ZM120.05 172.326C120.313 172.326 120.408 172.105 120.408 171.771C120.408 171.437 120.313 171.216 120.05 171.216C119.786 171.216 119.692 171.437 119.692 171.771C119.692 172.105 119.786 172.326 120.05 172.326ZM122.026 174.307C121.537 174.307 121.334 173.935 121.334 173.45C121.334 172.966 121.537 172.594 122.026 172.594C122.511 172.594 122.718 172.966 122.718 173.45C122.718 173.935 122.515 174.307 122.026 174.307ZM122.026 174.006C122.29 174.006 122.384 173.784 122.384 173.45C122.384 173.116 122.29 172.895 122.026 172.895C121.763 172.895 121.668 173.116 121.668 173.45C121.668 173.784 121.763 174.006 122.026 174.006Z" fill="#666D80"/>
<rect x="72.0486" y="212.257" width="205.845" height="82.3381" rx="7.05755" fill="white"/>
<circle cx="81.4586" cy="221.667" r="2.35252" fill="#FB7185"/>
<circle cx="89.6924" cy="221.667" r="2.35252" fill="#FACC15"/>
<circle cx="97.9262" cy="221.667" r="2.35252" fill="#4ADE80"/>
<rect x="79.1061" y="231.077" width="191.73" height="25.8777" rx="4.70504" fill="#F9F9FA"/>
<rect x="79.1061" y="261.66" width="191.73" height="25.8777" rx="4.70504" fill="#F9F9FA"/>
<path d="M85.5756 246.629H92.6331V239.571H85.5756V246.629ZM96.5137 246.217C95.28 246.217 94.477 245.449 94.477 244.377V241H95.2386V244.315C95.2386 245.018 95.7245 245.525 96.5137 245.525C97.3063 245.525 97.7922 245.018 97.7922 244.315V241H98.5537V244.377C98.5537 245.449 97.7474 246.217 96.5137 246.217ZM100.618 246.221C99.7841 246.221 99.1501 245.818 99.0984 245.029H99.8151C99.8565 245.421 100.132 245.642 100.604 245.642C101.066 245.642 101.352 245.432 101.352 245.142C101.352 244.894 101.142 244.749 100.828 244.681L100.225 244.546C99.5395 244.394 99.1811 244.046 99.1811 243.505C99.1811 242.861 99.7393 242.416 100.573 242.416C101.393 242.416 101.979 242.871 102 243.605H101.304C101.297 243.25 101.014 242.992 100.584 242.992C100.17 242.992 99.9082 243.212 99.9082 243.492C99.9082 243.736 100.105 243.884 100.432 243.96L101.052 244.098C101.762 244.257 102.086 244.574 102.086 245.101C102.086 245.794 101.466 246.221 100.618 246.221ZM104.144 246.217C103.065 246.217 102.41 245.421 102.41 244.322C102.41 243.212 103.113 242.413 104.106 242.413C105.136 242.413 105.805 243.192 105.805 244.315V244.512H103.127C103.151 245.166 103.516 245.611 104.154 245.611C104.629 245.611 104.946 245.373 105.05 245.029H105.749C105.615 245.732 104.967 246.217 104.144 246.217ZM103.134 243.96H105.095C105.036 243.381 104.664 243.02 104.113 243.02C103.565 243.02 103.196 243.381 103.134 243.96ZM106.294 246.135V242.496H106.99V243.085H107.004C107.138 242.689 107.421 242.451 107.883 242.451C107.993 242.451 108.089 242.461 108.148 242.468V243.147C108.093 243.137 107.934 243.113 107.766 243.113C107.355 243.113 107.021 243.392 107.021 243.984V246.135H106.294ZM109.899 246.221C109.065 246.221 108.431 245.818 108.379 245.029H109.096C109.137 245.421 109.413 245.642 109.885 245.642C110.347 245.642 110.633 245.432 110.633 245.142C110.633 244.894 110.423 244.749 110.109 244.681L109.506 244.546C108.82 244.394 108.462 244.046 108.462 243.505C108.462 242.861 109.02 242.416 109.854 242.416C110.674 242.416 111.26 242.871 111.281 243.605H110.585C110.578 243.25 110.295 242.992 109.864 242.992C109.451 242.992 109.189 243.212 109.189 243.492C109.189 243.736 109.385 243.884 109.713 243.96L110.333 244.098C111.043 244.257 111.367 244.574 111.367 245.101C111.367 245.794 110.746 246.221 109.899 246.221ZM114.138 244.04V246.135H113.411V242.496H114.124V243.044C114.372 242.63 114.744 242.423 115.223 242.423C115.971 242.423 116.54 242.916 116.54 243.867V246.135H115.812V243.957C115.812 243.374 115.52 243.075 115.016 243.075C114.52 243.075 114.138 243.364 114.138 244.04ZM118.773 246.217C117.694 246.217 117.039 245.421 117.039 244.322C117.039 243.212 117.742 242.413 118.735 242.413C119.765 242.413 120.434 243.192 120.434 244.315V244.512H117.756C117.78 245.166 118.146 245.611 118.783 245.611C119.259 245.611 119.576 245.373 119.679 245.029H120.379C120.244 245.732 119.596 246.217 118.773 246.217ZM117.763 243.96H119.724C119.665 243.381 119.293 243.02 118.742 243.02C118.194 243.02 117.825 243.381 117.763 243.96ZM121.606 246.135L120.479 242.496H121.24L121.657 243.984C121.778 244.426 121.888 244.891 122.002 245.342C122.119 244.891 122.236 244.426 122.357 243.984L122.781 242.496H123.473L123.89 243.984C124.014 244.419 124.125 244.884 124.242 245.328C124.356 244.884 124.466 244.422 124.586 243.984L125.007 242.496H125.775L124.648 246.135H123.89L123.429 244.55C123.325 244.181 123.229 243.791 123.129 243.409C123.029 243.791 122.929 244.181 122.822 244.55L122.353 246.135H121.606ZM126.858 241V246.135H126.13V241H126.858ZM127.63 247.575V246.962H128.022C128.25 246.962 128.384 246.838 128.495 246.541L128.66 246.111L127.254 242.496H128.033L128.76 244.491C128.856 244.763 128.946 245.035 129.036 245.308C129.125 245.035 129.218 244.763 129.315 244.491L130.032 242.496H130.8L129.146 246.772C128.943 247.3 128.584 247.575 128.091 247.575H127.63ZM134.26 246.217C133.219 246.217 132.516 245.442 132.516 244.322C132.516 243.195 133.219 242.413 134.26 242.413C135.301 242.413 136 243.195 136 244.322C136 245.442 135.301 246.217 134.26 246.217ZM134.26 245.59C134.884 245.59 135.266 245.094 135.266 244.322C135.266 243.54 134.88 243.04 134.26 243.04C133.64 243.04 133.254 243.54 133.254 244.322C133.254 245.097 133.636 245.59 134.26 245.59ZM137.231 244.04V246.135H136.504V242.496H137.217V243.044C137.465 242.63 137.837 242.423 138.316 242.423C139.064 242.423 139.633 242.916 139.633 243.867V246.135H138.906V243.957C138.906 243.374 138.613 243.075 138.11 243.075C137.613 243.075 137.231 243.364 137.231 244.04ZM142.159 246.207C141.683 246.207 141.277 246.004 141.032 245.58H141.025V246.135H140.312V241H141.039V243.023H141.046C141.28 242.62 141.69 242.423 142.162 242.423C143.103 242.423 143.737 243.192 143.737 244.315C143.737 245.442 143.106 246.207 142.159 246.207ZM142.011 245.58C142.596 245.58 143 245.135 143 244.315C143 243.492 142.596 243.047 142.011 243.047C141.39 243.047 140.991 243.55 140.991 244.315C140.991 245.08 141.39 245.58 142.011 245.58ZM145.801 246.217C144.761 246.217 144.058 245.442 144.058 244.322C144.058 243.195 144.761 242.413 145.801 242.413C146.842 242.413 147.542 243.195 147.542 244.322C147.542 245.442 146.842 246.217 145.801 246.217ZM145.801 245.59C146.425 245.59 146.808 245.094 146.808 244.322C146.808 243.54 146.422 243.04 145.801 243.04C145.181 243.04 144.795 243.54 144.795 244.322C144.795 245.097 145.178 245.59 145.801 245.59ZM149.196 246.193C148.472 246.193 147.935 245.821 147.935 245.094C147.935 244.264 148.631 244.084 149.372 243.998C150.054 243.915 150.281 243.922 150.281 243.657V243.626C150.281 243.275 150.009 243.02 149.547 243.02C149.082 243.02 148.765 243.271 148.738 243.605H148.024C148.059 242.913 148.648 242.423 149.558 242.423C150.454 242.423 151.002 242.899 151.002 243.64V246.135H150.285V245.618H150.271C150.12 245.911 149.823 246.193 149.196 246.193ZM149.344 245.608C149.985 245.608 150.285 245.222 150.285 244.774V244.346C150.185 244.426 149.799 244.484 149.413 244.539C149.017 244.598 148.658 244.739 148.658 245.108C148.658 245.421 148.92 245.608 149.344 245.608ZM151.681 246.135V242.496H152.377V243.085H152.391C152.525 242.689 152.808 242.451 153.269 242.451C153.38 242.451 153.476 242.461 153.535 242.468V243.147C153.48 243.137 153.321 243.113 153.152 243.113C152.742 243.113 152.408 243.392 152.408 243.984V246.135H151.681ZM155.282 246.207C154.334 246.207 153.704 245.442 153.704 244.315C153.704 243.192 154.338 242.423 155.279 242.423C155.751 242.423 156.161 242.62 156.395 243.023H156.402V241H157.129V246.135H156.416V245.58H156.409C156.164 246.004 155.758 246.207 155.282 246.207ZM155.43 245.58C156.05 245.58 156.45 245.08 156.45 244.315C156.45 243.55 156.05 243.047 155.43 243.047C154.844 243.047 154.441 243.492 154.441 244.315C154.441 245.135 154.844 245.58 155.43 245.58ZM159.362 246.217C158.284 246.217 157.629 245.421 157.629 244.322C157.629 243.212 158.332 242.413 159.324 242.413C160.355 242.413 161.023 243.192 161.023 244.315V244.512H158.346C158.37 245.166 158.735 245.611 159.373 245.611C159.848 245.611 160.165 245.373 160.269 245.029H160.968C160.834 245.732 160.186 246.217 159.362 246.217ZM158.353 243.96H160.313C160.255 243.381 159.883 243.02 159.331 243.02C158.783 243.02 158.415 243.381 158.353 243.96ZM162.912 246.207C161.964 246.207 161.334 245.442 161.334 244.315C161.334 243.192 161.968 242.423 162.908 242.423C163.381 242.423 163.791 242.62 164.025 243.023H164.032V241H164.759V246.135H164.046V245.58H164.039C163.794 246.004 163.387 246.207 162.912 246.207ZM163.06 245.58C163.68 245.58 164.08 245.08 164.08 244.315C164.08 243.55 163.68 243.047 163.06 243.047C162.474 243.047 162.071 243.492 162.071 244.315C162.071 245.135 162.474 245.58 163.06 245.58Z" fill="#061A2A"/>
<path d="M85.5756 277.212H92.6331V270.154H85.5756V277.212ZM94.5012 276.718V271.583H95.5798L96.7308 274.591C96.8238 274.853 96.9927 275.339 97.1098 275.694C97.227 275.339 97.3959 274.853 97.4855 274.591L98.6192 271.583H99.7013V276.718H98.95V273.919C98.95 273.554 98.9638 273.03 98.9742 272.544C98.7846 273.103 98.6089 273.626 98.4986 273.919L97.4165 276.718H96.7894L95.6969 273.919C95.5901 273.637 95.4178 273.147 95.2317 272.617C95.2421 273.082 95.2559 273.571 95.2559 273.919V276.718H94.5012ZM101.552 276.776C100.828 276.776 100.291 276.404 100.291 275.677C100.291 274.846 100.987 274.667 101.728 274.581C102.41 274.498 102.637 274.505 102.637 274.24V274.209C102.637 273.857 102.365 273.602 101.903 273.602C101.438 273.602 101.121 273.854 101.094 274.188H100.38C100.415 273.495 101.004 273.006 101.914 273.006C102.81 273.006 103.358 273.482 103.358 274.223V276.718H102.641V276.201H102.627C102.476 276.494 102.179 276.776 101.552 276.776ZM101.7 276.19C102.341 276.19 102.641 275.804 102.641 275.356V274.929C102.541 275.008 102.155 275.067 101.769 275.122C101.373 275.181 101.014 275.322 101.014 275.691C101.014 276.004 101.276 276.19 101.7 276.19ZM105.436 276.79C104.488 276.79 103.858 276.025 103.858 274.898C103.858 273.775 104.492 273.006 105.432 273.006C105.904 273.006 106.315 273.203 106.549 273.606H106.556V271.583H107.283V276.718H106.57V276.163H106.563C106.318 276.587 105.911 276.79 105.436 276.79ZM105.584 276.163C106.204 276.163 106.604 275.663 106.604 274.898C106.604 274.133 106.204 273.63 105.584 273.63C104.998 273.63 104.595 274.074 104.595 274.898C104.595 275.718 104.998 276.163 105.584 276.163ZM109.516 276.8C108.437 276.8 107.783 276.004 107.783 274.905C107.783 273.795 108.486 272.996 109.478 272.996C110.509 272.996 111.177 273.775 111.177 274.898V275.094H108.5C108.524 275.749 108.889 276.194 109.526 276.194C110.002 276.194 110.319 275.956 110.422 275.611H111.122C110.988 276.314 110.34 276.8 109.516 276.8ZM108.506 274.543H110.467C110.409 273.964 110.036 273.602 109.485 273.602C108.937 273.602 108.568 273.964 108.506 274.543ZM114.317 276.776C113.593 276.776 113.056 276.404 113.056 275.677C113.056 274.846 113.752 274.667 114.493 274.581C115.175 274.498 115.402 274.505 115.402 274.24V274.209C115.402 273.857 115.13 273.602 114.668 273.602C114.203 273.602 113.886 273.854 113.858 274.188H113.145C113.18 273.495 113.769 273.006 114.679 273.006C115.575 273.006 116.123 273.482 116.123 274.223V276.718H115.406V276.201H115.392C115.24 276.494 114.944 276.776 114.317 276.776ZM114.465 276.19C115.106 276.19 115.406 275.804 115.406 275.356V274.929C115.306 275.008 114.92 275.067 114.534 275.122C114.138 275.181 113.779 275.322 113.779 275.691C113.779 276.004 114.041 276.19 114.465 276.19ZM117.529 274.622V276.718H116.802V273.078H117.515V273.626C117.763 273.213 118.135 273.006 118.614 273.006C119.362 273.006 119.931 273.499 119.931 274.45V276.718H119.203V274.54C119.203 273.957 118.911 273.657 118.407 273.657C117.911 273.657 117.529 273.947 117.529 274.622ZM122.15 278.158V273.078H122.863V273.602H122.874C123.105 273.203 123.529 273.006 124.001 273.006C124.941 273.006 125.575 273.775 125.575 274.898C125.575 276.025 124.945 276.79 123.997 276.79C123.522 276.79 123.132 276.587 122.888 276.17H122.877V278.158H122.15ZM123.849 276.163C124.435 276.163 124.838 275.718 124.838 274.898C124.838 274.074 124.435 273.63 123.849 273.63C123.229 273.63 122.829 274.133 122.829 274.898C122.829 275.663 123.229 276.163 123.849 276.163ZM127.392 276.79C126.644 276.79 126.075 276.297 126.075 275.346V273.078H126.802V275.256C126.802 275.839 127.095 276.139 127.602 276.139C128.095 276.139 128.477 275.849 128.477 275.174V273.078H129.204V276.718H128.491V276.17C128.243 276.583 127.874 276.79 127.392 276.79ZM129.883 276.718V273.078H130.579V273.668H130.593C130.728 273.271 131.01 273.034 131.472 273.034C131.582 273.034 131.679 273.044 131.737 273.051V273.73C131.682 273.719 131.524 273.695 131.355 273.695C130.945 273.695 130.61 273.974 130.61 274.567V276.718H129.883ZM133.643 276.8C132.602 276.8 131.906 276.018 131.906 274.905C131.906 273.785 132.606 272.996 133.643 272.996C134.512 272.996 135.146 273.551 135.235 274.323H134.512C134.436 273.912 134.139 273.623 133.647 273.623C133.019 273.623 132.644 274.126 132.644 274.905C132.644 275.677 133.016 276.173 133.647 276.173C134.146 276.173 134.405 275.894 134.501 275.47H135.235C135.153 276.228 134.512 276.8 133.643 276.8ZM136.442 274.622V276.718H135.714V271.583H136.442V273.602C136.69 273.206 137.055 273.006 137.527 273.006C138.275 273.006 138.843 273.499 138.843 274.45V276.718H138.116V274.54C138.116 273.957 137.823 273.657 137.32 273.657C136.824 273.657 136.442 273.947 136.442 274.622ZM140.632 276.776C139.908 276.776 139.371 276.404 139.371 275.677C139.371 274.846 140.067 274.667 140.808 274.581C141.49 274.498 141.718 274.505 141.718 274.24V274.209C141.718 273.857 141.445 273.602 140.984 273.602C140.518 273.602 140.201 273.854 140.174 274.188H139.46C139.495 273.495 140.084 273.006 140.994 273.006C141.89 273.006 142.438 273.482 142.438 274.223V276.718H141.721V276.201H141.707C141.556 276.494 141.259 276.776 140.632 276.776ZM140.78 276.19C141.421 276.19 141.721 275.804 141.721 275.356V274.929C141.621 275.008 141.235 275.067 140.849 275.122C140.453 275.181 140.094 275.322 140.094 275.691C140.094 276.004 140.356 276.19 140.78 276.19ZM144.464 276.804C143.63 276.804 142.996 276.4 142.945 275.611H143.661C143.703 276.004 143.978 276.225 144.45 276.225C144.912 276.225 145.198 276.015 145.198 275.725C145.198 275.477 144.988 275.332 144.674 275.263L144.071 275.129C143.386 274.977 143.027 274.629 143.027 274.088C143.027 273.444 143.585 272.999 144.419 272.999C145.24 272.999 145.825 273.454 145.846 274.188H145.15C145.143 273.833 144.861 273.575 144.43 273.575C144.016 273.575 143.754 273.795 143.754 274.074C143.754 274.319 143.951 274.467 144.278 274.543L144.898 274.681C145.608 274.839 145.932 275.156 145.932 275.684C145.932 276.376 145.312 276.804 144.464 276.804ZM147.99 276.8C146.911 276.8 146.256 276.004 146.256 274.905C146.256 273.795 146.959 272.996 147.952 272.996C148.982 272.996 149.651 273.775 149.651 274.898V275.094H146.973C146.997 275.749 147.363 276.194 148 276.194C148.476 276.194 148.793 275.956 148.896 275.611H149.596C149.461 276.314 148.813 276.8 147.99 276.8ZM146.98 274.543H148.941C148.882 273.964 148.51 273.602 147.959 273.602C147.411 273.602 147.042 273.964 146.98 274.543Z" fill="#828C95"/>
<path d="M229.07 245.899V245.433L230.757 243.464C231.265 242.871 231.463 242.646 231.463 242.229C231.463 241.749 231.173 241.411 230.58 241.411C230.002 241.411 229.656 241.742 229.656 242.342H229.056C229.056 241.481 229.613 240.874 230.58 240.874C231.519 240.874 232.077 241.453 232.077 242.208C232.077 242.759 231.78 243.126 231.166 243.838L229.889 245.32V245.349H232.154V245.899H229.07ZM236.474 245.963C235.529 245.963 234.95 245.257 234.943 244.092C234.95 243.027 235.458 242.229 236.474 242.229C237.011 242.229 237.371 242.476 237.561 242.794H237.589V240.677H238.182V245.899H237.667L237.589 245.398H237.561C237.371 245.716 237.011 245.963 236.474 245.963ZM236.573 245.433C237.293 245.433 237.604 244.812 237.604 244.092C237.604 243.38 237.293 242.759 236.573 242.759C235.825 242.759 235.543 243.373 235.543 244.092C235.543 244.819 235.825 245.433 236.573 245.433ZM240.285 245.963C239.501 245.963 239.028 245.476 239.028 244.848C239.028 244.241 239.459 243.718 240.517 243.718C240.899 243.718 241.181 243.782 241.407 243.845V243.485C241.407 243.083 241.16 242.737 240.574 242.737C240.045 242.737 239.783 243.034 239.776 243.38H239.205C239.205 242.688 239.783 242.229 240.574 242.229C241.498 242.229 241.985 242.787 241.985 243.471V245.899H241.484L241.442 245.391H241.414C241.195 245.758 240.793 245.963 240.285 245.963ZM240.39 245.469C241.004 245.469 241.407 245.024 241.407 244.502V244.318C241.11 244.227 240.835 244.191 240.517 244.191C239.932 244.191 239.628 244.417 239.628 244.841C239.628 245.2 239.868 245.469 240.39 245.469ZM243.39 247.515V247.445L244.004 245.871L243.997 245.857L242.55 242.363V242.293H243.186L244.28 245.123H244.308L245.366 242.293H245.987V242.363L243.99 247.515H243.39ZM247.888 245.963C247.034 245.963 246.435 245.497 246.413 244.706H247.006C247.006 245.186 247.373 245.433 247.888 245.433C248.397 245.433 248.714 245.264 248.714 244.918C248.714 244.678 248.552 244.488 248.164 244.403L247.444 244.269C246.851 244.149 246.526 243.789 246.526 243.26C246.526 242.66 247.041 242.229 247.839 242.229C248.651 242.229 249.229 242.674 249.229 243.394H248.651C248.629 242.935 248.291 242.73 247.839 242.73C247.401 242.73 247.098 242.907 247.098 243.26C247.098 243.542 247.331 243.704 247.726 243.768L248.291 243.874C248.968 244.029 249.314 244.297 249.314 244.918C249.314 245.582 248.665 245.963 247.888 245.963ZM253.249 245.963C252.466 245.963 251.993 245.476 251.993 244.848C251.993 244.241 252.423 243.718 253.482 243.718C253.863 243.718 254.145 243.782 254.371 243.845V243.485C254.371 243.083 254.124 242.737 253.538 242.737C253.009 242.737 252.748 243.034 252.741 243.38H252.169C252.169 242.688 252.748 242.229 253.538 242.229C254.463 242.229 254.95 242.787 254.95 243.471V245.899H254.449L254.406 245.391H254.378C254.159 245.758 253.757 245.963 253.249 245.963ZM253.355 245.469C253.969 245.469 254.371 245.024 254.371 244.502V244.318C254.075 244.227 253.799 244.191 253.482 244.191C252.896 244.191 252.593 244.417 252.593 244.841C252.593 245.2 252.833 245.469 253.355 245.469ZM257.44 247.579C256.515 247.579 255.923 247.05 255.901 246.358H256.473C256.501 246.704 256.776 247.071 257.44 247.071C258.132 247.071 258.442 246.64 258.442 246.097V245.398H258.414C258.223 245.716 257.863 245.963 257.327 245.963C256.311 245.963 255.803 245.165 255.795 244.099C255.803 242.935 256.381 242.229 257.327 242.229C257.863 242.229 258.223 242.476 258.414 242.794H258.442L258.52 242.293H259.035V246.111C259.035 246.937 258.47 247.579 257.44 247.579ZM257.426 245.433C258.146 245.433 258.456 244.812 258.456 244.099C258.456 243.38 258.146 242.759 257.426 242.759C256.678 242.759 256.395 243.373 256.395 244.099C256.395 244.819 256.678 245.433 257.426 245.433ZM261.511 245.963C260.382 245.963 259.881 245.137 259.881 244.099C259.881 243.062 260.396 242.229 261.511 242.229C262.626 242.229 263.141 243.062 263.141 244.099C263.141 245.13 262.64 245.963 261.511 245.963ZM261.511 245.433C262.245 245.433 262.542 244.876 262.542 244.099C262.542 243.323 262.245 242.759 261.511 242.759C260.777 242.759 260.481 243.33 260.481 244.099C260.481 244.876 260.784 245.433 261.511 245.433Z" fill="#515F6A"/>
<path d="M231.514 276.545C230.505 276.545 229.884 275.91 229.884 275.085H230.483C230.483 275.593 230.858 276.009 231.514 276.009C232.262 276.009 232.551 275.529 232.551 274.887C232.551 274.266 232.234 273.786 231.521 273.786C231.048 273.786 230.78 274.012 230.589 274.273H229.968L230.159 271.542H232.925V272.085H230.681L230.568 273.659H230.596C230.78 273.461 231.09 273.257 231.613 273.257C232.608 273.257 233.158 273.948 233.158 274.866C233.158 275.861 232.622 276.545 231.514 276.545ZM237.474 276.545C236.529 276.545 235.95 275.84 235.943 274.675C235.95 273.61 236.458 272.812 237.474 272.812C238.011 272.812 238.371 273.059 238.561 273.377H238.589V271.259H239.182V276.482H238.667L238.589 275.981H238.561C238.371 276.298 238.011 276.545 237.474 276.545ZM237.573 276.016C238.293 276.016 238.604 275.395 238.604 274.675C238.604 273.962 238.293 273.341 237.573 273.341C236.825 273.341 236.543 273.955 236.543 274.675C236.543 275.402 236.825 276.016 237.573 276.016ZM241.285 276.545C240.501 276.545 240.028 276.058 240.028 275.43C240.028 274.823 240.459 274.301 241.517 274.301C241.899 274.301 242.181 274.365 242.407 274.428V274.068C242.407 273.666 242.16 273.32 241.574 273.32C241.045 273.32 240.783 273.617 240.776 273.962H240.205C240.205 273.271 240.783 272.812 241.574 272.812C242.498 272.812 242.985 273.37 242.985 274.054V276.482H242.484L242.442 275.974H242.414C242.195 276.341 241.793 276.545 241.285 276.545ZM241.39 276.051C242.004 276.051 242.407 275.607 242.407 275.085V274.901C242.11 274.809 241.835 274.774 241.517 274.774C240.932 274.774 240.628 275 240.628 275.423C240.628 275.783 240.868 276.051 241.39 276.051ZM244.39 278.098V278.028L245.004 276.454L244.997 276.44L243.55 272.946V272.876H244.186L245.28 275.706H245.308L246.366 272.876H246.987V272.946L244.99 278.098H244.39ZM248.888 276.545C248.034 276.545 247.435 276.08 247.413 275.289H248.006C248.006 275.769 248.373 276.016 248.888 276.016C249.397 276.016 249.714 275.847 249.714 275.501C249.714 275.261 249.552 275.07 249.164 274.986L248.444 274.852C247.851 274.732 247.526 274.372 247.526 273.842C247.526 273.243 248.041 272.812 248.839 272.812C249.651 272.812 250.229 273.257 250.229 273.977H249.651C249.629 273.518 249.291 273.313 248.839 273.313C248.401 273.313 248.098 273.49 248.098 273.842C248.098 274.125 248.331 274.287 248.726 274.351L249.291 274.456C249.968 274.612 250.314 274.88 250.314 275.501C250.314 276.164 249.665 276.545 248.888 276.545ZM254.249 276.545C253.466 276.545 252.993 276.058 252.993 275.43C252.993 274.823 253.423 274.301 254.482 274.301C254.863 274.301 255.145 274.365 255.371 274.428V274.068C255.371 273.666 255.124 273.32 254.538 273.32C254.009 273.32 253.748 273.617 253.741 273.962H253.169C253.169 273.271 253.748 272.812 254.538 272.812C255.463 272.812 255.95 273.37 255.95 274.054V276.482H255.449L255.406 275.974H255.378C255.159 276.341 254.757 276.545 254.249 276.545ZM254.355 276.051C254.969 276.051 255.371 275.607 255.371 275.085V274.901C255.075 274.809 254.799 274.774 254.482 274.774C253.896 274.774 253.593 275 253.593 275.423C253.593 275.783 253.833 276.051 254.355 276.051ZM258.44 278.162C257.515 278.162 256.923 277.632 256.901 276.941H257.473C257.501 277.286 257.776 277.653 258.44 277.653C259.132 277.653 259.442 277.223 259.442 276.68V275.981H259.414C259.223 276.298 258.863 276.545 258.327 276.545C257.311 276.545 256.803 275.748 256.795 274.682C256.803 273.518 257.381 272.812 258.327 272.812C258.863 272.812 259.223 273.059 259.414 273.377H259.442L259.52 272.876H260.035V276.694C260.035 277.519 259.47 278.162 258.44 278.162ZM258.426 276.016C259.146 276.016 259.456 275.395 259.456 274.682C259.456 273.962 259.146 273.341 258.426 273.341C257.678 273.341 257.395 273.955 257.395 274.682C257.395 275.402 257.678 276.016 258.426 276.016ZM262.511 276.545C261.382 276.545 260.881 275.72 260.881 274.682C260.881 273.645 261.396 272.812 262.511 272.812C263.626 272.812 264.141 273.645 264.141 274.682C264.141 275.713 263.64 276.545 262.511 276.545ZM262.511 276.016C263.245 276.016 263.542 275.459 263.542 274.682C263.542 273.906 263.245 273.341 262.511 273.341C261.777 273.341 261.481 273.913 261.481 274.682C261.481 275.459 261.784 276.016 262.511 276.016Z" fill="#828C95"/>
<g filter="url(#filter4_bdi_1_19195)">
<rect x="13.5308" y="225.263" width="37.6403" height="37.6403" rx="9.41007" transform="rotate(-10 13.5308 225.263)" fill="white" fill-opacity="0.1" shape-rendering="crispEdges"/>
<rect x="13.8714" y="225.501" width="37.0522" height="37.0522" rx="9.11601" transform="rotate(-10 13.8714 225.501)" stroke="url(#paint4_linear_1_19195)" stroke-opacity="0.2" stroke-width="0.58813" shape-rendering="crispEdges"/>
<g opacity="0.6">
<path d="M41.9124 232.849L35.8308 233.922C35.4746 233.985 35.1272 233.741 35.0644 233.385C35.0015 233.029 35.2449 232.681 35.6011 232.619L41.6826 231.546C42.0388 231.483 42.3863 231.727 42.4491 232.083C42.5119 232.439 42.2686 232.787 41.9124 232.849Z" fill="url(#paint5_linear_1_19195)" stroke="white" stroke-width="0.58813"/>
<path d="M42.6784 237.193L36.5968 238.265C36.2406 238.328 35.8932 238.085 35.8303 237.729C35.7675 237.373 36.0108 237.025 36.367 236.962L42.4486 235.89C42.8048 235.827 43.1523 236.07 43.2151 236.427C43.2779 236.783 43.0346 237.13 42.6784 237.193Z" fill="url(#paint6_linear_1_19195)" stroke="white" stroke-width="0.58813"/>
<path d="M43.4443 241.537L27.8061 244.294C27.4499 244.357 27.1024 244.114 27.0396 243.758C26.9768 243.402 27.2201 243.054 27.5763 242.991L43.2145 240.234C43.5707 240.171 43.9182 240.414 43.981 240.771C44.0438 241.127 43.8005 241.474 43.4443 241.537Z" fill="url(#paint7_linear_1_19195)" stroke="white" stroke-width="0.58813"/>
<path d="M44.2103 245.881L28.5721 248.638C28.2159 248.701 27.8684 248.458 27.8056 248.102C27.7428 247.746 27.9861 247.398 28.3423 247.335L43.9805 244.578C44.3367 244.515 44.6842 244.758 44.747 245.115C44.8098 245.471 44.5665 245.818 44.2103 245.881Z" fill="url(#paint8_linear_1_19195)" stroke="white" stroke-width="0.58813"/>
<path d="M30.2806 233.333L27.8132 233.768C26.5969 233.982 26.1103 234.677 26.3247 235.894L26.7613 238.37C26.9758 239.586 27.6708 240.072 28.8871 239.858L31.3631 239.421C32.5794 239.207 33.066 238.512 32.8516 237.296L32.415 234.82C32.1918 233.605 31.4969 233.118 30.2806 233.333Z" fill="url(#paint9_linear_1_19195)" stroke="white" stroke-width="0.58813"/>
</g>
</g>
<g filter="url(#filter5_bdi_1_19195)">
<rect x="107.991" y="6.41187" width="37.6403" height="37.6403" rx="9.41007" transform="rotate(10 107.991 6.41187)" fill="white" fill-opacity="0.1" shape-rendering="crispEdges"/>
<rect x="108.23" y="6.75253" width="37.0522" height="37.0522" rx="9.11601" transform="rotate(10 108.23 6.75253)" stroke="url(#paint10_linear_1_19195)" stroke-opacity="0.2" stroke-width="0.58813" shape-rendering="crispEdges"/>
<g opacity="0.6">
<path d="M126.965 21.1161L121.943 20.2306C121.596 20.1694 121.367 19.8423 121.428 19.4948C121.489 19.1473 121.818 18.9096 122.165 18.9709L127.187 19.8563C127.534 19.9176 127.763 20.2447 127.702 20.5922C127.641 20.9397 127.312 21.1774 126.965 21.1161Z" fill="url(#paint11_linear_1_19195)"/>
<path d="M127.016 20.8265L121.994 19.941C121.807 19.908 121.684 19.7335 121.718 19.5459C121.752 19.3531 121.932 19.2283 122.114 19.2605L127.136 20.1459C127.323 20.179 127.446 20.3535 127.413 20.5411C127.379 20.7339 127.198 20.8587 127.016 20.8265Z" stroke="white" stroke-opacity="0.5" stroke-width="0.58813"/>
<path d="M123.661 35.3321L124.111 32.7779C124.389 31.2054 125.635 30.3323 127.208 30.6096L129.762 31.06C129.962 31.0952 130.15 31.1463 130.326 31.2132C130.381 31.0078 130.435 30.8023 130.473 30.5851C131.207 26.4236 128.423 22.4481 124.27 21.7159C120.117 20.9836 116.142 23.7673 115.408 27.9288C114.676 32.0816 117.46 36.0571 121.612 36.7894C122.351 36.9196 123.076 36.9221 123.787 36.8504C123.616 36.3992 123.563 35.8882 123.661 35.3321ZM123.643 29.0852C123.58 29.4414 123.232 29.6847 122.876 29.6219C122.52 29.5591 122.277 29.2116 122.339 28.8554L123.105 24.5114C123.168 24.1552 123.516 23.9119 123.872 23.9747C124.228 24.0375 124.471 24.385 124.409 24.7412L123.643 29.0852Z" fill="url(#paint12_linear_1_19195)"/>
<path d="M123.822 32.7268L123.371 35.2811C123.29 35.7434 123.304 36.1818 123.4 36.5871C122.826 36.6227 122.248 36.6029 121.663 36.4998C117.671 35.7958 114.994 31.9728 115.698 27.9799C116.403 23.9781 120.226 21.3014 124.219 22.0055C128.212 22.7095 130.889 26.5323 130.183 30.5341C130.165 30.6368 130.143 30.7371 130.119 30.8379C130.02 30.8113 129.918 30.7888 129.813 30.7704L127.259 30.32C126.406 30.1696 125.62 30.3287 125.005 30.7592C124.39 31.1897 123.972 31.874 123.822 32.7268ZM122.825 29.9115C123.341 30.0025 123.841 29.6524 123.932 29.1362L124.698 24.7923C124.789 24.2761 124.439 23.7761 123.923 23.6851C123.407 23.5941 122.907 23.9442 122.816 24.4604L122.05 28.8043C121.959 29.3205 122.309 29.8205 122.825 29.9115Z" stroke="white" stroke-opacity="0.5" stroke-width="0.58813"/>
<path d="M129.609 31.9288L127.063 31.48C125.951 31.2839 125.175 31.8278 124.98 32.9311L124.53 35.4854C124.335 36.5887 124.879 37.3654 125.991 37.5615L128.537 38.0104C129.64 38.2049 130.417 37.6611 130.611 36.5577L131.062 34.0035C131.256 32.9001 130.712 32.1234 129.609 31.9288ZM127.053 36.0109C127.004 36.2889 126.738 36.475 126.451 36.4244C126.173 36.3754 125.987 36.1097 126.036 35.8317L126.514 33.121C126.563 32.843 126.829 32.657 127.107 32.706C127.394 32.7565 127.58 33.0222 127.531 33.3003L127.053 36.0109ZM129.077 36.3678C129.028 36.6458 128.762 36.8319 128.484 36.7829C128.206 36.7338 128.012 36.4666 128.061 36.1886L128.538 33.478C128.588 33.1999 128.862 33.0154 129.14 33.0644C129.418 33.1135 129.604 33.3792 129.555 33.6572L129.077 36.3678Z" fill="url(#paint13_linear_1_19195)"/>
<path d="M127.012 31.7696L129.558 32.2184C130.052 32.3055 130.386 32.5157 130.581 32.794C130.776 33.0724 130.859 33.4586 130.772 33.9524L130.322 36.5067C130.235 37.0005 130.024 37.335 129.746 37.5299C129.468 37.7248 129.081 37.8079 128.588 37.7208L126.042 37.2719C125.543 37.184 125.207 36.9731 125.011 36.6946C124.815 36.4162 124.732 36.0302 124.819 35.5364L125.27 32.9822C125.357 32.4884 125.567 32.1541 125.846 31.9595C126.125 31.7647 126.514 31.6816 127.012 31.7696ZM126.4 36.714C126.844 36.7922 127.265 36.5031 127.342 36.0619L127.82 33.3513C127.898 32.9101 127.601 32.4946 127.158 32.4164C126.72 32.3392 126.302 32.632 126.225 33.07L125.747 35.7806C125.669 36.2185 125.962 36.6368 126.4 36.714ZM128.433 37.0725C128.871 37.1497 129.289 36.8568 129.367 36.4189L129.845 33.7083C129.922 33.2703 129.629 32.8521 129.191 32.7748C128.76 32.6988 128.327 32.9826 128.249 33.4269L127.771 36.1375C127.693 36.5819 128.002 36.9964 128.433 37.0725Z" stroke="white" stroke-opacity="0.5" stroke-width="0.58813"/>
</g>
</g>
<g filter="url(#filter6_bdi_1_19195)">
<rect x="298.424" y="264.955" width="37.6403" height="37.6403" rx="9.41007" transform="rotate(10 298.424 264.955)" fill="white" fill-opacity="0.1" shape-rendering="crispEdges"/>
<rect x="298.663" y="265.296" width="37.0522" height="37.0522" rx="9.11601" transform="rotate(10 298.663 265.296)" stroke="url(#paint14_linear_1_19195)" stroke-opacity="0.2" stroke-width="0.58813" shape-rendering="crispEdges"/>
<g opacity="0.6">
<path d="M318.998 280.04L319.237 278.684C319.299 278.328 319.056 277.981 318.7 277.918C318.344 277.855 317.996 278.098 317.933 278.455L317.704 279.758L312.056 278.762L312.286 277.459C312.349 277.103 312.106 276.755 311.75 276.692C311.393 276.63 311.046 276.873 310.983 277.229L310.744 278.584C308.36 278.388 306.975 279.586 306.435 281.632C306.374 281.881 306.545 282.126 306.789 282.169L321.489 284.761C321.741 284.805 321.987 284.625 322.004 284.377C322.197 282.27 321.305 280.671 318.998 280.04Z" fill="url(#paint15_linear_1_19195)"/>
<path d="M318.708 279.989L318.661 280.253L318.92 280.323C320.021 280.624 320.753 281.147 321.192 281.816C321.634 282.488 321.803 283.343 321.711 284.35L321.711 284.35L321.711 284.357C321.709 284.386 321.693 284.417 321.66 284.442C321.625 284.468 321.582 284.479 321.54 284.471L306.84 281.879C306.756 281.865 306.703 281.779 306.72 281.704C306.979 280.728 307.43 279.983 308.074 279.503C308.716 279.024 309.583 278.784 310.72 278.877L310.987 278.899L311.034 278.635L311.273 277.28C311.307 277.084 311.502 276.947 311.698 276.982C311.895 277.017 312.031 277.212 311.997 277.408L311.767 278.711L311.716 279.001L312.005 279.052L317.653 280.047L317.942 280.098L317.993 279.809L318.223 278.506C318.258 278.309 318.453 278.173 318.649 278.208C318.845 278.242 318.982 278.437 318.947 278.633L318.708 279.989Z" stroke="white" stroke-opacity="0.5" stroke-width="0.58813"/>
<path d="M320.859 285.994L306.959 283.543C306.481 283.458 306.021 283.78 305.937 284.258L304.993 289.61C304.533 292.216 305.53 294.184 308.571 294.72L315.521 295.945C318.562 296.482 320.172 294.974 320.631 292.367L321.575 287.016C321.659 286.538 321.337 286.078 320.859 285.994ZM310.203 291.613C310.153 291.64 310.102 291.675 310.054 291.694C309.996 291.719 309.939 291.736 309.884 291.744C309.827 291.761 309.772 291.769 309.718 291.769C309.656 291.767 309.602 291.766 309.541 291.756C309.428 291.736 309.32 291.69 309.224 291.628C309.118 291.565 309.042 291.488 308.969 291.395C308.842 291.202 308.786 290.96 308.826 290.734C308.866 290.508 309.001 290.299 309.187 290.161C309.287 290.098 309.385 290.053 309.505 290.029C309.674 289.987 309.851 290.001 310.019 290.066C310.069 290.084 310.118 290.111 310.166 290.146C310.215 290.172 310.262 290.208 310.308 290.252C310.346 290.294 310.383 290.336 310.42 290.379C310.548 290.571 310.603 290.814 310.563 291.04C310.524 291.266 310.388 291.475 310.203 291.613ZM310.739 288.572C310.546 288.699 310.303 288.755 310.078 288.715C309.852 288.675 309.643 288.54 309.505 288.354C309.378 288.162 309.322 287.919 309.362 287.693C309.402 287.467 309.537 287.258 309.723 287.121C310.009 286.92 310.405 286.909 310.702 287.105C310.807 287.168 310.892 287.246 310.956 287.338C311.084 287.531 311.139 287.773 311.1 287.999C311.06 288.225 310.924 288.434 310.739 288.572ZM313.243 292.149C313.051 292.276 312.808 292.332 312.582 292.292C312.356 292.252 312.147 292.117 312.01 291.931C311.883 291.739 311.827 291.496 311.867 291.27C311.906 291.044 312.042 290.835 312.227 290.697C312.605 290.433 313.196 290.537 313.461 290.915C313.588 291.108 313.644 291.35 313.604 291.576C313.564 291.802 313.429 292.011 313.243 292.149ZM313.78 289.108C313.73 289.135 313.681 289.162 313.631 289.189C313.573 289.215 313.516 289.232 313.461 289.24C313.404 289.257 313.349 289.265 313.295 289.264C313.233 289.262 313.179 289.262 313.118 289.251C312.892 289.211 312.683 289.076 312.546 288.89C312.419 288.698 312.363 288.455 312.403 288.229C312.443 288.003 312.578 287.794 312.763 287.657C312.855 287.592 312.962 287.548 313.082 287.525C313.428 287.442 313.797 287.588 313.997 287.874C314.124 288.067 314.18 288.31 314.14 288.535C314.101 288.761 313.965 288.97 313.78 289.108ZM316.284 292.685C316.092 292.812 315.849 292.868 315.623 292.828C315.397 292.788 315.188 292.653 315.051 292.467C314.923 292.275 314.868 292.032 314.907 291.806C314.947 291.58 315.083 291.371 315.268 291.234C315.646 290.969 316.237 291.073 316.502 291.451C316.629 291.644 316.685 291.887 316.645 292.112C316.605 292.338 316.47 292.547 316.284 292.685ZM316.82 289.644C316.771 289.671 316.721 289.698 316.672 289.725C316.613 289.751 316.557 289.768 316.502 289.776C316.445 289.793 316.39 289.801 316.336 289.801C316.274 289.798 316.211 289.796 316.159 289.787C315.933 289.747 315.724 289.612 315.587 289.427C315.459 289.234 315.404 288.991 315.444 288.765C315.483 288.539 315.619 288.33 315.804 288.193C315.905 288.13 316.003 288.084 316.123 288.061C316.292 288.019 316.469 288.032 316.636 288.098C316.687 288.116 316.736 288.142 316.783 288.177C316.832 288.204 316.88 288.239 316.926 288.283C316.963 288.326 317.001 288.368 317.038 288.41C317.165 288.603 317.221 288.846 317.181 289.072C317.141 289.298 317.006 289.507 316.82 289.644Z" fill="url(#paint16_linear_1_19195)"/>
<path d="M310.344 291.871L310.362 291.861L310.378 291.849C310.62 291.669 310.799 291.396 310.853 291.091C310.907 290.786 310.832 290.468 310.666 290.217L310.654 290.2L310.641 290.185L310.529 290.057L310.521 290.048L310.511 290.039C310.454 289.984 310.392 289.936 310.324 289.898C310.261 289.853 310.194 289.817 310.121 289.791C309.904 289.707 309.669 289.687 309.442 289.742C309.28 289.775 309.15 289.837 309.031 289.912L309.021 289.918L309.011 289.925C308.77 290.104 308.59 290.378 308.536 290.683C308.482 290.988 308.558 291.306 308.724 291.557L308.73 291.567L308.737 291.576C308.825 291.688 308.926 291.791 309.068 291.878C309.192 291.956 309.335 292.018 309.49 292.045C309.567 292.059 309.637 292.061 309.689 292.062C309.696 292.062 309.703 292.063 309.709 292.063L309.709 292.063L309.716 292.063C309.794 292.064 309.872 292.053 309.948 292.032C310.023 292.019 310.096 291.996 310.166 291.966C310.211 291.948 310.251 291.925 310.276 291.91C310.291 291.902 310.302 291.895 310.31 291.89C310.323 291.882 310.332 291.877 310.344 291.871ZM310.901 288.817L310.908 288.813L310.914 288.808C311.156 288.629 311.335 288.355 311.389 288.05C311.443 287.746 311.368 287.427 311.202 287.176L311.202 287.176L311.197 287.169C311.108 287.042 310.994 286.938 310.859 286.856C310.46 286.596 309.935 286.613 309.554 286.88L309.554 286.88L309.548 286.884C309.306 287.064 309.126 287.337 309.072 287.642C309.019 287.947 309.094 288.265 309.26 288.516L309.264 288.523L309.269 288.529C309.448 288.771 309.722 288.951 310.027 289.005C310.331 289.058 310.65 288.983 310.901 288.817ZM313.406 292.394L313.412 292.39L313.419 292.385C313.66 292.206 313.84 291.932 313.894 291.627C313.948 291.322 313.872 291.004 313.706 290.753L313.706 290.753L313.702 290.746C313.518 290.484 313.23 290.327 312.938 290.276C312.645 290.224 312.321 290.273 312.059 290.457L312.059 290.456L312.052 290.461C311.81 290.64 311.631 290.914 311.577 291.219C311.523 291.524 311.599 291.842 311.764 292.093L311.769 292.1L311.774 292.106C311.953 292.348 312.226 292.528 312.531 292.581C312.836 292.635 313.154 292.56 313.406 292.394ZM313.921 289.366L313.938 289.356L313.955 289.344C314.197 289.165 314.376 288.891 314.43 288.587C314.484 288.282 314.408 287.963 314.243 287.712L314.243 287.712L314.238 287.706C313.971 287.324 313.484 287.13 313.02 287.237C312.865 287.268 312.722 287.327 312.595 287.416L312.595 287.416L312.588 287.42C312.347 287.6 312.167 287.873 312.113 288.178C312.059 288.483 312.135 288.801 312.301 289.052L312.305 289.059L312.31 289.065C312.489 289.307 312.762 289.487 313.067 289.541C313.144 289.554 313.214 289.556 313.266 289.558C313.273 289.558 313.279 289.558 313.286 289.558L313.286 289.558L313.292 289.558C313.371 289.559 313.449 289.548 313.525 289.527C313.602 289.514 313.677 289.49 313.749 289.458L313.761 289.453L313.772 289.447L313.921 289.366ZM316.446 292.93L316.453 292.926L316.459 292.921C316.701 292.742 316.881 292.468 316.935 292.163C316.988 291.859 316.913 291.54 316.747 291.289L316.747 291.289L316.743 291.282C316.559 291.02 316.271 290.863 315.979 290.812C315.686 290.76 315.362 290.809 315.099 290.993L315.099 290.993L315.093 290.997C314.851 291.177 314.672 291.45 314.618 291.755C314.564 292.06 314.639 292.378 314.805 292.629L314.81 292.636L314.814 292.642C314.994 292.884 315.267 293.064 315.572 293.118C315.877 293.171 316.195 293.096 316.446 292.93ZM316.961 289.902L316.979 289.892L316.996 289.88C317.237 289.701 317.417 289.428 317.471 289.123C317.524 288.818 317.449 288.499 317.283 288.248L317.272 288.231L317.259 288.216L317.147 288.089L317.138 288.079L317.129 288.071C317.072 288.016 317.01 287.968 316.942 287.929C316.879 287.885 316.812 287.848 316.739 287.822C316.521 287.738 316.287 287.719 316.06 287.774C315.897 287.807 315.768 287.869 315.648 287.943L315.639 287.95L315.629 287.957C315.387 288.136 315.208 288.409 315.154 288.714C315.1 289.019 315.175 289.337 315.341 289.589L315.346 289.595L315.35 289.602C315.53 289.843 315.803 290.023 316.108 290.077C316.181 290.09 316.262 290.092 316.318 290.094L316.326 290.094L316.326 290.095L316.333 290.095C316.412 290.095 316.49 290.084 316.566 290.063C316.643 290.05 316.717 290.026 316.79 289.995L316.802 289.99L316.813 289.983L316.961 289.902ZM306.907 283.832L320.808 286.283C321.126 286.339 321.341 286.647 321.285 286.965L320.342 292.316C320.12 293.575 319.628 294.524 318.867 295.1C318.11 295.673 317.037 295.914 315.572 295.656L308.622 294.43C307.157 294.172 306.231 293.579 305.716 292.782C305.198 291.98 305.061 290.92 305.282 289.661L306.226 284.309C306.282 283.991 306.59 283.776 306.907 283.832Z" stroke="white" stroke-opacity="0.5" stroke-width="0.58813"/>
</g>
</g>
<defs>
<filter id="filter0_d_1_19195" x="206.73" y="91.1026" width="55.5252" height="22.4677" filterUnits="userSpaceOnUse" color-interpolation-filters="sRGB">
<feFlood flood-opacity="0" result="BackgroundImageFix"/>
<feColorMatrix in="SourceAlpha" type="matrix" values="0 0 0 0 0 0 0 0 0 0 0 0 0 0 0 0 0 0 127 0" result="hardAlpha"/>
<feOffset dx="2.35252" dy="2.35252"/>
<feGaussianBlur stdDeviation="2.35252"/>
<feComposite in2="hardAlpha" operator="out"/>
<feColorMatrix type="matrix" values="0 0 0 0 0.0235294 0 0 0 0 0.101961 0 0 0 0 0.164706 0 0 0 0.12 0"/>
<feBlend mode="normal" in2="BackgroundImageFix" result="effect1_dropShadow_1_19195"/>
<feBlend mode="normal" in="SourceGraphic" in2="effect1_dropShadow_1_19195" result="shape"/>
</filter>
<filter id="filter1_d_1_19195" x="248.487" y="138.741" width="55.5252" height="22.4677" filterUnits="userSpaceOnUse" color-interpolation-filters="sRGB">
<feFlood flood-opacity="0" result="BackgroundImageFix"/>
<feColorMatrix in="SourceAlpha" type="matrix" values="0 0 0 0 0 0 0 0 0 0 0 0 0 0 0 0 0 0 127 0" result="hardAlpha"/>
<feOffset dx="2.35252" dy="2.35252"/>
<feGaussianBlur stdDeviation="2.35252"/>
<feComposite in2="hardAlpha" operator="out"/>
<feColorMatrix type="matrix" values="0 0 0 0 0.0235294 0 0 0 0 0.101961 0 0 0 0 0.164706 0 0 0 0.12 0"/>
<feBlend mode="normal" in2="BackgroundImageFix" result="effect1_dropShadow_1_19195"/>
<feBlend mode="normal" in="SourceGraphic" in2="effect1_dropShadow_1_19195" result="shape"/>
</filter>
<filter id="filter2_di_1_19195" x="51.17" y="77.8697" width="20.5845" height="20.5844" filterUnits="userSpaceOnUse" color-interpolation-filters="sRGB">
<feFlood flood-opacity="0" result="BackgroundImageFix"/>
<feColorMatrix in="SourceAlpha" type="matrix" values="0 0 0 0 0 0 0 0 0 0 0 0 0 0 0 0 0 0 127 0" result="hardAlpha"/>
<feOffset/>
<feGaussianBlur stdDeviation="1.96043"/>
<feComposite in2="hardAlpha" operator="out"/>
<feColorMatrix type="matrix" values="0 0 0 0 0.0235294 0 0 0 0 0.101961 0 0 0 0 0.164706 0 0 0 0.12 0"/>
<feBlend mode="normal" in2="BackgroundImageFix" result="effect1_dropShadow_1_19195"/>
<feBlend mode="normal" in="SourceGraphic" in2="effect1_dropShadow_1_19195" result="shape"/>
<feColorMatrix in="SourceAlpha" type="matrix" values="0 0 0 0 0 0 0 0 0 0 0 0 0 0 0 0 0 0 127 0" result="hardAlpha"/>
<feOffset/>
<feGaussianBlur stdDeviation="0.980216"/>
<feComposite in2="hardAlpha" operator="arithmetic" k2="-1" k3="1"/>
<feColorMatrix type="matrix" values="0 0 0 0 0.0235294 0 0 0 0 0.101961 0 0 0 0 0.164706 0 0 0 0.15 0"/>
<feBlend mode="normal" in2="shape" result="effect2_innerShadow_1_19195"/>
</filter>
<filter id="filter3_di_1_19195" x="51.17" y="136.095" width="20.5845" height="20.5844" filterUnits="userSpaceOnUse" color-interpolation-filters="sRGB">
<feFlood flood-opacity="0" result="BackgroundImageFix"/>
<feColorMatrix in="SourceAlpha" type="matrix" values="0 0 0 0 0 0 0 0 0 0 0 0 0 0 0 0 0 0 127 0" result="hardAlpha"/>
<feOffset/>
<feGaussianBlur stdDeviation="1.96043"/>
<feComposite in2="hardAlpha" operator="out"/>
<feColorMatrix type="matrix" values="0 0 0 0 0.0235294 0 0 0 0 0.101961 0 0 0 0 0.164706 0 0 0 0.12 0"/>
<feBlend mode="normal" in2="BackgroundImageFix" result="effect1_dropShadow_1_19195"/>
<feBlend mode="normal" in="SourceGraphic" in2="effect1_dropShadow_1_19195" result="shape"/>
<feColorMatrix in="SourceAlpha" type="matrix" values="0 0 0 0 0 0 0 0 0 0 0 0 0 0 0 0 0 0 127 0" result="hardAlpha"/>
<feOffset/>
<feGaussianBlur stdDeviation="0.980216"/>
<feComposite in2="hardAlpha" operator="arithmetic" k2="-1" k3="1"/>
<feColorMatrix type="matrix" values="0 0 0 0 0.0235294 0 0 0 0 0.101961 0 0 0 0 0.164706 0 0 0 0.15 0"/>
<feBlend mode="normal" in2="shape" result="effect2_innerShadow_1_19195"/>
</filter>
<filter id="filter4_bdi_1_19195" x="-0.584347" y="211.669" width="71.8348" height="71.8347" filterUnits="userSpaceOnUse" color-interpolation-filters="sRGB">
<feFlood flood-opacity="0" result="BackgroundImageFix"/>
<feGaussianBlur in="BackgroundImageFix" stdDeviation="1.17626"/>
<feComposite in2="SourceAlpha" operator="in" result="effect1_backgroundBlur_1_19195"/>
<feColorMatrix in="SourceAlpha" type="matrix" values="0 0 0 0 0 0 0 0 0 0 0 0 0 0 0 0 0 0 127 0" result="hardAlpha"/>
<feOffset dy="7.05755"/>
<feGaussianBlur stdDeviation="7.05755"/>
<feComposite in2="hardAlpha" operator="out"/>
<feColorMatrix type="matrix" values="0 0 0 0 0.0509804 0 0 0 0 0.0509804 0 0 0 0 0.0705882 0 0 0 0.25 0"/>
<feBlend mode="normal" in2="effect1_backgroundBlur_1_19195" result="effect2_dropShadow_1_19195"/>
<feBlend mode="normal" in="SourceGraphic" in2="effect2_dropShadow_1_19195" result="shape"/>
<feColorMatrix in="SourceAlpha" type="matrix" values="0 0 0 0 0 0 0 0 0 0 0 0 0 0 0 0 0 0 127 0" result="hardAlpha"/>
<feOffset dy="-3.52878"/>
<feGaussianBlur stdDeviation="1.17626"/>
<feComposite in2="hardAlpha" operator="arithmetic" k2="-1" k3="1"/>
<feColorMatrix type="matrix" values="0 0 0 0 1 0 0 0 0 1 0 0 0 0 1 0 0 0 0.15 0"/>
<feBlend mode="normal" in2="shape" result="effect3_innerShadow_1_19195"/>
</filter>
<filter id="filter5_bdi_1_19195" x="87.34" y="-0.645689" width="71.8348" height="71.835" filterUnits="userSpaceOnUse" color-interpolation-filters="sRGB">
<feFlood flood-opacity="0" result="BackgroundImageFix"/>
<feGaussianBlur in="BackgroundImageFix" stdDeviation="1.17626"/>
<feComposite in2="SourceAlpha" operator="in" result="effect1_backgroundBlur_1_19195"/>
<feColorMatrix in="SourceAlpha" type="matrix" values="0 0 0 0 0 0 0 0 0 0 0 0 0 0 0 0 0 0 127 0" result="hardAlpha"/>
<feOffset dy="7.05755"/>
<feGaussianBlur stdDeviation="7.05755"/>
<feComposite in2="hardAlpha" operator="out"/>
<feColorMatrix type="matrix" values="0 0 0 0 0.0509804 0 0 0 0 0.0509804 0 0 0 0 0.0705882 0 0 0 0.25 0"/>
<feBlend mode="normal" in2="effect1_backgroundBlur_1_19195" result="effect2_dropShadow_1_19195"/>
<feBlend mode="normal" in="SourceGraphic" in2="effect2_dropShadow_1_19195" result="shape"/>
<feColorMatrix in="SourceAlpha" type="matrix" values="0 0 0 0 0 0 0 0 0 0 0 0 0 0 0 0 0 0 127 0" result="hardAlpha"/>
<feOffset dy="-3.52878"/>
<feGaussianBlur stdDeviation="1.17626"/>
<feComposite in2="hardAlpha" operator="arithmetic" k2="-1" k3="1"/>
<feColorMatrix type="matrix" values="0 0 0 0 1 0 0 0 0 1 0 0 0 0 1 0 0 0 0.15 0"/>
<feBlend mode="normal" in2="shape" result="effect3_innerShadow_1_19195"/>
</filter>
<filter id="filter6_bdi_1_19195" x="277.773" y="257.898" width="71.8348" height="71.835" filterUnits="userSpaceOnUse" color-interpolation-filters="sRGB">
<feFlood flood-opacity="0" result="BackgroundImageFix"/>
<feGaussianBlur in="BackgroundImageFix" stdDeviation="1.17626"/>
<feComposite in2="SourceAlpha" operator="in" result="effect1_backgroundBlur_1_19195"/>
<feColorMatrix in="SourceAlpha" type="matrix" values="0 0 0 0 0 0 0 0 0 0 0 0 0 0 0 0 0 0 127 0" result="hardAlpha"/>
<feOffset dy="7.05755"/>
<feGaussianBlur stdDeviation="7.05755"/>
<feComposite in2="hardAlpha" operator="out"/>
<feColorMatrix type="matrix" values="0 0 0 0 0.0509804 0 0 0 0 0.0509804 0 0 0 0 0.0705882 0 0 0 0.25 0"/>
<feBlend mode="normal" in2="effect1_backgroundBlur_1_19195" result="effect2_dropShadow_1_19195"/>
<feBlend mode="normal" in="SourceGraphic" in2="effect2_dropShadow_1_19195" result="shape"/>
<feColorMatrix in="SourceAlpha" type="matrix" values="0 0 0 0 0 0 0 0 0 0 0 0 0 0 0 0 0 0 127 0" result="hardAlpha"/>
<feOffset dy="-3.52878"/>
<feGaussianBlur stdDeviation="1.17626"/>
<feComposite in2="hardAlpha" operator="arithmetic" k2="-1" k3="1"/>
<feColorMatrix type="matrix" values="0 0 0 0 1 0 0 0 0 1 0 0 0 0 1 0 0 0 0.15 0"/>
<feBlend mode="normal" in2="shape" result="effect3_innerShadow_1_19195"/>
</filter>
<linearGradient id="paint0_linear_1_19195" x1="239.077" y1="91.9848" x2="239.077" y2="132.86" gradientUnits="userSpaceOnUse">
<stop stop-color="#33CFFF"/>
<stop offset="1" stop-color="#33CFFF" stop-opacity="0"/>
</linearGradient>
<linearGradient id="paint1_linear_1_19195" x1="239.077" y1="127.86" x2="239.077" y2="176.969" gradientUnits="userSpaceOnUse">
<stop stop-color="#907BFF" stop-opacity="0"/>
<stop offset="1" stop-color="#907BFF" stop-opacity="0.2"/>
</linearGradient>
<radialGradient id="paint2_radial_1_19195" cx="0" cy="0" r="1" gradientUnits="userSpaceOnUse" gradientTransform="translate(53.3754 72.4784) rotate(62.7232) scale(17.6456)">
<stop stop-color="white"/>
<stop offset="1" stop-color="#5B49E9"/>
</radialGradient>
<radialGradient id="paint3_radial_1_19195" cx="0" cy="0" r="1" gradientUnits="userSpaceOnUse" gradientTransform="translate(53.3754 130.703) rotate(62.7232) scale(17.6456)">
<stop stop-color="white"/>
<stop offset="1" stop-color="#5B49E9"/>
</radialGradient>
<linearGradient id="paint4_linear_1_19195" x1="32.3509" y1="225.263" x2="32.3509" y2="262.903" gradientUnits="userSpaceOnUse">
<stop stop-color="white"/>
<stop offset="1" stop-color="white" stop-opacity="0"/>
</linearGradient>
<linearGradient id="paint5_linear_1_19195" x1="38.6418" y1="232.082" x2="38.8716" y2="233.386" gradientUnits="userSpaceOnUse">
<stop stop-color="white"/>
<stop offset="1" stop-color="white" stop-opacity="0.5"/>
</linearGradient>
<linearGradient id="paint6_linear_1_19195" x1="39.4078" y1="236.426" x2="39.6376" y2="237.729" gradientUnits="userSpaceOnUse">
<stop stop-color="white"/>
<stop offset="1" stop-color="white" stop-opacity="0.5"/>
</linearGradient>
<linearGradient id="paint7_linear_1_19195" x1="35.3954" y1="241.613" x2="35.6252" y2="242.916" gradientUnits="userSpaceOnUse">
<stop stop-color="white"/>
<stop offset="1" stop-color="white" stop-opacity="0.5"/>
</linearGradient>
<linearGradient id="paint8_linear_1_19195" x1="36.1614" y1="245.957" x2="36.3912" y2="247.26" gradientUnits="userSpaceOnUse">
<stop stop-color="white"/>
<stop offset="1" stop-color="white" stop-opacity="0.5"/>
</linearGradient>
<linearGradient id="paint9_linear_1_19195" x1="29.0512" y1="233.549" x2="30.1251" y2="239.64" gradientUnits="userSpaceOnUse">
<stop stop-color="white"/>
<stop offset="1" stop-color="white" stop-opacity="0.5"/>
</linearGradient>
<linearGradient id="paint10_linear_1_19195" x1="126.811" y1="6.41187" x2="126.811" y2="44.0522" gradientUnits="userSpaceOnUse">
<stop stop-color="white"/>
<stop offset="1" stop-color="white" stop-opacity="0"/>
</linearGradient>
<linearGradient id="paint11_linear_1_19195" x1="124.676" y1="19.4136" x2="124.454" y2="20.6734" gradientUnits="userSpaceOnUse">
<stop stop-color="white"/>
<stop offset="1" stop-color="white" stop-opacity="0.5"/>
</linearGradient>
<linearGradient id="paint12_linear_1_19195" x1="124.27" y1="21.7159" x2="121.612" y2="36.7894" gradientUnits="userSpaceOnUse">
<stop stop-color="white"/>
<stop offset="1" stop-color="white" stop-opacity="0.5"/>
</linearGradient>
<linearGradient id="paint13_linear_1_19195" x1="128.332" y1="31.7037" x2="127.259" y2="37.7852" gradientUnits="userSpaceOnUse">
<stop stop-color="white"/>
<stop offset="1" stop-color="white" stop-opacity="0.5"/>
</linearGradient>
<linearGradient id="paint14_linear_1_19195" x1="317.244" y1="264.955" x2="317.244" y2="302.595" gradientUnits="userSpaceOnUse">
<stop stop-color="white"/>
<stop offset="1" stop-color="white" stop-opacity="0"/>
</linearGradient>
<linearGradient id="paint15_linear_1_19195" x1="315.225" y1="277.305" x2="314.139" y2="283.465" gradientUnits="userSpaceOnUse">
<stop stop-color="white"/>
<stop offset="1" stop-color="white" stop-opacity="0.5"/>
</linearGradient>
<linearGradient id="paint16_linear_1_19195" x1="313.909" y1="284.768" x2="312.046" y2="295.333" gradientUnits="userSpaceOnUse">
<stop stop-color="white"/>
<stop offset="1" stop-color="white" stop-opacity="0.5"/>
</linearGradient>
</defs>
</svg>
