<svg width="22" height="23" viewBox="0 0 22 23" fill="none" xmlns="http://www.w3.org/2000/svg">
<path d="M11.9416 2.35791C12.9728 2.36066 13.4962 2.36616 13.9481 2.37899L14.126 2.38541C14.3313 2.39274 14.5339 2.40191 14.7786 2.41291C15.754 2.45874 16.4195 2.61274 17.0034 2.83916C17.6084 3.07199 18.1181 3.38733 18.6277 3.89608C19.0938 4.35431 19.4545 4.90862 19.6846 5.52041C19.9111 6.10433 20.0651 6.76983 20.1109 7.74608C20.1219 7.98991 20.1311 8.19249 20.1384 8.39874L20.1439 8.57658C20.1576 9.02758 20.1631 9.55099 20.165 10.5822L20.1659 11.2661V12.4669C20.1681 13.1355 20.1611 13.8042 20.1448 14.4726L20.1393 14.6504C20.132 14.8567 20.1228 15.0592 20.1118 15.3031C20.066 16.2793 19.9101 16.9439 19.6846 17.5287C19.4552 18.1409 19.0944 18.6953 18.6277 19.1531C18.1694 19.619 17.6151 19.9797 17.0034 20.21C16.4195 20.4364 15.754 20.5904 14.7786 20.6362C14.5611 20.6465 14.3436 20.6557 14.126 20.6637L13.9481 20.6692C13.4962 20.6821 12.9728 20.6885 11.9416 20.6903L11.2577 20.6912H10.0578C9.38888 20.6936 8.71996 20.6865 8.05123 20.6702L7.87339 20.6647C7.65579 20.6564 7.43823 20.6469 7.22073 20.6362C6.24539 20.5904 5.57989 20.4364 4.99506 20.21C4.38334 19.9803 3.82926 19.6195 3.37164 19.1531C2.9051 18.695 2.5441 18.1407 2.31381 17.5287C2.08739 16.9448 1.93339 16.2793 1.88756 15.3031C1.87735 15.0856 1.86818 14.868 1.86006 14.6504L1.85548 14.4726C1.83858 13.8042 1.83094 13.1355 1.83256 12.4669V10.5822C1.83 9.91363 1.83672 9.24501 1.85273 8.57658L1.85914 8.39874C1.86648 8.19249 1.87564 7.98991 1.88664 7.74608C1.93248 6.76983 2.08648 6.10524 2.31289 5.52041C2.54308 4.90799 2.9048 4.35352 3.37256 3.89608C3.83006 3.42993 4.38378 3.06923 4.99506 2.83916C5.57989 2.61274 6.24448 2.45874 7.22073 2.41291C7.46456 2.40191 7.66806 2.39274 7.87339 2.38541L8.05123 2.37991C8.71965 2.36362 9.38827 2.3566 10.0569 2.35883L11.9416 2.35791ZM10.9992 6.94124C9.78365 6.94124 8.61786 7.42413 7.75832 8.28367C6.89878 9.14321 6.41589 10.309 6.41589 11.5246C6.41589 12.7402 6.89878 13.9059 7.75832 14.7655C8.61786 15.625 9.78365 16.1079 10.9992 16.1079C12.2148 16.1079 13.3806 15.625 14.2401 14.7655C15.0997 13.9059 15.5826 12.7402 15.5826 11.5246C15.5826 10.309 15.0997 9.14321 14.2401 8.28367C13.3806 7.42413 12.2148 6.94124 10.9992 6.94124ZM10.9992 8.77458C11.3604 8.77452 11.718 8.84559 12.0516 8.98373C12.3853 9.12188 12.6885 9.32439 12.9439 9.57971C13.1993 9.83503 13.4019 10.1382 13.5402 10.4718C13.6784 10.8054 13.7496 11.163 13.7497 11.5241C13.7497 11.8853 13.6787 12.2429 13.5405 12.5765C13.4024 12.9102 13.1999 13.2134 12.9446 13.4688C12.6892 13.7242 12.3861 13.9268 12.0525 14.0651C11.7189 14.2033 11.3613 14.2745 11.0001 14.2746C10.2708 14.2746 9.57132 13.9848 9.0556 13.4691C8.53988 12.9534 8.25014 12.2539 8.25014 11.5246C8.25014 10.7952 8.53988 10.0958 9.0556 9.58003C9.57132 9.06431 10.2708 8.77458 11.0001 8.77458M15.8126 5.56624C15.5087 5.56624 15.2173 5.68697 15.0024 5.90185C14.7875 6.11674 14.6668 6.40818 14.6668 6.71208C14.6668 7.01597 14.7875 7.30742 15.0024 7.5223C15.2173 7.73719 15.5087 7.85791 15.8126 7.85791C16.1165 7.85791 16.408 7.73719 16.6229 7.5223C16.8378 7.30742 16.9585 7.01597 16.9585 6.71208C16.9585 6.40818 16.8378 6.11674 16.6229 5.90185C16.408 5.68697 16.1165 5.56624 15.8126 5.56624Z" fill="#666D80"/>
</svg>
