<svg width="22" height="22" viewBox="0 0 28 28" fill="none" xmlns="http://www.w3.org/2000/svg">
<path fill-rule="evenodd" clip-rule="evenodd" d="M14.4432 2.04532C14.1508 1.98489 13.8492 1.98489 13.5568 2.04532C13.2188 2.11518 12.9167 2.28522 12.6766 2.4204L12.6111 2.45715L4.47141 7.00147C4.44891 7.01403 4.42572 7.02687 4.40196 7.04002C4.14772 7.18074 3.82806 7.35768 3.58258 7.62538C3.37034 7.85682 3.20972 8.13113 3.11147 8.42997C2.99782 8.77563 2.99915 9.14237 3.00021 9.43404C3.00031 9.4613 3.00041 9.48791 3.00041 9.51378V18.4862C3.00041 18.5121 3.00031 18.5387 3.00021 18.566C2.99915 18.8576 2.99782 19.2244 3.11147 19.57C3.20972 19.8689 3.37034 20.1432 3.58258 20.3746C3.82806 20.6423 4.14773 20.8193 4.40196 20.96C4.42572 20.9731 4.44891 20.986 4.47141 20.9985L12.6111 25.5429L12.6766 25.5796C12.9168 25.7148 13.2188 25.8848 13.5568 25.9547C13.8492 26.0151 14.1508 26.0151 14.4432 25.9547C14.7812 25.8848 15.0833 25.7148 15.3234 25.5796L15.3889 25.5429L23.5286 20.9985C23.5385 20.993 23.5486 20.9874 23.5588 20.9817C23.5717 20.9746 23.5848 20.9673 23.598 20.96C23.8523 20.8193 24.1719 20.6423 24.4174 20.3746C24.6297 20.1432 24.7903 19.8689 24.8885 19.57C25.0022 19.2244 25.0008 18.8576 24.9998 18.566C24.9997 18.5387 24.9996 18.5121 24.9996 18.4862V9.51377C24.9996 9.48791 24.9997 9.46131 24.9998 9.43405C25.0008 9.14237 25.0022 8.77563 24.8885 8.42997C24.7903 8.13113 24.6297 7.85682 24.4174 7.62537C24.1719 7.35767 23.8523 7.18073 23.598 7.04001L23.5971 7.03952C23.5737 7.02654 23.5508 7.01387 23.5286 7.00147L15.3889 2.45715L15.3234 2.42039C15.0833 2.28521 14.7812 2.11518 14.4432 2.04532ZM13.6795 4.38969C13.8462 4.29663 13.9313 4.24961 13.9947 4.21884L14 4.21631L14.0053 4.21884C14.0687 4.24961 14.1538 4.29663 14.3205 4.38969L21.6346 8.4731L14 12.7355L6.36533 8.47312L13.6795 4.38969ZM5.20032 10.3517L12.9 14.6504L12.9 23.1751L5.53979 19.066C5.36385 18.9678 5.27402 18.9171 5.211 18.8767L5.20567 18.8733L5.20528 18.867C5.20078 18.792 5.20032 18.6885 5.20032 18.4862V10.3517Z" fill="#000"/>
</svg>
