<svg width="119" height="34" viewBox="0 0 119 34" fill="none" xmlns="http://www.w3.org/2000/svg">
<g clip-path="url(#clip0_1_13357)">
<path fill-rule="evenodd" clip-rule="evenodd" d="M54.8451 20.7245C54.0195 20.915 53.5924 20.6609 53.5924 20.1141C53.5924 19.3648 54.3672 19.0648 55.474 19.0648C55.9608 19.0648 56.4201 19.1069 56.4201 19.1069C56.4201 19.4276 55.723 20.5221 54.8451 20.7245ZM55.6852 13.2226C53.0424 13.2226 51.1449 14.1945 51.1449 14.1945V17.0515C51.1449 17.0515 53.2398 15.8472 54.9395 15.8472C56.2954 15.8472 56.4621 16.5788 56.4006 17.1857C56.4006 17.1857 56.0092 17.0822 54.8158 17.0822C52.0027 17.0822 50.5832 18.3607 50.5832 20.4105C50.5832 22.3549 52.1786 23.1675 53.5232 23.1675C55.4846 23.1675 56.3473 21.849 56.6119 21.2237C56.7959 20.7899 56.8299 20.4974 56.9945 20.4974C57.1835 20.4974 57.1199 20.7072 57.1104 21.1389C57.0948 21.8953 57.1309 22.4669 57.2506 22.9488H59.8518V18.2699C59.8518 15.3487 58.8181 13.2226 55.6852 13.2226Z" fill="#818898"/>
<path fill-rule="evenodd" clip-rule="evenodd" d="M72.8055 18.1998C72.8055 17.3452 73.6 16.5669 75.0583 16.5669C76.647 16.5669 77.9255 17.3321 78.212 17.506V14.1986C78.212 14.1986 77.2024 13.2263 74.7206 13.2263C72.1046 13.2263 69.9259 14.7571 69.9259 18.0521C69.9259 21.3468 71.9032 23.174 74.7135 23.174C76.9092 23.174 78.2177 21.9675 78.2177 21.9675V18.8265C77.8036 19.0579 76.6502 19.8588 75.0742 19.8588C73.4057 19.8588 72.8055 19.0908 72.8055 18.1998ZM38.0392 13.4429C38.0396 13.445 38.2053 14.1558 37.987 15.0853C37.8757 15.558 37.6711 15.96 37.9181 15.96C38.0883 15.96 38.0887 15.8187 38.3102 15.3121C38.6342 14.5716 39.3171 13.2239 40.9128 13.2239C42.4298 13.2239 43.1445 14.1456 43.3812 15.0086C43.5614 15.6643 43.4038 15.96 43.6235 15.96C43.7797 15.96 43.8337 15.6198 44.0259 15.1895C44.3711 14.4186 45.1218 13.2239 46.6402 13.2239C48.9312 13.2239 49.8059 14.8783 49.8059 17.3601V22.9521H46.4024V17.7967C46.4024 16.9372 46.2636 16.1034 45.48 16.1034C44.754 16.1034 44.4156 17.3901 44.4156 18.2206V22.9542H40.9496V17.7971C40.9496 16.6973 40.7945 16.1038 40.0215 16.1038C39.3524 16.1038 38.962 17.2876 38.962 18.221V22.9525H35.5098V13.4429H38.0392ZM60.9847 13.456C60.9861 13.4567 61.5737 13.7955 62.714 13.7955C63.8565 13.7955 64.4366 13.456 64.4366 13.456V22.9546H60.9847V13.456ZM89.4834 13.456C89.4848 13.4567 90.0723 13.7955 91.2131 13.7955C92.3552 13.7955 92.9357 13.456 92.9357 13.456V22.9546H89.4834V13.456ZM69.0059 10.564V22.9546H65.5537V10.564H69.0059ZM82.3147 10.564C82.315 10.5651 82.4578 10.9212 82.4578 11.9803C82.4578 13.5443 82.1176 14.8171 81.9568 15.3022C81.8717 15.559 81.7198 15.9554 81.9377 15.9625C82.0635 15.9664 82.1391 15.777 82.2931 15.4485C82.4465 15.1196 83.2067 13.226 85.2049 13.226C87.9573 13.226 88.3621 15.4799 88.3621 17.9207V22.9542H84.9099V17.714C84.9099 16.6394 84.6845 16.1056 83.9641 16.1056C83.0944 16.1056 82.787 17.4523 82.787 18.2231V22.9542H79.3348V10.5637L82.3147 10.564ZM96.6313 13.4429C96.6317 13.445 96.7974 14.1558 96.579 15.0853C96.4678 15.558 96.2632 15.96 96.5102 15.96C96.6804 15.96 96.6808 15.8187 96.9023 15.3121C97.2259 14.5716 97.9091 13.2239 99.5049 13.2239C101.091 13.2239 101.72 14.1498 101.973 15.0086C102.143 15.5841 101.996 15.96 102.216 15.96C102.372 15.96 102.426 15.6198 102.618 15.1895C102.962 14.4186 103.714 13.2239 105.232 13.2239C107.523 13.2239 108.398 14.8783 108.398 17.3601V22.9521H104.995V17.7967C104.995 16.9372 104.856 16.1034 104.072 16.1034C103.346 16.1034 103.007 17.3901 103.007 18.2206V22.9542H99.5413V17.7971C99.5413 16.6973 99.3869 16.1038 98.6136 16.1038C97.9445 16.1038 97.5541 17.2876 97.5541 18.221V22.9525H94.1019V13.4429H96.6313ZM62.7003 10.4679C61.5337 10.4679 60.5873 11.0855 60.5873 11.8471C60.5873 12.6088 61.5334 13.2263 62.7003 13.2263C63.8675 13.2263 64.8136 12.6088 64.8136 11.8471C64.8136 11.0855 63.8679 10.4679 62.7003 10.4679ZM91.1993 10.4679C90.0324 10.4679 89.086 11.0855 89.086 11.8471C89.086 12.6088 90.0321 13.2263 91.1993 13.2263C92.3662 13.2263 93.3126 12.6088 93.3126 11.8471C93.3126 11.0855 92.3665 10.4679 91.1993 10.4679Z" fill="#818898"/>
<path fill-rule="evenodd" clip-rule="evenodd" d="M114.279 20.9054C113.487 20.9054 112.905 19.9018 112.905 18.5031C112.905 17.1448 113.503 16.1015 114.251 16.1015C115.211 16.1015 115.621 16.9823 115.621 18.5031C115.621 20.0855 115.243 20.9054 114.279 20.9054ZM115.226 13.2205C113.452 13.2205 112.638 14.5506 112.285 15.3084C112.051 15.809 112.064 15.9563 111.893 15.9563C111.647 15.9563 111.851 15.5543 111.962 15.0816C112.181 14.1507 112.015 13.4396 112.015 13.4396H109.487V25.5722H112.937V21.7257C113.346 22.4185 114.102 23.1586 115.268 23.1586C117.764 23.1586 119.02 21.0471 119.02 18.1943C119.02 14.9611 117.517 13.2205 115.226 13.2205" fill="#818898"/>
<path fill-rule="evenodd" clip-rule="evenodd" d="M23.3062 16.0913C23.5383 16.0638 23.7605 16.0624 23.9651 16.0913C24.0834 15.82 24.1036 15.3526 23.9972 14.8436C23.8393 14.0868 23.6252 13.629 23.1829 13.7004C22.7406 13.7717 22.7244 14.32 22.8826 15.0764C22.9717 15.5021 23.1299 15.866 23.3062 16.0913Z" fill="#818898"/>
<path fill-rule="evenodd" clip-rule="evenodd" d="M19.5116 16.6902C19.8278 16.829 20.0224 16.9212 20.0984 16.8407C20.1475 16.7905 20.1327 16.6948 20.0571 16.5715C19.9009 16.3168 19.5798 16.0582 19.2389 15.913C18.5422 15.613 17.7109 15.7127 17.0697 16.1733C16.8581 16.3284 16.6575 16.5432 16.6861 16.6736C16.6953 16.7156 16.7271 16.7474 16.8012 16.758C16.9758 16.7778 17.5855 16.4697 18.2882 16.4266C18.7839 16.3963 19.1951 16.5514 19.5116 16.6902Z" fill="#818898"/>
<path fill-rule="evenodd" clip-rule="evenodd" d="M18.8766 17.0534C18.4643 17.1184 18.2371 17.2544 18.0912 17.3805C17.9669 17.4893 17.8898 17.6098 17.8906 17.6942C17.8909 17.7345 17.9082 17.7578 17.922 17.7695C17.9407 17.7861 17.963 17.7953 17.9898 17.7953C18.0827 17.7953 18.2915 17.7116 18.2915 17.7116C18.8649 17.5063 19.2433 17.5314 19.6181 17.5738C19.8251 17.5971 19.9233 17.6098 19.9685 17.5388C19.982 17.5183 19.9982 17.4741 19.9569 17.407C19.8604 17.2505 19.4439 16.9859 18.8766 17.0534Z" fill="#818898"/>
<path fill-rule="evenodd" clip-rule="evenodd" d="M22.0257 18.3861C22.3055 18.5235 22.6136 18.4694 22.7139 18.2656C22.8143 18.0618 22.6687 17.7848 22.3889 17.6474C22.1091 17.5099 21.8011 17.564 21.7007 17.7678C21.6004 17.972 21.7459 18.2486 22.0257 18.3861Z" fill="#818898"/>
<path fill-rule="evenodd" clip-rule="evenodd" d="M23.8249 16.8144C23.5977 16.8105 23.4091 17.0599 23.4038 17.3719C23.3985 17.6838 23.5787 17.9393 23.8058 17.9431C24.033 17.947 24.2216 17.6976 24.2269 17.3857C24.2322 17.0741 24.052 16.8183 23.8249 16.8144Z" fill="#818898"/>
<path fill-rule="evenodd" clip-rule="evenodd" d="M8.5562 22.4349C8.49967 22.3639 8.40676 22.3854 8.31668 22.4066C8.25379 22.4215 8.18278 22.4377 8.10471 22.4367C7.93761 22.4335 7.79594 22.3621 7.71645 22.2399C7.61294 22.0809 7.61895 21.8439 7.73306 21.5725L7.7864 21.451C7.96869 21.0419 8.27358 20.3576 7.93125 19.7055C7.67335 19.2144 7.25295 18.9088 6.74741 18.8445C6.262 18.7831 5.76247 18.9629 5.44381 19.3144C4.94109 19.869 4.86231 20.624 4.95946 20.8907C4.99514 20.9882 5.05096 21.0154 5.09123 21.0211C5.17673 21.0324 5.3032 20.9702 5.38234 20.7572L5.40495 20.6879C5.44027 20.5752 5.50598 20.3654 5.61373 20.1972C5.74374 19.9944 5.94582 19.8549 6.18322 19.8037C6.42487 19.7517 6.67216 19.798 6.87918 19.9337C7.2314 20.164 7.36706 20.5957 7.21657 21.0073C7.13884 21.2203 7.01237 21.6277 7.04028 21.9622C7.0968 22.6395 7.51332 22.9115 7.88744 22.9404C8.25132 22.9542 8.50568 22.7497 8.56998 22.6006C8.60778 22.5123 8.57598 22.4586 8.55514 22.4356" fill="#818898"/>
<path fill-rule="evenodd" clip-rule="evenodd" d="M12.0171 9.99604C13.2042 8.62461 14.665 7.43229 15.9739 6.76283C16.0191 6.73951 16.0671 6.78862 16.0428 6.83313C15.9389 7.02143 15.7386 7.42452 15.6753 7.7301C15.6655 7.77779 15.7174 7.81348 15.7577 7.78628C16.572 7.23128 17.9883 6.63635 19.2307 6.56004C19.2841 6.55686 19.3099 6.62505 19.2675 6.6579C19.0785 6.80275 18.8718 7.00341 18.721 7.20619C18.6952 7.24082 18.7196 7.29027 18.7627 7.29063C19.6349 7.29699 20.8647 7.60222 21.6663 8.05194C21.7203 8.08233 21.6818 8.18725 21.621 8.17347C20.4082 7.89544 18.4232 7.68453 16.3607 8.1876C14.5198 8.63662 13.1144 9.33011 12.0896 10.0755C12.0376 10.1133 11.9751 10.0444 12.0171 9.99604ZM17.9282 23.2836L17.9286 23.2843L17.9293 23.2857L17.9282 23.2836ZM22.8225 23.8612C22.8579 23.8464 22.8819 23.8064 22.878 23.7665C22.8731 23.7174 22.8293 23.6817 22.7801 23.6867C22.7801 23.6867 20.2475 24.0615 17.8547 23.1857C18.1154 22.3386 18.8082 22.6445 19.8557 22.7289C21.7436 22.8416 23.4358 22.5657 24.6864 22.2068C25.77 21.8959 27.1933 21.2826 28.2987 20.41C28.6714 21.2289 28.8032 22.1305 28.8032 22.1305C28.8032 22.1305 29.0918 22.0789 29.3331 22.2273C29.561 22.3675 29.7281 22.659 29.614 23.4129C29.3815 24.8211 28.7831 25.9643 27.7769 27.016C27.1643 27.6752 26.421 28.2482 25.5703 28.6651C25.1185 28.9025 24.6377 29.1077 24.1293 29.2734C20.3365 30.5124 16.454 29.1505 15.2027 26.226C15.1027 26.0063 15.0182 25.776 14.9518 25.5354C14.4187 23.6082 14.8713 21.296 16.2865 19.8405C16.3738 19.748 16.4628 19.6381 16.4628 19.5007C16.4628 19.3859 16.3897 19.2647 16.3264 19.1785C15.8311 18.4603 14.116 17.2365 14.4604 14.8681C14.7077 13.1667 16.1957 11.9684 17.5831 12.0394L17.9346 12.0595C18.5359 12.0952 19.0601 12.1722 19.5551 12.1931C20.3835 12.2291 21.1282 12.1086 22.0107 11.3735C22.3082 11.1255 22.547 10.9103 22.9508 10.8421C22.9932 10.8347 23.0988 10.7969 23.3097 10.8068C23.5252 10.8185 23.7301 10.8775 23.9142 11.0001C24.6214 11.4706 24.7218 12.6107 24.7585 13.4444C24.7794 13.9203 24.8369 15.072 24.8567 15.4026C24.9016 16.1586 25.1005 16.265 25.5025 16.3975C25.7286 16.472 25.9385 16.5275 26.2479 16.6144C27.1841 16.8772 27.7391 17.1439 28.0892 17.4866C28.298 17.7007 28.3952 17.9282 28.4252 18.1451C28.5354 18.9506 27.7999 19.9454 25.8523 20.8495C23.7234 21.8376 21.1406 22.0877 19.3562 21.8888L18.7309 21.8182C17.3036 21.626 16.4893 23.4705 17.346 24.7345C17.8982 25.5492 19.4021 26.0791 20.9067 26.0794C24.3565 26.0798 27.0082 24.6066 27.9946 23.3345L28.0733 23.2221C28.1221 23.149 28.0818 23.1087 28.0214 23.15C27.2156 23.7015 23.6361 25.8908 19.8073 25.2319C19.8073 25.2319 19.342 25.1553 18.9174 24.9903C18.58 24.8589 17.8735 24.5338 17.7876 23.8093C20.8774 24.7649 22.8225 23.8612 22.8225 23.8612ZM5.85136 16.5183C4.77668 16.7271 3.82954 17.3361 3.25052 18.1776C2.9043 17.889 2.25957 17.3301 2.14546 17.1121C1.22093 15.3563 3.15442 11.943 4.50536 10.0151C7.84385 5.25114 13.0724 1.64522 15.4927 2.29949C15.8863 2.41078 17.1895 3.92175 17.1895 3.92175C17.1895 3.92175 14.7699 5.26421 12.5262 7.13553C9.50285 9.46329 7.21961 12.8467 5.85136 16.5183ZM7.65697 24.5748C7.49446 24.6027 7.32842 24.6137 7.16097 24.6094C5.54401 24.566 3.79775 23.1105 3.62429 21.3844C3.43246 19.4763 4.40751 18.0081 6.13363 17.6597C6.33994 17.618 6.58936 17.594 6.8582 17.6082C7.82548 17.6611 9.25061 18.4037 9.57598 20.5107C9.86426 22.3767 9.40641 24.2767 7.65697 24.5748ZM29.5589 21.1961C29.5451 21.1469 29.4547 20.8173 29.3307 20.4199C29.2067 20.0221 29.0784 19.7427 29.0784 19.7427C29.5758 18.9983 29.5847 18.3324 29.5182 17.9554C29.4476 17.488 29.2529 17.0899 28.8608 16.678C28.4687 16.2664 27.6664 15.8446 26.539 15.528L25.9476 15.3638C25.9448 15.3394 25.9166 13.9694 25.8911 13.3812C25.8724 12.9558 25.836 12.292 25.6301 11.6384C25.3845 10.7535 24.9571 9.97908 24.4232 9.48378C25.8964 7.95691 26.816 6.27459 26.8135 4.8318C26.8093 2.05679 23.4012 1.21705 19.2011 2.95624L18.3112 3.3339C18.3073 3.33001 16.7023 1.75545 16.6783 1.73425C11.8896 -2.44257 -3.08237 14.1994 1.70421 18.2412L2.75027 19.1276C2.47896 19.8306 2.37226 20.6361 2.45952 21.502C2.57116 22.6145 3.14489 23.6807 4.07507 24.5045C4.95792 25.2867 6.11879 25.782 7.24504 25.7809C9.10789 30.0736 13.3642 32.707 18.3546 32.8553C23.7079 33.0143 28.2016 30.5025 30.0846 25.9904C30.2078 25.6739 30.7303 24.247 30.7303 22.9872C30.7303 21.7214 30.0146 21.1961 29.5589 21.1961Z" fill="#818898"/>
</g>
<defs>
<clipPath id="clip0_1_13357">
<rect width="119" height="34" fill="#64748b"/>
</clipPath>
</defs>
</svg>
