<svg width="103" height="34" viewBox="0 0 103 34" fill="none" xmlns="http://www.w3.org/2000/svg">
<g clip-path="url(#clip0_1_13358)">
<path d="M7.24786 9.06996C11.4653 9.06996 14.9005 12.5051 14.9005 16.7566C14.9005 21.008 11.4653 24.4432 7.24786 24.4432C3.03042 24.4432 -0.404755 21.0421 -0.404755 16.7566C-0.404755 12.4711 3.03042 9.06996 7.24786 9.06996ZM67.2444 8.8999V22.3685C67.2444 23.3889 67.6525 23.6609 68.4348 23.865L68.4688 24.0351H64.1493V22.3685C63.6391 23.5929 62.5848 24.3412 61.2243 24.3412C58.9115 24.3412 57.381 22.2325 57.381 19.1034C57.381 17.3348 57.8912 15.8383 58.8435 14.7159C59.7618 13.6275 61.0203 13.0493 62.4147 13.0493C63.095 13.0493 63.6731 13.1854 64.1493 13.4915V11.6548C64.1493 11.2467 64.0473 10.9746 63.8432 10.7705C63.5711 10.5325 63.129 10.4304 62.4487 10.4984H62.4147V10.3284L67.2444 8.8999ZM83.638 13.0833V22.3685C83.638 23.3889 84.0461 23.6609 84.8284 23.865V24.0351H80.5089V22.3345C79.9987 23.5589 78.8764 24.3412 77.6179 24.3412C76.1214 24.3412 75.1691 23.6609 74.795 22.3345L74.7269 21.9944C74.6589 21.6543 74.6249 21.3141 74.6249 20.974V16.0083C74.6249 14.92 74.3868 14.5798 73.4345 14.5118H73.4005V14.3418L77.72 13.0833V20.906C77.72 22.0624 78.2301 22.7086 79.1825 22.7086C79.7607 22.7086 80.2368 22.4025 80.5089 21.8923V16.0083C80.5089 14.8859 80.3048 14.5458 79.5226 14.4778H79.4886V14.3078L83.638 13.0833ZM52.4493 13.0493C53.6057 13.0493 54.7281 13.4575 55.4764 14.1717C56.3266 14.988 56.7688 16.1784 56.8028 17.7429V17.7769H50.3066C50.1705 20.0217 51.565 21.8583 53.4016 21.9264C54.7281 22.0284 55.8845 21.2121 56.5307 19.8857L56.7008 19.9537C56.3266 22.4365 54.8641 24.3072 52.3133 24.3072C49.4223 24.3072 47.7897 21.8923 47.7217 18.8653V18.083C47.8577 16.7566 48.2659 15.5662 48.9801 14.6819C49.4223 14.1377 49.9325 13.7296 50.5447 13.4575C51.0548 13.1854 51.8031 13.0493 52.4153 13.0493H52.4493ZM97.4467 13.0833C99.2833 13.0833 100.406 14.2397 100.406 16.2124V22.5386C100.406 23.2868 100.746 23.6609 101.596 23.865H101.63V24.0351H97.2766V16.3144C97.2766 15.09 96.8345 14.4778 95.9162 14.4778C95.1679 14.4778 94.7938 15.022 94.5897 15.4982C94.6237 15.7362 94.6577 15.9743 94.6577 16.2124V22.6406C94.6577 23.4229 94.8958 23.695 95.5761 23.865H95.6101V24.0351H91.5627V16.3144C91.5627 15.09 91.0865 14.4778 90.2022 14.4778C89.488 14.4778 89.1139 14.988 88.9438 15.3961V22.6746C88.9438 23.4569 89.1819 23.729 89.8621 23.899H89.8961V24.0691H85.8487V15.9743C85.8487 14.8859 85.5766 14.5458 84.6583 14.4778H84.6243V14.3078L88.9438 13.1173V14.92C89.3859 13.7636 90.4063 13.0833 91.6987 13.0833C93.1612 13.0833 94.1816 13.7976 94.5217 15.09C94.9639 13.8656 96.0862 13.0833 97.4467 13.0833ZM35.4095 9.58013L39.4569 19.0694L43.5043 9.58013H47.8577L47.8237 9.75019L47.7743 9.76119C47.0243 9.93214 46.6333 10.2126 46.6333 11.1447V22.7086C46.7014 23.4569 47.1095 23.695 47.8237 23.865H47.8577V24.0351H42.3139V23.865H42.3479C43.0621 23.695 43.4702 23.4569 43.5383 22.7086V11.4508L38.1984 24.0011H37.8923L32.6886 11.7909V22.4365C32.6886 23.3889 33.0967 23.6609 33.879 23.831H33.913V24.0011H30.7159V23.831H30.7499C31.5322 23.6609 31.9403 23.3889 31.9403 22.4365V11.1447C31.9403 10.1923 31.5322 9.92025 30.7499 9.75019H30.7159V9.58013H35.4095ZM72.5162 13.0833V22.3685L72.5167 22.4313C72.5333 23.4002 72.9406 23.6652 73.7066 23.865L73.7406 24.0351H69.4211V16.0083C69.4211 14.92 69.183 14.5798 68.2307 14.5118H68.1967V14.3418L72.5162 13.0833ZM19.492 9.51211C21.5668 9.51211 23.3014 12.7772 23.3014 16.7566C23.3014 20.77 21.6008 24.0011 19.492 24.0011C17.3833 24.0011 15.6827 20.77 15.6827 16.7566C15.6827 12.7432 17.3833 9.51211 19.492 9.51211ZM25.3421 10.2604C26.1243 10.2604 26.7025 13.1854 26.7025 16.7566C26.7025 20.3278 26.0903 23.2528 25.3421 23.2528C24.6013 23.2528 23.9938 20.386 23.9818 16.8635L23.9816 16.7566C23.9816 13.1854 24.5938 10.2604 25.3421 10.2604ZM62.9249 13.6615C61.5644 13.6615 60.7141 15.4641 60.7141 18.2531C60.7141 19.5796 60.9522 20.7359 61.3604 21.5182C61.7345 22.2665 62.2787 22.6746 62.8909 22.6746C63.5031 22.6746 63.9452 22.4025 64.1493 21.8923V14.4098C63.9112 13.9336 63.4691 13.6615 62.9249 13.6615ZM52.4153 13.6955C51.1909 13.6955 50.4766 15.158 50.3746 17.1987V17.2328H54.0819C54.1499 15.6342 53.8778 14.5798 53.3676 14.0697C53.0955 13.8316 52.7894 13.6955 52.4153 13.6955ZM70.8496 9.00194C71.8359 9.00194 72.5842 9.75019 72.5842 10.7365C72.5842 11.7229 71.8359 12.4711 70.8496 12.4711C69.8633 12.4711 69.115 11.7229 69.115 10.7365C69.115 9.75019 69.8633 9.00194 70.8496 9.00194Z" fill="#818898"/>
</g>
<defs>
<clipPath id="clip0_1_13358">
<rect width="102.85" height="34" fill="#818898" transform="translate(0.0499878)"/>
</clipPath>
</defs>
</svg>
