<svg width="112" height="32" viewBox="0 0 112 32" fill="none" xmlns="http://www.w3.org/2000/svg">
<path fill-rule="evenodd" clip-rule="evenodd" d="M12.5915 15.1138H1.53751V4.05981H12.5915V15.1138ZM110.503 14.5835V12.6672H108.123V9.68801L108.043 9.71268L105.808 10.3966L105.764 10.41V12.6673H102.236V11.4098C102.236 10.8242 102.367 10.3761 102.625 10.0773C102.881 9.78204 103.248 9.63194 103.715 9.63194C104.051 9.63194 104.399 9.7111 104.749 9.86721L104.837 9.90642V7.88827L104.796 7.87309C104.469 7.75567 104.025 7.69653 103.474 7.69653C102.78 7.69653 102.149 7.84758 101.599 8.14694C101.049 8.44672 100.616 8.87468 100.313 9.4188C100.011 9.96229 99.8571 10.59 99.8571 11.2846V12.6672H98.2001V14.5835H99.8571V22.6566H102.236V14.5835H105.764V19.7138C105.764 21.8267 106.76 22.8975 108.726 22.8975C109.049 22.8975 109.389 22.8596 109.736 22.7855C110.089 22.7094 110.33 22.6334 110.472 22.5523L110.503 22.5337V20.5997L110.406 20.6637C110.277 20.7497 110.116 20.82 109.928 20.8723C109.739 20.9255 109.58 20.9522 109.458 20.9522C108.998 20.9522 108.657 20.8281 108.445 20.5832C108.232 20.3361 108.123 19.9041 108.123 19.2997V14.5835H110.503ZM92.888 20.9525C92.0246 20.9525 91.3439 20.6662 90.8641 20.1022C90.3815 19.5355 90.1369 18.7274 90.1369 17.7007C90.1369 16.6415 90.3815 15.8124 90.8643 15.2357C91.3444 14.6627 92.0186 14.3718 92.8686 14.3718C93.6934 14.3718 94.35 14.6496 94.8203 15.1978C95.293 15.7489 95.5329 16.5713 95.5329 17.6429C95.5329 18.7276 95.3073 19.5609 94.8625 20.1183C94.4207 20.6715 93.7564 20.9525 92.888 20.9525ZM92.9937 12.4265C91.3465 12.4265 90.0382 12.9092 89.1053 13.8611C88.1731 14.8132 87.7004 16.1307 87.7004 17.7774C87.7004 19.3414 88.1618 20.5995 89.0719 21.516C89.982 22.4328 91.2205 22.8973 92.7528 22.8973C94.3496 22.8973 95.6319 22.4078 96.5643 21.4427C97.4966 20.4787 97.969 19.1736 97.969 17.5654C97.969 15.9769 97.5257 14.7095 96.6512 13.799C95.7762 12.8882 94.5454 12.4265 92.9937 12.4265ZM83.8651 12.4265C82.7447 12.4265 81.8178 12.7131 81.1098 13.2782C80.3974 13.8467 80.0361 14.5922 80.0361 15.4944C80.0361 15.9634 80.1141 16.38 80.2676 16.7333C80.422 17.0878 80.6609 17.3999 80.9784 17.6618C81.2935 17.9217 81.7799 18.1938 82.4243 18.4707C82.9661 18.6937 83.3701 18.8823 83.6268 19.0309C83.8777 19.1766 84.0557 19.323 84.1563 19.4656C84.254 19.6051 84.3035 19.7961 84.3035 20.0318C84.3035 20.703 83.801 21.0295 82.7668 21.0295C82.3832 21.0295 81.9457 20.9494 81.4664 20.7915C80.9905 20.636 80.5413 20.4083 80.1346 20.1163L80.0359 20.0454V22.3356L80.0721 22.3525C80.4087 22.5079 80.8331 22.6389 81.3332 22.742C81.8325 22.8452 82.286 22.8977 82.68 22.8977C83.8959 22.8977 84.8751 22.6097 85.5895 22.0412C86.3085 21.4689 86.6729 20.7057 86.6729 19.7723C86.6729 19.099 86.4767 18.5215 86.0901 18.0559C85.7061 17.594 85.0396 17.1699 84.11 16.7951C83.3694 16.4978 82.895 16.251 82.6992 16.0616C82.5105 15.8786 82.4147 15.6199 82.4147 15.2922C82.4147 15.0016 82.533 14.7689 82.7757 14.5804C83.0204 14.391 83.361 14.2947 83.7881 14.2947C84.1844 14.2947 84.5899 14.3573 84.9932 14.48C85.3962 14.6027 85.7502 14.767 86.0456 14.968L86.1428 15.0344V12.862L86.1055 12.8459C85.8329 12.729 85.4735 12.629 85.0369 12.5478C84.6023 12.4672 84.208 12.4265 83.8651 12.4265ZM73.8348 20.9525C72.9716 20.9525 72.2907 20.6662 71.8111 20.1022C71.3283 19.5355 71.0842 18.7276 71.0842 17.7007C71.0842 16.6415 71.3286 15.8124 71.8116 15.2357C72.2912 14.6627 72.9653 14.3718 73.8157 14.3718C74.6402 14.3718 75.2968 14.6496 75.7673 15.1978C76.24 15.7489 76.4798 16.5713 76.4798 17.6429C76.4798 18.7276 76.2542 19.5609 75.8093 20.1183C75.3676 20.6715 74.7036 20.9525 73.8348 20.9525ZM73.9409 12.4265C72.2932 12.4265 70.9848 12.9092 70.0525 13.8611C69.1202 14.8132 68.6473 16.1307 68.6473 17.7774C68.6473 19.342 69.1089 20.5995 70.019 21.516C70.9291 22.4328 72.1676 22.8973 73.6999 22.8973C75.2964 22.8973 76.579 22.4078 77.5115 21.4427C78.4436 20.4787 78.9161 19.1736 78.9161 17.5654C78.9161 15.9769 78.4728 14.7095 77.598 13.799C76.7228 12.8882 75.4923 12.4265 73.9409 12.4265ZM65.0364 14.3971V12.6672H62.6866V22.6564H65.0364V17.5465C65.0364 16.6776 65.2334 15.9638 65.6221 15.4246C66.0059 14.8919 66.5174 14.622 67.1418 14.622C67.3535 14.622 67.5911 14.6569 67.8484 14.7259C68.103 14.7945 68.2875 14.869 68.3963 14.9475L68.495 15.019V12.6501L68.457 12.6338C68.2382 12.5408 67.9286 12.4939 67.5369 12.4939C66.9464 12.4939 66.418 12.6836 65.9654 13.0572C65.5681 13.3855 65.2809 13.8357 65.0614 14.3971H65.0364ZM58.4786 12.4265C57.4006 12.4265 56.4391 12.6577 55.6212 13.1134C54.8017 13.5701 54.1679 14.2222 53.7366 15.0513C53.3073 15.8784 53.0893 16.8446 53.0893 17.9221C53.0893 18.8659 53.3007 19.7321 53.7184 20.4954C54.1363 21.2601 54.7279 21.8582 55.4767 22.2731C56.2245 22.6875 57.0887 22.8976 58.0456 22.8976C59.1623 22.8976 60.1157 22.6743 60.8802 22.234L60.911 22.2163V20.0636L60.8123 20.1357C60.466 20.3879 60.0791 20.5892 59.6627 20.7343C59.2474 20.8792 58.8688 20.9525 58.5367 20.9525C57.6147 20.9525 56.8745 20.664 56.3373 20.0952C55.7988 19.5257 55.5258 18.7259 55.5258 17.7196C55.5258 16.7069 55.8105 15.8867 56.3716 15.2814C56.931 14.6779 57.6726 14.3718 58.5755 14.3718C59.3478 14.3718 60.1004 14.6333 60.8125 15.1498L60.911 15.2214V12.9531L60.8792 12.9352C60.6113 12.7852 60.2458 12.6614 59.7921 12.5675C59.3403 12.4737 58.8985 12.4265 58.4786 12.4265ZM51.471 12.6673H49.1212V22.6564H51.471V12.6673ZM50.3201 8.41183C49.9334 8.41183 49.5961 8.54349 49.319 8.80437C49.0407 9.066 48.8996 9.3954 48.8996 9.78414C48.8996 10.1668 49.039 10.4902 49.3147 10.7448C49.5885 10.9988 49.9269 11.1275 50.3203 11.1275C50.7135 11.1275 51.0532 10.9988 51.3303 10.7453C51.6092 10.4902 51.7506 10.1669 51.7506 9.78414C51.7506 9.409 51.613 9.08297 51.3418 8.81492C51.0708 8.54739 50.7269 8.41183 50.3201 8.41183ZM44.4573 11.9303V22.6564H46.8554V8.71762H43.5364L39.3177 19.0709L35.2238 8.71762H31.7697V22.6563H34.0232V11.9292H34.1006L38.4237 22.6564H40.1243L44.38 11.9303H44.4573ZM13.7426 15.1138H24.7963V4.05981H13.7426V15.1138ZM12.5911 27.323H1.53751V16.2691H12.5911V27.323ZM13.7426 27.323H24.7963V16.2691H13.7426V27.323Z" fill="#818898"/>
</svg>
