<svg width="588" height="300" viewBox="0 0 588 300" fill="none" xmlns="http://www.w3.org/2000/svg">
<g clip-path="url(#clip0_6430_346)">
<rect width="588" height="300" rx="20" fill="#F6F8FA"/>
<g filter="url(#filter0_f_6430_346)">
<path d="M623 255.397C623 341.096 540.08 324.754 454.454 324.754C359.905 255.397 88 262.922 88 177.222C88 91.5225 330.657 114.918 416.282 114.918C501.907 114.918 623 169.697 623 255.397Z" fill="#5B49E9" fill-opacity="0.08"/>
</g>
<g filter="url(#filter1_d_6430_346)">
<g clip-path="url(#clip1_6430_346)">
<path d="M94 72C94 64.5449 94 60.8174 95.2179 57.8771C96.8418 53.9566 99.9566 50.8418 103.877 49.2179C106.817 48 110.545 48 118 48H470C477.455 48 481.183 48 484.123 49.2179C488.043 50.8418 491.158 53.9566 492.782 57.8771C494 60.8174 494 64.5449 494 72V300H94V72Z" fill="white"/>
<path d="M139.06 83.82L138.9 83.6C138.62 83.26 138.29 82.99 137.91 82.79C137.4 82.5 136.82 82.35 136.22 82.35H123.77C123.17 82.35 122.6 82.5 122.08 82.79C121.69 83 121.34 83.29 121.05 83.65C120.48 84.38 120.21 85.28 120.3 86.18L120.67 90.85C120.8 92.26 120.97 94 124.14 94H135.86C139.03 94 139.19 92.26 139.33 90.84L139.7 86.19C139.79 85.35 139.57 84.51 139.06 83.82ZM132.39 89.34H127.6C127.21 89.34 126.9 89.02 126.9 88.64C126.9 88.26 127.21 87.94 127.6 87.94H132.39C132.78 87.94 133.09 88.26 133.09 88.64C133.09 89.03 132.78 89.34 132.39 89.34Z" fill="#33CFFF"/>
<path d="M138.561 80.5964C138.599 80.9793 138.183 81.2356 137.819 81.1135C137.314 80.9445 136.782 80.86 136.23 80.86H123.77C123.213 80.86 122.665 80.9501 122.153 81.1219C121.793 81.243 121.38 80.9951 121.38 80.6149V78.66C121.38 75.09 122.47 74 126.04 74H127.22C128.65 74 129.1 74.46 129.68 75.21L130.88 76.81C131.13 77.15 131.14 77.17 131.58 77.17H133.96C137.086 77.17 138.307 78.0072 138.561 80.5964Z" fill="#33CFFF"/>
<path d="M154.969 90V78.3594H157.938L160.203 84.4766C160.422 85.125 160.797 86.2891 161.07 87.1953C161.344 86.2891 161.719 85.125 161.93 84.4766L164.156 78.3594H167.141V90H165.109V84.0625C165.109 83.2422 165.148 81.9531 165.18 80.7578C164.766 82.0703 164.367 83.3516 164.117 84.0625L161.898 90H160.211L157.977 84.0625C157.734 83.3828 157.344 82.1797 156.938 80.9219C156.961 82.0703 157 83.2812 157 84.0625V90H154.969ZM171.18 90.1328C169.539 90.1328 168.328 89.3047 168.328 87.6562C168.328 85.7812 169.868 85.3203 171.571 85.1406C173.102 84.9688 173.625 84.9453 173.625 84.3828V84.3203C173.625 83.6172 173.063 83.1172 172.118 83.1172C171.157 83.1172 170.516 83.6172 170.461 84.3125H168.563C168.657 82.6719 170 81.5859 172.157 81.5859C174.305 81.5859 175.578 82.6562 175.578 84.375V90H173.641V88.8359H173.61C173.219 89.5703 172.524 90.1328 171.18 90.1328ZM171.664 88.6719C172.953 88.6719 173.633 87.9062 173.633 86.9453V86.0547C173.391 86.2109 172.625 86.3359 171.813 86.4609C170.969 86.5859 170.25 86.8906 170.25 87.6406C170.25 88.2891 170.805 88.6719 171.664 88.6719ZM177.001 90V81.75H178.899V83.1172H178.923C179.227 82.1719 179.86 81.6719 180.923 81.6719C181.188 81.6719 181.407 81.6875 181.563 81.7031V83.4531C181.415 83.4297 181.024 83.3906 180.633 83.3906C179.696 83.3906 178.969 84.0391 178.969 85.3281V90H177.001ZM182.337 90V78.3594H184.306V85.0938H184.329L187.54 81.75H189.907L186.556 85.3125L190.11 90H187.759L185.056 86.4688L184.306 87.2422V90H182.337ZM193.876 90.1875C191.4 90.1875 189.853 88.3828 189.853 85.8828C189.853 83.375 191.486 81.5625 193.798 81.5625C196.173 81.5625 197.751 83.3203 197.751 85.8516V86.3906H191.783C191.829 87.7344 192.595 88.6328 193.923 88.6328C194.915 88.6328 195.579 88.1562 195.806 87.4531H197.65C197.337 89.0703 195.806 90.1875 193.876 90.1875ZM191.798 85.0312H195.861C195.736 83.8516 194.97 83.125 193.829 83.125C192.689 83.125 191.931 83.8516 191.798 85.0312ZM203.127 81.75V83.3359H201.447V87.6328C201.447 88.2188 201.642 88.4141 202.283 88.4141H203.127V90H201.939C200.259 90 199.47 89.3359 199.47 87.9219V83.3359H198.033V81.75H199.47V79.5H201.447V81.75H203.127ZM204.049 90V81.75H206.018V90H204.049ZM205.033 80.5234C204.361 80.5234 203.853 80.0391 203.853 79.3984C203.853 78.7656 204.361 78.2812 205.033 78.2812C205.705 78.2812 206.213 78.7656 206.213 79.3984C206.213 80.0391 205.705 80.5234 205.033 80.5234ZM209.416 85.3359V90H207.447V81.75H209.385V83.0156C209.947 82.0859 210.783 81.5859 211.916 81.5859C213.643 81.5859 214.862 82.7266 214.862 84.8438V90H212.885V85.1562C212.885 83.9453 212.276 83.3125 211.221 83.3125C210.19 83.3125 209.416 83.9297 209.416 85.3359ZM220.042 93.375C217.862 93.375 216.542 92.3672 216.323 90.7656H218.252C218.44 91.4766 219.12 91.8516 220.042 91.8516C221.276 91.8516 221.987 91.1719 221.987 89.9062V88.6484H221.979C221.448 89.6172 220.573 90.0547 219.487 90.0547C217.331 90.0547 215.917 88.3203 215.917 85.8359C215.917 83.3281 217.354 81.5859 219.471 81.5859C220.542 81.5859 221.44 82.0312 221.987 82.9766H221.995V81.75H223.94V89.7891C223.94 92.3438 222.276 93.375 220.042 93.375ZM219.948 88.4297C221.237 88.4297 222.081 87.3984 222.081 85.8125C222.081 84.2266 221.237 83.1953 219.948 83.1953C218.729 83.1953 217.909 84.1328 217.909 85.8125C217.909 87.5 218.729 88.4297 219.948 88.4297ZM230.831 78.3594V90H228.769V78.3594H230.831ZM234.324 85.3359V90H232.355V81.75H234.293V83.0156C234.855 82.0859 235.691 81.5859 236.824 81.5859C238.55 81.5859 239.769 82.7266 239.769 84.8438V90H237.793V85.1562C237.793 83.9453 237.183 83.3125 236.128 83.3125C235.097 83.3125 234.324 83.9297 234.324 85.3359ZM241.207 90V81.75H243.176V90H241.207ZM242.191 80.5234C241.519 80.5234 241.012 80.0391 241.012 79.3984C241.012 78.7656 241.519 78.2812 242.191 78.2812C242.863 78.2812 243.371 78.7656 243.371 79.3984C243.371 80.0391 242.863 80.5234 242.191 80.5234ZM249.082 81.75V83.3359H247.402V87.6328C247.402 88.2188 247.598 88.4141 248.238 88.4141H249.082V90H247.895C246.215 90 245.426 89.3359 245.426 87.9219V83.3359H243.988V81.75H245.426V79.5H247.402V81.75H249.082ZM250.004 90V81.75H251.973V90H250.004ZM250.989 80.5234C250.317 80.5234 249.809 80.0391 249.809 79.3984C249.809 78.7656 250.317 78.2812 250.989 78.2812C251.661 78.2812 252.168 78.7656 252.168 79.3984C252.168 80.0391 251.661 80.5234 250.989 80.5234ZM255.919 90.1328C254.278 90.1328 253.067 89.3047 253.067 87.6562C253.067 85.7812 254.606 85.3203 256.309 85.1406C257.841 84.9688 258.364 84.9453 258.364 84.3828V84.3203C258.364 83.6172 257.802 83.1172 256.856 83.1172C255.895 83.1172 255.255 83.6172 255.2 84.3125H253.302C253.395 82.6719 254.739 81.5859 256.895 81.5859C259.044 81.5859 260.317 82.6562 260.317 84.375V90H258.38V88.8359H258.348C257.958 89.5703 257.262 90.1328 255.919 90.1328ZM256.403 88.6719C257.692 88.6719 258.372 87.9062 258.372 86.9453V86.0547C258.13 86.2109 257.364 86.3359 256.552 86.4609C255.708 86.5859 254.989 86.8906 254.989 87.6406C254.989 88.2891 255.544 88.6719 256.403 88.6719ZM266.091 81.75V83.3359H264.411V87.6328C264.411 88.2188 264.607 88.4141 265.247 88.4141H266.091V90H264.903C263.224 90 262.435 89.3359 262.435 87.9219V83.3359H260.997V81.75H262.435V79.5H264.411V81.75H266.091ZM267.013 90V81.75H268.982V90H267.013ZM267.997 80.5234C267.326 80.5234 266.818 80.0391 266.818 79.3984C266.818 78.7656 267.326 78.2812 267.997 78.2812C268.669 78.2812 269.177 78.7656 269.177 79.3984C269.177 80.0391 268.669 80.5234 267.997 80.5234ZM272.779 90L269.677 81.75H271.763L273.271 86.0469C273.482 86.6953 273.685 87.3516 273.888 88C274.084 87.3516 274.279 86.6953 274.49 86.0469L275.974 81.75H278.037L274.935 90H272.779ZM282.076 90.1875C279.6 90.1875 278.053 88.3828 278.053 85.8828C278.053 83.375 279.686 81.5625 281.998 81.5625C284.373 81.5625 285.951 83.3203 285.951 85.8516V86.3906H279.982C280.029 87.7344 280.795 88.6328 282.123 88.6328C283.115 88.6328 283.779 88.1562 284.006 87.4531H285.85C285.537 89.0703 284.006 90.1875 282.076 90.1875ZM279.998 85.0312H284.061C283.936 83.8516 283.17 83.125 282.029 83.125C280.889 83.125 280.131 83.8516 279.998 85.0312ZM290.209 90.1953C288.202 90.1953 286.709 89.2266 286.584 87.4531H288.53C288.616 88.2578 289.194 88.7188 290.178 88.7188C291.131 88.7188 291.709 88.3047 291.709 87.7188C291.709 87.2188 291.28 86.9297 290.584 86.7812L289.178 86.4922C287.6 86.1641 286.772 85.3594 286.772 84.1094C286.772 82.5938 288.077 81.5703 290.092 81.5703C292.092 81.5703 293.459 82.625 293.506 84.3203H291.655C291.639 83.5859 291.038 83.0469 290.139 83.0469C289.272 83.0469 288.741 83.4844 288.741 84.0469C288.741 84.5391 289.147 84.8438 289.834 84.9922L291.319 85.2969C292.952 85.6406 293.709 86.3594 293.709 87.5703C293.709 89.1797 292.248 90.1953 290.209 90.1953Z" fill="#0D0D12"/>
<line x1="118" y1="115.5" x2="494" y2="115.5" stroke="#DFE1E7"/>
<mask id="path-10-inside-1_6430_346" fill="white">
<path d="M118 116H689V164H118V116Z"/>
</mask>
<path d="M689 163H118V165H689V163Z" fill="#E2E4E9" mask="url(#path-10-inside-1_6430_346)"/>
<path d="M132 134H144M144 146H132M135.333 143.333L136 141.449M136 141.449L137.584 136.972C137.728 136.565 138.272 136.565 138.416 136.972L140 141.449M136 141.449H140M140 141.449L140.667 143.333" stroke="#868C98" stroke-width="1.33333" stroke-linecap="round"/>
<path d="M153.214 145V134.814H154.629L158.826 141.445C159.066 141.828 159.53 142.601 159.941 143.325C159.92 142.614 159.899 141.732 159.899 141.391V134.814H161.13V145H159.701L155.969 139.107C155.689 138.67 155.114 137.727 154.383 136.503C154.431 137.768 154.444 138.643 154.444 139.094V145H153.214ZM164.924 145.109C163.489 145.109 162.409 144.364 162.409 142.922C162.409 141.268 163.83 140.967 165.28 140.775C166.654 140.591 167.098 140.646 167.098 140.092V140.023C167.098 139.237 166.51 138.67 165.498 138.67C164.494 138.67 163.796 139.224 163.742 139.941H162.559C162.62 138.622 163.789 137.645 165.498 137.645C167.18 137.645 168.246 138.595 168.246 140.023V145H167.098V143.975H167.071C166.804 144.494 166.237 145.109 164.924 145.109ZM165.088 144.07C166.51 144.07 167.098 143.209 167.098 142.266V141.363C166.92 141.527 166.052 141.657 165.225 141.773C164.391 141.89 163.598 142.177 163.598 142.99C163.598 143.667 164.165 144.07 165.088 144.07ZM169.689 145V137.781H170.824V138.95C171.282 138.103 172.082 137.645 172.964 137.645C173.955 137.645 174.734 138.219 175.035 138.943C175.431 138.205 176.238 137.645 177.311 137.645C178.631 137.645 179.711 138.492 179.711 140.27V145H178.548V140.27C178.548 139.148 177.81 138.711 176.983 138.711C175.923 138.711 175.281 139.429 175.281 140.406V145H174.119V140.146C174.119 139.285 173.469 138.711 172.594 138.711C171.685 138.711 170.851 139.354 170.851 140.598V145H169.689ZM184.134 145.164C182.015 145.164 180.784 143.578 180.784 141.404C180.784 139.21 182.138 137.617 184.052 137.617C186.061 137.617 187.333 139.162 187.333 141.404V141.726H181.933C181.987 143.141 182.767 144.111 184.134 144.111C185.159 144.111 185.829 143.592 186.048 142.84H187.21C186.936 144.221 185.706 145.164 184.134 145.164ZM181.946 140.728H186.171C186.048 139.456 185.241 138.656 184.052 138.656C182.869 138.656 182.069 139.456 181.946 140.728Z" fill="#525866"/>
<path d="M334.038 145.164C331.686 145.164 330.196 143.838 330.196 141.719H331.454C331.454 143.175 332.404 144.043 334.038 144.043C335.521 144.043 336.499 143.346 336.499 142.252C336.499 141.404 335.952 140.912 334.482 140.55L333.341 140.27C331.263 139.757 330.401 138.95 330.401 137.562C330.401 135.806 331.789 134.65 333.915 134.65C336.034 134.65 337.388 135.867 337.442 137.822H336.225C336.15 136.551 335.255 135.778 333.874 135.778C332.554 135.778 331.618 136.489 331.618 137.501C331.618 138.294 332.185 138.752 333.662 139.121L334.817 139.408C336.8 139.9 337.729 140.775 337.729 142.197C337.729 143.968 336.253 145.164 334.038 145.164ZM341.995 137.781V138.779H340.532V143.25C340.532 143.811 340.731 144.002 341.325 144.002H341.995V145H341.216C339.979 145 339.37 144.46 339.37 143.373V138.779H338.085V137.781H339.37V135.812H340.532V137.781H341.995ZM345.331 145.109C343.896 145.109 342.816 144.364 342.816 142.922C342.816 141.268 344.238 140.967 345.687 140.775C347.061 140.591 347.505 140.646 347.505 140.092V140.023C347.505 139.237 346.917 138.67 345.906 138.67C344.901 138.67 344.203 139.224 344.149 139.941H342.966C343.028 138.622 344.197 137.645 345.906 137.645C347.587 137.645 348.654 138.595 348.654 140.023V145H347.505V143.975H347.478C347.211 144.494 346.644 145.109 345.331 145.109ZM345.495 144.07C346.917 144.07 347.505 143.209 347.505 142.266V141.363C347.328 141.527 346.459 141.657 345.632 141.773C344.798 141.89 344.005 142.177 344.005 142.99C344.005 143.667 344.573 144.07 345.495 144.07ZM353.248 137.781V138.779H351.785V143.25C351.785 143.811 351.983 144.002 352.578 144.002H353.248V145H352.468C351.231 145 350.623 144.46 350.623 143.373V138.779H349.338V137.781H350.623V135.812H351.785V137.781H353.248ZM356.83 145.137C355.374 145.137 354.178 144.187 354.178 142.266V137.781H355.34V142.184C355.34 143.435 355.969 144.07 357.049 144.07C358.101 144.07 358.949 143.462 358.949 142.006V137.781H360.111V145H358.976V143.94C358.477 144.761 357.746 145.137 356.83 145.137ZM364.07 145.164C362.525 145.164 361.308 144.412 361.212 142.84H362.361C362.443 143.701 363.03 144.166 364.042 144.166C365.04 144.166 365.662 143.701 365.662 143.059C365.662 142.512 365.218 142.197 364.575 142.047L363.413 141.773C362.073 141.459 361.376 140.775 361.376 139.723C361.376 138.492 362.449 137.617 363.994 137.617C365.498 137.617 366.626 138.506 366.667 139.941H365.532C365.519 139.176 364.924 138.615 363.994 138.615C363.106 138.615 362.538 139.107 362.538 139.723C362.538 140.27 362.962 140.591 363.659 140.755L364.821 141.028C366.202 141.356 366.831 141.992 366.831 143.031C366.831 144.371 365.642 145.164 364.07 145.164Z" fill="#525866"/>
<path d="M456.563 145V134.814H460.241C462.285 134.814 463.522 135.86 463.522 137.521C463.522 138.69 462.907 139.374 461.868 139.723V139.736C463.023 139.928 463.939 140.687 463.939 142.143C463.939 143.886 462.743 145 460.296 145H456.563ZM457.794 143.906H460.296C461.834 143.906 462.688 143.318 462.688 142.19C462.688 141.062 461.854 140.365 460.364 140.365H457.794V143.906ZM457.794 139.285H460.289C461.554 139.285 462.305 138.636 462.305 137.597C462.305 136.558 461.554 135.908 460.289 135.908H457.794V139.285ZM467.727 145.137C466.271 145.137 465.074 144.187 465.074 142.266V137.781H466.236V142.184C466.236 143.435 466.865 144.07 467.945 144.07C468.998 144.07 469.846 143.462 469.846 142.006V137.781H471.008V145H469.873V143.94C469.374 144.761 468.643 145.137 467.727 145.137ZM475.212 145.137C473.332 145.137 472.081 143.612 472.081 141.391C472.081 139.162 473.332 137.645 475.212 137.645C476.149 137.645 477.003 138.041 477.468 138.848H477.482V134.814H478.644V145H477.509V143.906H477.495C476.976 144.74 476.149 145.137 475.212 145.137ZM475.39 144.091C476.73 144.091 477.578 143.024 477.578 141.391C477.578 139.757 476.73 138.684 475.39 138.684C474.139 138.684 473.257 139.62 473.257 141.391C473.257 143.161 474.139 144.091 475.39 144.091ZM483.108 147.953C481.481 147.953 480.251 147.188 480.073 145.766H481.262C481.467 146.545 482.178 146.928 483.108 146.928C484.366 146.928 485.131 146.23 485.131 145V143.906H485.125C484.591 144.747 483.798 145.137 482.848 145.137C480.968 145.137 479.717 143.612 479.717 141.391C479.717 139.162 480.968 137.645 482.848 137.645C483.785 137.645 484.639 138.021 485.138 138.909H485.145V137.781H486.28V145C486.28 147.133 484.79 147.953 483.108 147.953ZM483.026 144.091C484.366 144.091 485.214 143.024 485.214 141.391C485.214 139.757 484.366 138.684 483.026 138.684C481.775 138.684 480.893 139.62 480.893 141.391C480.893 143.161 481.775 144.091 483.026 144.091ZM490.703 145.164C488.584 145.164 487.353 143.578 487.353 141.404C487.353 139.21 488.707 137.617 490.621 137.617C492.631 137.617 493.902 139.162 493.902 141.404V141.726H488.502C488.557 143.141 489.336 144.111 490.703 144.111C491.728 144.111 492.398 143.592 492.617 142.84H493.779C493.506 144.221 492.275 145.164 490.703 145.164ZM488.516 140.728H492.74C492.617 139.456 491.81 138.656 490.621 138.656C489.438 138.656 488.639 139.456 488.516 140.728ZM498.1 137.781V138.779H496.637V143.25C496.637 143.811 496.835 144.002 497.43 144.002H498.1V145H497.321C496.083 145 495.475 144.46 495.475 143.373V138.779H494.19V137.781H495.475V135.812H496.637V137.781H498.1Z" fill="#525866"/>
<mask id="path-16-outside-2_6430_346" maskUnits="userSpaceOnUse" x="118" y="164" width="571" height="49" fill="black">
<rect fill="white" x="118" y="164" width="571" height="49"/>
<path d="M118 164H689V212H118V164Z"/>
</mask>
<path d="M689 211H118V213H689V211Z" fill="#E2E4E9" mask="url(#path-16-outside-2_6430_346)"/>
<path d="M130 193.98H144V179.98H130V193.98ZM150.762 193V182.814H154.569C156.668 182.814 157.898 183.86 157.898 185.494C157.898 186.663 157.256 187.381 156.189 187.709V187.723C157.372 187.887 158.302 188.687 158.302 190.136C158.302 191.865 157.092 193 154.685 193H150.762ZM152.265 191.722H154.59C155.971 191.722 156.757 191.168 156.757 190.129C156.757 189.097 155.991 188.454 154.644 188.454H152.265V191.722ZM152.265 187.203H154.549C155.704 187.203 156.394 186.608 156.394 185.651C156.394 184.694 155.704 184.093 154.549 184.093H152.265V187.203ZM159.334 193V185.781H160.715V186.95H160.742C161.009 186.164 161.569 185.692 162.485 185.692C162.704 185.692 162.896 185.713 163.012 185.727V187.073C162.902 187.053 162.588 187.005 162.253 187.005C161.44 187.005 160.776 187.559 160.776 188.734V193H159.334ZM165.835 193.116C164.4 193.116 163.333 192.378 163.333 190.936C163.333 189.288 164.714 188.933 166.184 188.762C167.537 188.598 167.989 188.611 167.989 188.085V188.023C167.989 187.326 167.449 186.82 166.533 186.82C165.61 186.82 164.981 187.319 164.926 187.982H163.511C163.579 186.608 164.748 185.638 166.553 185.638C168.33 185.638 169.417 186.581 169.417 188.051V193H167.996V191.975H167.968C167.667 192.556 167.079 193.116 165.835 193.116ZM166.129 191.954C167.401 191.954 167.996 191.188 167.996 190.3V189.452C167.797 189.609 167.032 189.726 166.266 189.835C165.48 189.951 164.769 190.231 164.769 190.963C164.769 191.585 165.288 191.954 166.129 191.954ZM172.207 188.844V193H170.764V185.781H172.179V186.868C172.672 186.048 173.41 185.638 174.36 185.638C175.843 185.638 176.971 186.615 176.971 188.502V193H175.529V188.68C175.529 187.524 174.948 186.93 173.95 186.93C172.966 186.93 172.207 187.504 172.207 188.844ZM181.094 193.144C179.214 193.144 177.963 191.626 177.963 189.391C177.963 187.162 179.221 185.638 181.087 185.638C182.023 185.638 182.837 186.027 183.302 186.827H183.315V182.814H184.758V193H183.343V191.899H183.329C182.844 192.74 182.037 193.144 181.094 193.144ZM181.388 191.899C182.618 191.899 183.411 190.908 183.411 189.391C183.411 187.873 182.618 186.875 181.388 186.875C180.226 186.875 179.426 187.757 179.426 189.391C179.426 191.018 180.226 191.899 181.388 191.899ZM193.652 193.164C190.842 193.164 188.901 191.031 188.901 187.914C188.901 184.776 190.835 182.65 193.652 182.65C195.874 182.65 197.589 184.031 197.945 186.205H196.4C196.099 184.817 195.053 184.038 193.666 184.038C191.656 184.038 190.425 185.597 190.425 187.914C190.425 190.218 191.656 191.776 193.666 191.776C195.046 191.776 196.085 191.004 196.407 189.623H197.945C197.596 191.79 195.874 193.164 193.652 193.164ZM201.213 193.116C199.777 193.116 198.711 192.378 198.711 190.936C198.711 189.288 200.092 188.933 201.561 188.762C202.915 188.598 203.366 188.611 203.366 188.085V188.023C203.366 187.326 202.826 186.82 201.91 186.82C200.987 186.82 200.358 187.319 200.304 187.982H198.888C198.957 186.608 200.126 185.638 201.93 185.638C203.708 185.638 204.795 186.581 204.795 188.051V193H203.373V191.975H203.346C203.045 192.556 202.457 193.116 201.213 193.116ZM201.507 191.954C202.778 191.954 203.373 191.188 203.373 190.3V189.452C203.175 189.609 202.409 189.726 201.643 189.835C200.857 189.951 200.146 190.231 200.146 190.963C200.146 191.585 200.666 191.954 201.507 191.954ZM206.142 193V185.781H207.543V186.991C207.987 186.103 208.801 185.638 209.696 185.638C210.681 185.638 211.474 186.198 211.774 186.971C212.164 186.191 212.998 185.638 214.065 185.638C215.404 185.638 216.471 186.513 216.471 188.249V193H215.022V188.372C215.022 187.34 214.352 186.902 213.572 186.902C212.608 186.902 212.014 187.565 212.014 188.488V193H210.592V188.276C210.592 187.449 209.997 186.902 209.177 186.902C208.336 186.902 207.584 187.504 207.584 188.646V193H206.142ZM217.825 195.857V185.781H219.24V186.82H219.26C219.718 186.027 220.559 185.638 221.495 185.638C223.362 185.638 224.619 187.162 224.619 189.391C224.619 191.626 223.369 193.144 221.489 193.144C220.545 193.144 219.773 192.74 219.287 191.913H219.267V195.857H217.825ZM221.195 191.899C222.357 191.899 223.157 191.018 223.157 189.391C223.157 187.757 222.357 186.875 221.195 186.875C219.964 186.875 219.171 187.873 219.171 189.391C219.171 190.908 219.964 191.899 221.195 191.899ZM227.894 193.116C226.459 193.116 225.392 192.378 225.392 190.936C225.392 189.288 226.773 188.933 228.243 188.762C229.596 188.598 230.048 188.611 230.048 188.085V188.023C230.048 187.326 229.507 186.82 228.591 186.82C227.669 186.82 227.04 187.319 226.985 187.982H225.57C225.638 186.608 226.807 185.638 228.612 185.638C230.389 185.638 231.476 186.581 231.476 188.051V193H230.054V191.975H230.027C229.726 192.556 229.138 193.116 227.894 193.116ZM228.188 191.954C229.46 191.954 230.054 191.188 230.054 190.3V189.452C229.856 189.609 229.09 189.726 228.325 189.835C227.539 189.951 226.828 190.231 226.828 190.963C226.828 191.585 227.347 191.954 228.188 191.954ZM232.823 193V185.781H234.266V193H232.823ZM233.541 184.537C233.028 184.537 232.632 184.147 232.632 183.655C232.632 183.156 233.028 182.767 233.541 182.767C234.054 182.767 234.457 183.156 234.457 183.655C234.457 184.147 234.054 184.537 233.541 184.537ZM238.771 195.953C237 195.953 235.811 195.133 235.619 193.718H237.062C237.246 194.415 237.896 194.777 238.771 194.777C239.933 194.777 240.63 194.128 240.63 192.959V191.865H240.623C240.124 192.706 239.345 193.096 238.395 193.096C236.515 193.096 235.264 191.571 235.264 189.37C235.264 187.162 236.522 185.638 238.388 185.638C239.324 185.638 240.145 186.021 240.63 186.882H240.637V185.781H242.059V192.904C242.059 195.092 240.589 195.953 238.771 195.953ZM238.689 191.858C239.919 191.858 240.712 190.874 240.712 189.363C240.712 187.853 239.919 186.868 238.689 186.868C237.527 186.868 236.727 187.743 236.727 189.363C236.727 190.983 237.527 191.858 238.689 191.858ZM244.848 188.844V193H243.406V185.781H244.821V186.868C245.313 186.048 246.051 185.638 247.001 185.638C248.485 185.638 249.613 186.615 249.613 188.502V193H248.17V188.68C248.17 187.524 247.589 186.93 246.591 186.93C245.607 186.93 244.848 187.504 244.848 188.844Z" fill="#0A0D14"/>
<g clip-path="url(#clip2_6430_346)">
<path d="M329.5 188C329.5 183.582 333.082 180 337.5 180H388.5C392.918 180 396.5 183.582 396.5 188C396.5 192.418 392.918 196 388.5 196H337.5C333.082 196 329.5 192.418 329.5 188Z" fill="#FFDAC2"/>
<circle cx="338.5" cy="188" r="2" fill="#6E330C"/>
<path d="M347.259 192H345.978L348.857 184H350.251L353.13 192H351.849L349.587 185.453H349.525L347.259 192ZM347.474 188.867H351.63V189.883H347.474V188.867ZM353.165 185.039V184H359.357V185.039H356.861V192H355.658V185.039H353.165ZM364.076 192V184H366.928C367.548 184 368.062 184.107 368.471 184.32C368.882 184.534 369.189 184.829 369.393 185.207C369.596 185.582 369.697 186.016 369.697 186.508C369.697 186.997 369.594 187.428 369.389 187.801C369.186 188.171 368.878 188.458 368.467 188.664C368.058 188.87 367.544 188.973 366.924 188.973H364.764V187.934H366.814C367.205 187.934 367.523 187.878 367.768 187.766C368.015 187.654 368.196 187.491 368.311 187.277C368.425 187.064 368.482 186.807 368.482 186.508C368.482 186.206 368.424 185.944 368.307 185.723C368.192 185.501 368.011 185.332 367.764 185.215C367.519 185.095 367.197 185.035 366.799 185.035H365.283V192H364.076ZM368.025 188.391L370.002 192H368.627L366.689 188.391H368.025ZM372.593 184V192H371.386V184H372.593ZM378.934 186.102C378.892 185.732 378.721 185.445 378.419 185.242C378.116 185.036 377.736 184.934 377.278 184.934C376.95 184.934 376.666 184.986 376.426 185.09C376.187 185.191 376.001 185.332 375.868 185.512C375.738 185.689 375.672 185.891 375.672 186.117C375.672 186.307 375.717 186.471 375.805 186.609C375.896 186.747 376.015 186.863 376.161 186.957C376.309 187.048 376.468 187.125 376.637 187.188C376.807 187.247 376.969 187.297 377.126 187.336L377.907 187.539C378.162 187.602 378.424 187.686 378.692 187.793C378.96 187.9 379.209 188.04 379.438 188.215C379.667 188.389 379.852 188.605 379.993 188.863C380.136 189.121 380.208 189.43 380.208 189.789C380.208 190.242 380.09 190.645 379.856 190.996C379.624 191.348 379.287 191.625 378.844 191.828C378.404 192.031 377.872 192.133 377.247 192.133C376.648 192.133 376.129 192.038 375.692 191.848C375.254 191.658 374.912 191.388 374.665 191.039C374.417 190.687 374.28 190.271 374.254 189.789H375.465C375.489 190.078 375.583 190.319 375.747 190.512C375.913 190.702 376.126 190.844 376.383 190.937C376.644 191.029 376.929 191.074 377.239 191.074C377.58 191.074 377.883 191.021 378.149 190.914C378.417 190.805 378.628 190.654 378.782 190.461C378.935 190.266 379.012 190.038 379.012 189.777C379.012 189.54 378.945 189.346 378.809 189.195C378.676 189.044 378.495 188.919 378.266 188.82C378.04 188.721 377.783 188.634 377.497 188.559L376.551 188.301C375.911 188.126 375.403 187.87 375.028 187.531C374.655 187.193 374.469 186.745 374.469 186.187C374.469 185.727 374.594 185.324 374.844 184.98C375.094 184.637 375.433 184.37 375.86 184.18C376.287 183.987 376.769 183.891 377.305 183.891C377.847 183.891 378.325 183.986 378.739 184.176C379.155 184.366 379.484 184.628 379.723 184.961C379.963 185.292 380.088 185.672 380.098 186.102H378.934ZM381.87 192V184H383.077V187.82H383.175L386.53 184H388.05L384.823 187.602L388.061 192H386.608L384.022 188.426L383.077 189.512V192H381.87Z" fill="#6E330C"/>
</g>
<path d="M459.28 194.518V193.13C457.297 192.911 456.073 191.64 456.073 189.719H457.331C457.331 190.977 458.035 191.79 459.28 191.995V188.283L459.218 188.27C457.14 187.757 456.279 186.95 456.279 185.562C456.279 183.949 457.447 182.849 459.28 182.671V181.297H460.373V182.685C462.157 182.89 463.272 184.052 463.32 185.822H462.103C462.041 184.756 461.399 184.038 460.373 183.833V187.326L460.695 187.408C462.677 187.9 463.607 188.775 463.607 190.197C463.607 191.845 462.328 192.993 460.373 193.144V194.518H459.28ZM460.373 192.022C461.597 191.893 462.376 191.229 462.376 190.252C462.376 189.404 461.829 188.912 460.373 188.55V192.022ZM459.28 187.053V183.812C458.213 183.956 457.495 184.612 457.495 185.501C457.495 186.246 457.994 186.697 459.28 187.053ZM467.92 182.814V193H466.731V184.086H466.724L464.188 185.768V184.51L466.731 182.814H467.92ZM472.945 193.164C470.689 193.164 469.267 191.12 469.267 187.914C469.267 184.694 470.689 182.65 472.945 182.65C475.201 182.65 476.623 184.694 476.623 187.914C476.623 191.12 475.201 193.164 472.945 193.164ZM472.945 192.07C474.504 192.07 475.461 190.498 475.461 187.914C475.461 185.316 474.504 183.744 472.945 183.744C471.387 183.744 470.429 185.316 470.429 187.914C470.429 190.498 471.387 192.07 472.945 192.07ZM476.985 194.921L477.587 191.578H478.831L477.833 194.921H476.985ZM479.754 190.539V189.527L484.628 182.814H486.132V189.445H487.691V190.539H486.132V193H484.956V190.539H479.754ZM484.956 189.445V184.195H484.943L481.149 189.432V189.445H484.956ZM491.827 193.137C489.865 193.137 488.395 191.811 488.32 190.047H489.55C489.66 191.202 490.583 192.043 491.827 192.043C493.146 192.043 494.042 191.045 494.042 189.664C494.042 188.29 493.18 187.299 491.916 187.299C490.795 187.299 489.947 187.757 489.632 188.625H488.45L488.792 182.814H494.671V183.908H489.906L489.66 187.21H489.673C490.316 186.52 491.109 186.191 492.066 186.191C493.939 186.191 495.231 187.634 495.231 189.65C495.231 191.701 493.864 193.137 491.827 193.137ZM499.729 193.164C497.474 193.164 496.188 191.414 496.188 188.338C496.188 184.913 497.337 182.65 499.893 182.65C501.664 182.65 502.86 183.737 503.052 185.357H501.849C501.657 184.373 501.001 183.744 499.969 183.744C498.205 183.744 497.364 185.392 497.364 187.668H497.378C497.843 186.882 498.841 186.369 499.934 186.369C501.773 186.369 503.134 187.812 503.134 189.746C503.134 191.756 501.732 193.164 499.729 193.164ZM499.729 192.07C500.96 192.07 501.944 191.038 501.944 189.746C501.944 188.461 500.994 187.463 499.77 187.463C498.533 187.463 497.528 188.488 497.528 189.76C497.528 191.038 498.513 192.07 499.729 192.07ZM504.665 193.116C504.187 193.116 503.811 192.74 503.811 192.262C503.811 191.783 504.187 191.407 504.665 191.407C505.144 191.407 505.52 191.783 505.52 192.262C505.52 192.74 505.144 193.116 504.665 193.116ZM509.861 193.164C507.605 193.164 506.183 191.12 506.183 187.914C506.183 184.694 507.605 182.65 509.861 182.65C512.117 182.65 513.539 184.694 513.539 187.914C513.539 191.12 512.117 193.164 509.861 193.164ZM509.861 192.07C511.419 192.07 512.376 190.498 512.376 187.914C512.376 185.316 511.419 183.744 509.861 183.744C508.302 183.744 507.345 185.316 507.345 187.914C507.345 190.498 508.302 192.07 509.861 192.07ZM518.167 193.164C515.911 193.164 514.489 191.12 514.489 187.914C514.489 184.694 515.911 182.65 518.167 182.65C520.423 182.65 521.844 184.694 521.844 187.914C521.844 191.12 520.423 193.164 518.167 193.164ZM518.167 192.07C519.725 192.07 520.682 190.498 520.682 187.914C520.682 185.316 519.725 183.744 518.167 183.744C516.608 183.744 515.651 185.316 515.651 187.914C515.651 190.498 516.608 192.07 518.167 192.07Z" fill="#0A0D14"/>
<mask id="path-23-outside-3_6430_346" maskUnits="userSpaceOnUse" x="118" y="212" width="571" height="49" fill="black">
<rect fill="white" x="118" y="212" width="571" height="49"/>
<path d="M118 212H689V260H118V212Z"/>
</mask>
<path d="M689 259H118V261H689V259Z" fill="#E2E4E9" mask="url(#path-23-outside-3_6430_346)"/>
<path d="M130 241.98H144V227.98H130V241.98ZM152.279 230.814V241H150.762V230.814H152.279ZM155.185 236.844V241H153.742V233.781H155.157V234.868C155.65 234.048 156.388 233.638 157.338 233.638C158.821 233.638 159.949 234.615 159.949 236.502V241H158.507V236.68C158.507 235.524 157.926 234.93 156.928 234.93C155.943 234.93 155.185 235.504 155.185 236.844ZM164.796 233.781V234.971H163.327V241H161.884V234.971H160.592V233.781H161.884V232.612C161.884 231.478 162.636 230.814 163.935 230.814H164.796V232.004H164.161C163.552 232.004 163.327 232.236 163.327 232.845V233.781H164.796ZM168.577 241.164C166.512 241.164 165.118 239.626 165.118 237.404C165.118 235.169 166.512 233.617 168.577 233.617C170.641 233.617 172.029 235.169 172.029 237.404C172.029 239.626 170.641 241.164 168.577 241.164ZM168.577 239.92C169.814 239.92 170.573 238.936 170.573 237.404C170.573 235.853 169.807 234.861 168.577 234.861C167.346 234.861 166.581 235.853 166.581 237.404C166.581 238.942 167.34 239.92 168.577 239.92ZM173.027 241V233.781H174.408V234.95H174.436C174.702 234.164 175.263 233.692 176.179 233.692C176.397 233.692 176.589 233.713 176.705 233.727V235.073C176.596 235.053 176.281 235.005 175.946 235.005C175.133 235.005 174.47 235.559 174.47 236.734V241H173.027ZM177.546 241V233.781H178.947V234.991C179.392 234.103 180.205 233.638 181.101 233.638C182.085 233.638 182.878 234.198 183.179 234.971C183.569 234.191 184.403 233.638 185.469 233.638C186.809 233.638 187.875 234.513 187.875 236.249V241H186.426V236.372C186.426 235.34 185.756 234.902 184.977 234.902C184.013 234.902 183.418 235.565 183.418 236.488V241H181.996V236.276C181.996 235.449 181.402 234.902 180.581 234.902C179.74 234.902 178.989 235.504 178.989 236.646V241H177.546ZM191.43 241.116C189.995 241.116 188.928 240.378 188.928 238.936C188.928 237.288 190.309 236.933 191.779 236.762C193.132 236.598 193.584 236.611 193.584 236.085V236.023C193.584 235.326 193.043 234.82 192.127 234.82C191.205 234.82 190.576 235.319 190.521 235.982H189.106C189.174 234.608 190.343 233.638 192.148 233.638C193.925 233.638 195.012 234.581 195.012 236.051V241H193.59V239.975H193.563C193.262 240.556 192.674 241.116 191.43 241.116ZM191.724 239.954C192.996 239.954 193.59 239.188 193.59 238.3V237.452C193.392 237.609 192.626 237.726 191.861 237.835C191.075 237.951 190.364 238.231 190.364 238.963C190.364 239.585 190.883 239.954 191.724 239.954ZM199.839 233.781V234.971H198.376V239.093C198.376 239.626 198.56 239.811 199.135 239.811H199.839V241H198.929C197.576 241 196.927 240.439 196.927 239.277V234.971H195.655V233.781H196.927V231.812H198.376V233.781H199.839ZM200.7 241V233.781H202.143V241H200.7ZM201.418 232.537C200.905 232.537 200.509 232.147 200.509 231.655C200.509 231.156 200.905 230.767 201.418 230.767C201.931 230.767 202.334 231.156 202.334 231.655C202.334 232.147 201.931 232.537 201.418 232.537ZM206.6 241.164C204.536 241.164 203.141 239.626 203.141 237.404C203.141 235.169 204.536 233.617 206.6 233.617C208.664 233.617 210.052 235.169 210.052 237.404C210.052 239.626 208.664 241.164 206.6 241.164ZM206.6 239.92C207.837 239.92 208.596 238.936 208.596 237.404C208.596 235.853 207.83 234.861 206.6 234.861C205.369 234.861 204.604 235.853 204.604 237.404C204.604 238.942 205.363 239.92 206.6 239.92ZM212.493 236.844V241H211.05V233.781H212.465V234.868C212.958 234.048 213.696 233.638 214.646 233.638C216.13 233.638 217.257 234.615 217.257 236.502V241H215.815V236.68C215.815 235.524 215.234 234.93 214.236 234.93C213.252 234.93 212.493 235.504 212.493 236.844ZM220.956 241L224.654 230.814H226.487L230.157 241H228.51L227.608 238.354H223.499L222.57 241H220.956ZM223.957 237.062H227.163L226.548 235.258C226.268 234.417 225.981 233.521 225.577 232.202C225.167 233.521 224.873 234.417 224.593 235.258L223.957 237.062ZM230.814 241V233.781H232.195V234.95H232.222C232.489 234.164 233.049 233.692 233.965 233.692C234.184 233.692 234.375 233.713 234.492 233.727V235.073C234.382 235.053 234.068 235.005 233.733 235.005C232.919 235.005 232.256 235.559 232.256 236.734V241H230.814ZM238.272 241.164C236.208 241.164 234.827 239.612 234.827 237.404C234.827 235.183 236.215 233.617 238.272 233.617C239.995 233.617 241.253 234.718 241.43 236.249H239.995C239.844 235.436 239.257 234.861 238.279 234.861C237.035 234.861 236.29 235.859 236.29 237.404C236.29 238.936 237.028 239.92 238.279 239.92C239.27 239.92 239.783 239.366 239.974 238.525H241.43C241.266 240.029 239.995 241.164 238.272 241.164ZM243.823 236.844V241H242.381V230.814H243.823V234.82C244.315 234.034 245.04 233.638 245.977 233.638C247.46 233.638 248.588 234.615 248.588 236.502V241H247.146V236.68C247.146 235.524 246.564 234.93 245.566 234.93C244.582 234.93 243.823 235.504 243.823 236.844ZM249.935 241V233.781H251.377V241H249.935ZM250.653 232.537C250.14 232.537 249.743 232.147 249.743 231.655C249.743 231.156 250.14 230.767 250.653 230.767C251.165 230.767 251.569 231.156 251.569 231.655C251.569 232.147 251.165 232.537 250.653 232.537ZM256.334 233.781V234.971H254.871V239.093C254.871 239.626 255.055 239.811 255.629 239.811H256.334V241H255.424C254.071 241 253.421 240.439 253.421 239.277V234.971H252.15V233.781H253.421V231.812H254.871V233.781H256.334ZM260.155 241.164C258.016 241.164 256.717 239.585 256.717 237.404C256.717 235.203 258.111 233.617 260.08 233.617C262.124 233.617 263.45 235.162 263.45 237.391V237.78H258.139C258.186 239.079 258.911 239.961 260.176 239.961C261.119 239.961 261.748 239.489 261.953 238.806H263.341C263.074 240.2 261.789 241.164 260.155 241.164ZM258.152 236.687H262.042C261.926 235.538 261.187 234.82 260.094 234.82C259.007 234.82 258.275 235.538 258.152 236.687ZM267.511 241.164C265.446 241.164 264.066 239.612 264.066 237.404C264.066 235.183 265.453 233.617 267.511 233.617C269.234 233.617 270.491 234.718 270.669 236.249H269.234C269.083 235.436 268.495 234.861 267.518 234.861C266.274 234.861 265.528 235.859 265.528 237.404C265.528 238.936 266.267 239.92 267.518 239.92C268.509 239.92 269.022 239.366 269.213 238.525H270.669C270.505 240.029 269.234 241.164 267.511 241.164ZM275.099 233.781V234.971H273.636V239.093C273.636 239.626 273.821 239.811 274.395 239.811H275.099V241H274.19C272.836 241 272.187 240.439 272.187 239.277V234.971H270.915V233.781H272.187V231.812H273.636V233.781H275.099ZM278.572 241.144C277.089 241.144 275.961 240.166 275.961 238.279V233.781H277.403V238.102C277.403 239.257 277.984 239.852 278.989 239.852C279.967 239.852 280.725 239.277 280.725 237.938V233.781H282.168V241H280.753V239.913C280.26 240.733 279.529 241.144 278.572 241.144ZM283.515 241V233.781H284.896V234.95H284.923C285.189 234.164 285.75 233.692 286.666 233.692C286.885 233.692 287.076 233.713 287.192 233.727V235.073C287.083 235.053 286.769 235.005 286.434 235.005C285.62 235.005 284.957 235.559 284.957 236.734V241H283.515ZM290.966 241.164C288.826 241.164 287.528 239.585 287.528 237.404C287.528 235.203 288.922 233.617 290.891 233.617C292.935 233.617 294.261 235.162 294.261 237.391V237.78H288.949C288.997 239.079 289.722 239.961 290.987 239.961C291.93 239.961 292.559 239.489 292.764 238.806H294.152C293.885 240.2 292.6 241.164 290.966 241.164ZM288.963 236.687H292.853C292.737 235.538 291.998 234.82 290.905 234.82C289.818 234.82 289.086 235.538 288.963 236.687Z" fill="#0A0D14"/>
<g clip-path="url(#clip3_6430_346)">
<path d="M329.5 236C329.5 231.582 333.082 228 337.5 228H404.5C408.918 228 412.5 231.582 412.5 236C412.5 240.418 408.918 244 404.5 244H337.5C333.082 244 329.5 240.418 329.5 236Z" fill="#CBF5E5"/>
<circle cx="338.5" cy="236" r="2" fill="#176448"/>
<path d="M353.779 236C353.779 236.854 353.623 237.589 353.311 238.203C352.998 238.815 352.57 239.286 352.025 239.617C351.484 239.945 350.868 240.109 350.178 240.109C349.485 240.109 348.867 239.945 348.322 239.617C347.781 239.286 347.354 238.814 347.041 238.199C346.729 237.585 346.572 236.852 346.572 236C346.572 235.146 346.729 234.413 347.041 233.801C347.354 233.186 347.781 232.715 348.322 232.387C348.867 232.056 349.485 231.891 350.178 231.891C350.868 231.891 351.484 232.056 352.025 232.387C352.57 232.715 352.998 233.186 353.311 233.801C353.623 234.413 353.779 235.146 353.779 236ZM352.584 236C352.584 235.349 352.479 234.801 352.268 234.355C352.059 233.908 351.773 233.569 351.408 233.34C351.046 233.108 350.636 232.992 350.178 232.992C349.717 232.992 349.305 233.108 348.943 233.34C348.581 233.569 348.295 233.908 348.084 234.355C347.876 234.801 347.772 235.349 347.772 236C347.772 236.651 347.876 237.201 348.084 237.648C348.295 238.094 348.581 238.432 348.943 238.664C349.305 238.893 349.717 239.008 350.178 239.008C350.636 239.008 351.046 238.893 351.408 238.664C351.773 238.432 352.059 238.094 352.268 237.648C352.479 237.201 352.584 236.651 352.584 236ZM361.961 232V240H360.852L356.785 234.133H356.711V240H355.504V232H356.621L360.692 237.875H360.766V232H361.961ZM366.679 233.039V232H372.87V233.039H370.374V240H369.171V233.039H366.679ZM374.458 240V232H377.31C377.929 232 378.444 232.107 378.853 232.32C379.264 232.534 379.571 232.829 379.775 233.207C379.978 233.582 380.079 234.016 380.079 234.508C380.079 234.997 379.976 235.428 379.771 235.801C379.568 236.171 379.26 236.458 378.849 236.664C378.44 236.87 377.926 236.973 377.306 236.973H375.146V235.934H377.196C377.587 235.934 377.905 235.878 378.15 235.766C378.397 235.654 378.578 235.491 378.693 235.277C378.807 235.064 378.864 234.807 378.864 234.508C378.864 234.206 378.806 233.944 378.689 233.723C378.574 233.501 378.393 233.332 378.146 233.215C377.901 233.095 377.579 233.035 377.181 233.035H375.665V240H374.458ZM378.407 236.391L380.384 240H379.009L377.071 236.391H378.407ZM382.444 240H381.163L384.041 232H385.436L388.315 240H387.034L384.772 233.453H384.709L382.444 240ZM382.659 236.867H386.815V237.883H382.659V236.867ZM395.959 234.602H394.74C394.693 234.341 394.606 234.112 394.478 233.914C394.351 233.716 394.194 233.548 394.009 233.41C393.825 233.272 393.618 233.168 393.388 233.098C393.162 233.027 392.921 232.992 392.666 232.992C392.205 232.992 391.792 233.108 391.427 233.34C391.065 233.572 390.779 233.911 390.568 234.359C390.36 234.807 390.256 235.354 390.256 236C390.256 236.651 390.36 237.201 390.568 237.648C390.779 238.096 391.067 238.435 391.431 238.664C391.796 238.893 392.206 239.008 392.662 239.008C392.914 239.008 393.154 238.974 393.381 238.906C393.61 238.836 393.817 238.733 394.002 238.598C394.187 238.462 394.343 238.297 394.47 238.102C394.601 237.904 394.69 237.677 394.74 237.422L395.959 237.426C395.894 237.819 395.767 238.181 395.58 238.512C395.395 238.84 395.157 239.124 394.865 239.363C394.576 239.6 394.245 239.784 393.873 239.914C393.5 240.044 393.094 240.109 392.654 240.109C391.961 240.109 391.344 239.945 390.802 239.617C390.261 239.286 389.834 238.814 389.521 238.199C389.211 237.585 389.056 236.852 389.056 236C389.056 235.146 389.213 234.413 389.525 233.801C389.838 233.186 390.265 232.715 390.806 232.387C391.348 232.056 391.964 231.891 392.654 231.891C393.078 231.891 393.474 231.952 393.842 232.074C394.211 232.194 394.543 232.371 394.838 232.605C395.132 232.837 395.375 233.121 395.568 233.457C395.761 233.79 395.891 234.172 395.959 234.602ZM397.623 240V232H398.83V235.82H398.928L402.283 232H403.803L400.576 235.602L403.814 240H402.361L399.775 236.426L398.83 237.512V240H397.623Z" fill="#176448"/>
</g>
<path d="M459.276 242.518V241.13C457.294 240.911 456.07 239.64 456.07 237.719H457.328C457.328 238.977 458.032 239.79 459.276 239.995V236.283L459.215 236.27C457.137 235.757 456.275 234.95 456.275 233.562C456.275 231.949 457.444 230.849 459.276 230.671V229.297H460.37V230.685C462.154 230.89 463.268 232.052 463.316 233.822H462.099C462.038 232.756 461.395 232.038 460.37 231.833V235.326L460.691 235.408C462.674 235.9 463.603 236.775 463.603 238.197C463.603 239.845 462.325 240.993 460.37 241.144V242.518H459.276ZM460.37 240.022C461.594 239.893 462.373 239.229 462.373 238.252C462.373 237.404 461.826 236.912 460.37 236.55V240.022ZM459.276 235.053V231.812C458.21 231.956 457.492 232.612 457.492 233.501C457.492 234.246 457.991 234.697 459.276 235.053ZM467.685 241.164C465.914 241.164 464.691 240.077 464.499 238.457H465.702C465.894 239.441 466.57 240.07 467.603 240.07C469.366 240.07 470.214 238.423 470.214 236.146H470.2C469.736 236.933 468.765 237.391 467.671 237.391C465.832 237.391 464.472 235.976 464.472 234.041C464.472 232.031 465.873 230.65 467.876 230.65C470.132 230.65 471.417 232.4 471.417 235.477C471.417 238.901 470.241 241.164 467.685 241.164ZM467.835 236.297C469.072 236.297 470.077 235.299 470.077 234.027C470.077 232.749 469.093 231.744 467.876 231.744C466.646 231.744 465.661 232.749 465.661 234.041C465.661 235.326 466.611 236.297 467.835 236.297ZM471.78 242.921L472.381 239.578H473.625L472.627 242.921H471.78ZM475.034 241L479.628 231.915V231.908H474.33V230.814H480.865V231.977L476.326 241H475.034ZM484.796 241.164C482.772 241.164 481.337 239.968 481.337 238.293C481.337 236.939 482.273 235.839 483.504 235.675C482.451 235.477 481.706 234.581 481.706 233.385C481.706 231.812 483.019 230.65 484.796 230.65C486.56 230.65 487.872 231.812 487.872 233.385C487.872 234.574 487.12 235.477 486.088 235.675C487.312 235.846 488.255 236.953 488.255 238.293C488.255 239.968 486.812 241.164 484.796 241.164ZM484.796 240.07C486.156 240.07 487.038 239.353 487.038 238.238C487.038 237.097 486.102 236.27 484.796 236.27C483.483 236.27 482.54 237.097 482.54 238.238C482.54 239.346 483.429 240.07 484.796 240.07ZM484.796 235.217C485.917 235.217 486.683 234.513 486.683 233.467C486.683 232.428 485.924 231.73 484.796 231.73C483.661 231.73 482.896 232.428 482.896 233.467C482.896 234.506 483.668 235.217 484.796 235.217ZM492.418 241.164C490.648 241.164 489.424 240.077 489.233 238.457H490.436C490.627 239.441 491.304 240.07 492.336 240.07C494.1 240.07 494.948 238.423 494.948 236.146H494.934C494.469 236.933 493.498 237.391 492.405 237.391C490.566 237.391 489.205 235.976 489.205 234.041C489.205 232.031 490.607 230.65 492.61 230.65C494.866 230.65 496.151 232.4 496.151 235.477C496.151 238.901 494.975 241.164 492.418 241.164ZM492.569 236.297C493.806 236.297 494.811 235.299 494.811 234.027C494.811 232.749 493.826 231.744 492.61 231.744C491.379 231.744 490.395 232.749 490.395 234.041C490.395 235.326 491.345 236.297 492.569 236.297ZM497.669 241.116C497.19 241.116 496.814 240.74 496.814 240.262C496.814 239.783 497.19 239.407 497.669 239.407C498.147 239.407 498.523 239.783 498.523 240.262C498.523 240.74 498.147 241.116 497.669 241.116ZM502.864 241.164C500.608 241.164 499.186 239.12 499.186 235.914C499.186 232.694 500.608 230.65 502.864 230.65C505.12 230.65 506.542 232.694 506.542 235.914C506.542 239.12 505.12 241.164 502.864 241.164ZM502.864 240.07C504.423 240.07 505.38 238.498 505.38 235.914C505.38 233.316 504.423 231.744 502.864 231.744C501.306 231.744 500.348 233.316 500.348 235.914C500.348 238.498 501.306 240.07 502.864 240.07ZM511.17 241.164C508.914 241.164 507.492 239.12 507.492 235.914C507.492 232.694 508.914 230.65 511.17 230.65C513.426 230.65 514.848 232.694 514.848 235.914C514.848 239.12 513.426 241.164 511.17 241.164ZM511.17 240.07C512.729 240.07 513.686 238.498 513.686 235.914C513.686 233.316 512.729 231.744 511.17 231.744C509.611 231.744 508.654 233.316 508.654 235.914C508.654 238.498 509.611 240.07 511.17 240.07Z" fill="#0A0D14"/>
<path d="M130 289.98H144V275.98H130V289.98ZM155.068 289.164C152.354 289.164 150.386 287.024 150.386 283.914C150.386 280.783 152.354 278.65 155.068 278.65C157.782 278.65 159.758 280.783 159.758 283.914C159.758 287.031 157.782 289.164 155.068 289.164ZM155.068 287.776C156.825 287.776 158.233 286.396 158.233 283.914C158.233 281.419 156.825 280.038 155.068 280.038C153.311 280.038 151.91 281.419 151.91 283.914C151.91 286.396 153.311 287.776 155.068 287.776ZM164.352 281.781V282.971H162.882V289H161.44V282.971H160.148V281.781H161.44V280.612C161.44 279.478 162.192 278.814 163.49 278.814H164.352V280.004H163.716C163.108 280.004 162.882 280.236 162.882 280.845V281.781H164.352ZM168.146 281.781V282.971H166.676V289H165.234V282.971H163.942V281.781H165.234V280.612C165.234 279.478 165.986 278.814 167.285 278.814H168.146V280.004H167.51C166.902 280.004 166.676 280.236 166.676 280.845V281.781H168.146ZM171.906 289.164C169.766 289.164 168.467 287.585 168.467 285.404C168.467 283.203 169.862 281.617 171.831 281.617C173.875 281.617 175.201 283.162 175.201 285.391V285.78H169.889C169.937 287.079 170.662 287.961 171.926 287.961C172.87 287.961 173.499 287.489 173.704 286.806H175.091C174.825 288.2 173.54 289.164 171.906 289.164ZM169.903 284.687H173.793C173.676 283.538 172.938 282.82 171.844 282.82C170.757 282.82 170.026 283.538 169.903 284.687ZM176.172 289V281.781H177.553V282.95H177.58C177.847 282.164 178.407 281.692 179.323 281.692C179.542 281.692 179.733 281.713 179.85 281.727V283.073C179.74 283.053 179.426 283.005 179.091 283.005C178.277 283.005 177.614 283.559 177.614 284.734V289H176.172ZM183.322 289.171C181.668 289.171 180.41 288.371 180.308 286.806H181.73C181.812 287.585 182.359 288.022 183.295 288.022C184.211 288.022 184.779 287.605 184.779 287.031C184.779 286.539 184.362 286.252 183.739 286.115L182.543 285.849C181.183 285.548 180.472 284.857 180.472 283.784C180.472 282.506 181.579 281.624 183.234 281.624C184.861 281.624 186.023 282.526 186.064 283.982H184.683C184.669 283.278 184.109 282.766 183.254 282.766C182.434 282.766 181.914 283.203 181.914 283.757C181.914 284.242 182.304 284.536 182.953 284.687L184.184 284.96C185.592 285.274 186.235 285.903 186.235 286.949C186.235 288.323 185.004 289.171 183.322 289.171ZM192.49 289.116C191.054 289.116 189.988 288.378 189.988 286.936C189.988 285.288 191.369 284.933 192.839 284.762C194.192 284.598 194.643 284.611 194.643 284.085V284.023C194.643 283.326 194.103 282.82 193.187 282.82C192.264 282.82 191.636 283.319 191.581 283.982H190.166C190.234 282.608 191.403 281.638 193.208 281.638C194.985 281.638 196.072 282.581 196.072 284.051V289H194.65V287.975H194.623C194.322 288.556 193.734 289.116 192.49 289.116ZM192.784 287.954C194.055 287.954 194.65 287.188 194.65 286.3V285.452C194.452 285.609 193.686 285.726 192.921 285.835C192.135 285.951 191.424 286.231 191.424 286.963C191.424 287.585 191.943 287.954 192.784 287.954ZM198.861 284.844V289H197.419V281.781H198.834V282.868C199.326 282.048 200.065 281.638 201.015 281.638C202.498 281.638 203.626 282.615 203.626 284.502V289H202.184V284.68C202.184 283.524 201.603 282.93 200.605 282.93C199.62 282.93 198.861 283.504 198.861 284.844ZM207.748 289.144C205.869 289.144 204.618 287.626 204.618 285.391C204.618 283.162 205.875 281.638 207.742 281.638C208.678 281.638 209.492 282.027 209.956 282.827H209.97V278.814H211.412V289H209.997V287.899H209.984C209.498 288.74 208.692 289.144 207.748 289.144ZM208.042 287.899C209.273 287.899 210.066 286.908 210.066 285.391C210.066 283.873 209.273 282.875 208.042 282.875C206.88 282.875 206.08 283.757 206.08 285.391C206.08 287.018 206.88 287.899 208.042 287.899ZM215.932 289V278.814H219.705C221.886 278.814 223.253 280.038 223.253 281.986C223.253 283.941 221.838 285.165 219.657 285.165H217.449V289H215.932ZM217.449 283.853H219.63C220.942 283.853 221.756 283.135 221.756 281.986C221.756 280.838 220.942 280.134 219.63 280.134H217.449V283.853ZM224.08 289V281.781H225.461V282.95H225.488C225.755 282.164 226.316 281.692 227.232 281.692C227.45 281.692 227.642 281.713 227.758 281.727V283.073C227.649 283.053 227.334 283.005 226.999 283.005C226.186 283.005 225.523 283.559 225.523 284.734V289H224.08ZM231.552 289.164C229.488 289.164 228.093 287.626 228.093 285.404C228.093 283.169 229.488 281.617 231.552 281.617C233.617 281.617 235.004 283.169 235.004 285.404C235.004 287.626 233.617 289.164 231.552 289.164ZM231.552 287.92C232.79 287.92 233.548 286.936 233.548 285.404C233.548 283.853 232.783 282.861 231.552 282.861C230.322 282.861 229.556 283.853 229.556 285.404C229.556 286.942 230.315 287.92 231.552 287.92ZM236.003 289V281.781H237.404V282.991C237.848 282.103 238.662 281.638 239.557 281.638C240.542 281.638 241.335 282.198 241.636 282.971C242.025 282.191 242.859 281.638 243.926 281.638C245.265 281.638 246.332 282.513 246.332 284.249V289H244.883V284.372C244.883 283.34 244.213 282.902 243.433 282.902C242.469 282.902 241.875 283.565 241.875 284.488V289H240.453V284.276C240.453 283.449 239.858 282.902 239.038 282.902C238.197 282.902 237.445 283.504 237.445 284.646V289H236.003ZM250.789 289.164C248.725 289.164 247.33 287.626 247.33 285.404C247.33 283.169 248.725 281.617 250.789 281.617C252.854 281.617 254.241 283.169 254.241 285.404C254.241 287.626 252.854 289.164 250.789 289.164ZM250.789 287.92C252.026 287.92 252.785 286.936 252.785 285.404C252.785 283.853 252.02 282.861 250.789 282.861C249.559 282.861 248.793 283.853 248.793 285.404C248.793 286.942 249.552 287.92 250.789 287.92ZM258.719 281.781V282.971H257.256V287.093C257.256 287.626 257.441 287.811 258.015 287.811H258.719V289H257.81C256.456 289 255.807 288.439 255.807 287.277V282.971H254.535V281.781H255.807V279.812H257.256V281.781H258.719ZM259.581 289V281.781H261.023V289H259.581ZM260.298 280.537C259.786 280.537 259.389 280.147 259.389 279.655C259.389 279.156 259.786 278.767 260.298 278.767C260.811 278.767 261.214 279.156 261.214 279.655C261.214 280.147 260.811 280.537 260.298 280.537ZM265.48 289.164C263.416 289.164 262.021 287.626 262.021 285.404C262.021 283.169 263.416 281.617 265.48 281.617C267.545 281.617 268.932 283.169 268.932 285.404C268.932 287.626 267.545 289.164 265.48 289.164ZM265.48 287.92C266.718 287.92 267.476 286.936 267.476 285.404C267.476 283.853 266.711 282.861 265.48 282.861C264.25 282.861 263.484 283.853 263.484 285.404C263.484 286.942 264.243 287.92 265.48 287.92ZM271.373 284.844V289H269.931V281.781H271.346V282.868C271.838 282.048 272.576 281.638 273.527 281.638C275.01 281.638 276.138 282.615 276.138 284.502V289H274.695V284.68C274.695 283.524 274.114 282.93 273.116 282.93C272.132 282.93 271.373 283.504 271.373 284.844ZM280.158 289.171C278.503 289.171 277.246 288.371 277.143 286.806H278.565C278.647 287.585 279.194 288.022 280.13 288.022C281.046 288.022 281.614 287.605 281.614 287.031C281.614 286.539 281.197 286.252 280.575 286.115L279.378 285.849C278.018 285.548 277.307 284.857 277.307 283.784C277.307 282.506 278.414 281.624 280.069 281.624C281.696 281.624 282.858 282.526 282.899 283.982H281.518C281.504 283.278 280.944 282.766 280.089 282.766C279.269 282.766 278.749 283.203 278.749 283.757C278.749 284.242 279.139 284.536 279.789 284.687L281.019 284.96C282.427 285.274 283.07 285.903 283.07 286.949C283.07 288.323 281.839 289.171 280.158 289.171Z" fill="#0A0D14"/>
<g clip-path="url(#clip4_6430_346)">
<path d="M329.5 284C329.5 279.582 333.082 276 337.5 276H404.5C408.918 276 412.5 279.582 412.5 284C412.5 288.418 408.918 292 404.5 292H337.5C333.082 292 329.5 288.418 329.5 284Z" fill="#CBF5E5"/>
<circle cx="338.5" cy="284" r="2" fill="#176448"/>
<path d="M353.779 284C353.779 284.854 353.623 285.589 353.311 286.203C352.998 286.815 352.57 287.286 352.025 287.617C351.484 287.945 350.868 288.109 350.178 288.109C349.485 288.109 348.867 287.945 348.322 287.617C347.781 287.286 347.354 286.814 347.041 286.199C346.729 285.585 346.572 284.852 346.572 284C346.572 283.146 346.729 282.413 347.041 281.801C347.354 281.186 347.781 280.715 348.322 280.387C348.867 280.056 349.485 279.891 350.178 279.891C350.868 279.891 351.484 280.056 352.025 280.387C352.57 280.715 352.998 281.186 353.311 281.801C353.623 282.413 353.779 283.146 353.779 284ZM352.584 284C352.584 283.349 352.479 282.801 352.268 282.355C352.059 281.908 351.773 281.569 351.408 281.34C351.046 281.108 350.636 280.992 350.178 280.992C349.717 280.992 349.305 281.108 348.943 281.34C348.581 281.569 348.295 281.908 348.084 282.355C347.876 282.801 347.772 283.349 347.772 284C347.772 284.651 347.876 285.201 348.084 285.648C348.295 286.094 348.581 286.432 348.943 286.664C349.305 286.893 349.717 287.008 350.178 287.008C350.636 287.008 351.046 286.893 351.408 286.664C351.773 286.432 352.059 286.094 352.268 285.648C352.479 285.201 352.584 284.651 352.584 284ZM361.961 280V288H360.852L356.785 282.133H356.711V288H355.504V280H356.621L360.692 285.875H360.766V280H361.961ZM366.679 281.039V280H372.87V281.039H370.374V288H369.171V281.039H366.679ZM374.458 288V280H377.31C377.929 280 378.444 280.107 378.853 280.32C379.264 280.534 379.571 280.829 379.775 281.207C379.978 281.582 380.079 282.016 380.079 282.508C380.079 282.997 379.976 283.428 379.771 283.801C379.568 284.171 379.26 284.458 378.849 284.664C378.44 284.87 377.926 284.973 377.306 284.973H375.146V283.934H377.196C377.587 283.934 377.905 283.878 378.15 283.766C378.397 283.654 378.578 283.491 378.693 283.277C378.807 283.064 378.864 282.807 378.864 282.508C378.864 282.206 378.806 281.944 378.689 281.723C378.574 281.501 378.393 281.332 378.146 281.215C377.901 281.095 377.579 281.035 377.181 281.035H375.665V288H374.458ZM378.407 284.391L380.384 288H379.009L377.071 284.391H378.407ZM382.444 288H381.163L384.041 280H385.436L388.315 288H387.034L384.772 281.453H384.709L382.444 288ZM382.659 284.867H386.815V285.883H382.659V284.867ZM395.959 282.602H394.74C394.693 282.341 394.606 282.112 394.478 281.914C394.351 281.716 394.194 281.548 394.009 281.41C393.825 281.272 393.618 281.168 393.388 281.098C393.162 281.027 392.921 280.992 392.666 280.992C392.205 280.992 391.792 281.108 391.427 281.34C391.065 281.572 390.779 281.911 390.568 282.359C390.36 282.807 390.256 283.354 390.256 284C390.256 284.651 390.36 285.201 390.568 285.648C390.779 286.096 391.067 286.435 391.431 286.664C391.796 286.893 392.206 287.008 392.662 287.008C392.914 287.008 393.154 286.974 393.381 286.906C393.61 286.836 393.817 286.733 394.002 286.598C394.187 286.462 394.343 286.297 394.47 286.102C394.601 285.904 394.69 285.677 394.74 285.422L395.959 285.426C395.894 285.819 395.767 286.181 395.58 286.512C395.395 286.84 395.157 287.124 394.865 287.363C394.576 287.6 394.245 287.784 393.873 287.914C393.5 288.044 393.094 288.109 392.654 288.109C391.961 288.109 391.344 287.945 390.802 287.617C390.261 287.286 389.834 286.814 389.521 286.199C389.211 285.585 389.056 284.852 389.056 284C389.056 283.146 389.213 282.413 389.525 281.801C389.838 281.186 390.265 280.715 390.806 280.387C391.348 280.056 391.964 279.891 392.654 279.891C393.078 279.891 393.474 279.952 393.842 280.074C394.211 280.194 394.543 280.371 394.838 280.605C395.132 280.837 395.375 281.121 395.568 281.457C395.761 281.79 395.891 282.172 395.959 282.602ZM397.623 288V280H398.83V283.82H398.928L402.283 280H403.803L400.576 283.602L403.814 288H402.361L399.775 284.426L398.83 285.512V288H397.623Z" fill="#176448"/>
</g>
<path d="M459.414 290.518V289.13C457.432 288.911 456.208 287.64 456.208 285.719H457.466C457.466 286.977 458.17 287.79 459.414 287.995V284.283L459.353 284.27C457.275 283.757 456.413 282.95 456.413 281.562C456.413 279.949 457.582 278.849 459.414 278.671V277.297H460.508V278.685C462.292 278.89 463.406 280.052 463.454 281.822H462.238C462.176 280.756 461.533 280.038 460.508 279.833V283.326L460.829 283.408C462.812 283.9 463.741 284.775 463.741 286.197C463.741 287.845 462.463 288.993 460.508 289.144V290.518H459.414ZM460.508 288.022C461.732 287.893 462.511 287.229 462.511 286.252C462.511 285.404 461.964 284.912 460.508 284.55V288.022ZM459.414 283.053V279.812C458.348 279.956 457.63 280.612 457.63 281.501C457.63 282.246 458.129 282.697 459.414 283.053ZM468.055 278.814V289H466.866V280.086H466.859L464.323 281.768V280.51L466.866 278.814H468.055ZM469.368 289V287.968L472.991 284.659C474.283 283.477 474.837 282.827 474.837 281.781C474.837 280.523 474.044 279.744 472.752 279.744C471.357 279.744 470.557 280.66 470.557 282.109H469.409C469.409 280.079 470.728 278.65 472.745 278.65C474.652 278.65 475.999 279.922 475.999 281.733C475.999 283.046 475.288 284.03 473.791 285.391L471.036 287.893V287.906H476.06V289H469.368ZM476.751 290.921L477.353 287.578H478.597L477.599 290.921H476.751ZM482.965 289.164C480.709 289.164 479.424 287.414 479.424 284.338C479.424 280.913 480.573 278.65 483.129 278.65C484.9 278.65 486.096 279.737 486.287 281.357H485.084C484.893 280.373 484.237 279.744 483.204 279.744C481.441 279.744 480.6 281.392 480.6 283.668H480.614C481.078 282.882 482.077 282.369 483.17 282.369C485.009 282.369 486.369 283.812 486.369 285.746C486.369 287.756 484.968 289.164 482.965 289.164ZM482.965 288.07C484.196 288.07 485.18 287.038 485.18 285.746C485.18 284.461 484.23 283.463 483.006 283.463C481.769 283.463 480.764 284.488 480.764 285.76C480.764 287.038 481.748 288.07 482.965 288.07ZM487.751 289L492.344 279.915V279.908H487.047V278.814H493.582V279.977L489.043 289H487.751ZM497.513 289.164C495.489 289.164 494.054 287.968 494.054 286.293C494.054 284.939 494.99 283.839 496.221 283.675C495.168 283.477 494.423 282.581 494.423 281.385C494.423 279.812 495.735 278.65 497.513 278.65C499.276 278.65 500.589 279.812 500.589 281.385C500.589 282.574 499.837 283.477 498.805 283.675C500.028 283.846 500.972 284.953 500.972 286.293C500.972 287.968 499.529 289.164 497.513 289.164ZM497.513 288.07C498.873 288.07 499.755 287.353 499.755 286.238C499.755 285.097 498.818 284.27 497.513 284.27C496.2 284.27 495.257 285.097 495.257 286.238C495.257 287.346 496.145 288.07 497.513 288.07ZM497.513 283.217C498.634 283.217 499.399 282.513 499.399 281.467C499.399 280.428 498.641 279.73 497.513 279.73C496.378 279.73 495.612 280.428 495.612 281.467C495.612 282.506 496.385 283.217 497.513 283.217ZM502.53 289.116C502.052 289.116 501.676 288.74 501.676 288.262C501.676 287.783 502.052 287.407 502.53 287.407C503.009 287.407 503.385 287.783 503.385 288.262C503.385 288.74 503.009 289.116 502.53 289.116ZM507.726 289.164C505.47 289.164 504.048 287.12 504.048 283.914C504.048 280.694 505.47 278.65 507.726 278.65C509.982 278.65 511.404 280.694 511.404 283.914C511.404 287.12 509.982 289.164 507.726 289.164ZM507.726 288.07C509.285 288.07 510.242 286.498 510.242 283.914C510.242 281.316 509.285 279.744 507.726 279.744C506.167 279.744 505.21 281.316 505.21 283.914C505.21 286.498 506.167 288.07 507.726 288.07ZM516.032 289.164C513.776 289.164 512.354 287.12 512.354 283.914C512.354 280.694 513.776 278.65 516.032 278.65C518.288 278.65 519.71 280.694 519.71 283.914C519.71 287.12 518.288 289.164 516.032 289.164ZM516.032 288.07C517.591 288.07 518.548 286.498 518.548 283.914C518.548 281.316 517.591 279.744 516.032 279.744C514.473 279.744 513.516 281.316 513.516 283.914C513.516 286.498 514.473 288.07 516.032 288.07Z" fill="#0A0D14"/>
</g>
<path d="M94.5 72C94.5 68.2656 94.5003 65.4899 94.6511 63.2795C94.8016 61.0737 95.1003 59.4675 95.6799 58.0684C97.253 54.2705 100.27 51.253 104.068 49.6799C105.467 49.1003 107.074 48.8016 109.28 48.6511C111.49 48.5003 114.266 48.5 118 48.5H470C473.734 48.5 476.51 48.5003 478.72 48.6511C480.926 48.8016 482.533 49.1003 483.932 49.6799C487.73 51.253 490.747 54.2705 492.32 58.0684C492.9 59.4675 493.198 61.0737 493.349 63.2795C493.5 65.4899 493.5 68.2656 493.5 72V299.5H94.5V72Z" stroke="#ECEFF3"/>
</g>
<rect y="199" width="572" height="101" fill="url(#paint0_linear_6430_346)"/>
</g>
<rect x="0.5" y="0.5" width="587" height="299" rx="19.5" stroke="#ECEFF3" stroke-linecap="round"/>
<defs>
<filter id="filter0_f_6430_346" x="-12" y="12" width="735" height="414" filterUnits="userSpaceOnUse" color-interpolation-filters="sRGB">
<feFlood flood-opacity="0" result="BackgroundImageFix"/>
<feBlend mode="normal" in="SourceGraphic" in2="BackgroundImageFix" result="shape"/>
<feGaussianBlur stdDeviation="50" result="effect1_foregroundBlur_6430_346"/>
</filter>
<filter id="filter1_d_6430_346" x="87" y="45" width="414" height="266" filterUnits="userSpaceOnUse" color-interpolation-filters="sRGB">
<feFlood flood-opacity="0" result="BackgroundImageFix"/>
<feColorMatrix in="SourceAlpha" type="matrix" values="0 0 0 0 0 0 0 0 0 0 0 0 0 0 0 0 0 0 127 0" result="hardAlpha"/>
<feMorphology radius="1" operator="erode" in="SourceAlpha" result="effect1_dropShadow_6430_346"/>
<feOffset dy="4"/>
<feGaussianBlur stdDeviation="4"/>
<feComposite in2="hardAlpha" operator="out"/>
<feColorMatrix type="matrix" values="0 0 0 0 0.0509804 0 0 0 0 0.0509804 0 0 0 0 0.0705882 0 0 0 0.02 0"/>
<feBlend mode="normal" in2="BackgroundImageFix" result="effect1_dropShadow_6430_346"/>
<feBlend mode="normal" in="SourceGraphic" in2="effect1_dropShadow_6430_346" result="shape"/>
</filter>
<linearGradient id="paint0_linear_6430_346" x1="286" y1="199" x2="286" y2="300" gradientUnits="userSpaceOnUse">
<stop stop-color="white" stop-opacity="0"/>
<stop offset="1" stop-color="white"/>
</linearGradient>
<clipPath id="clip0_6430_346">
<rect width="588" height="300" rx="20" fill="white"/>
</clipPath>
<clipPath id="clip1_6430_346">
<path d="M94 72C94 64.5449 94 60.8174 95.2179 57.8771C96.8418 53.9566 99.9566 50.8418 103.877 49.2179C106.817 48 110.545 48 118 48H470C477.455 48 481.183 48 484.123 49.2179C488.043 50.8418 491.158 53.9566 492.782 57.8771C494 60.8174 494 64.5449 494 72V300H94V72Z" fill="white"/>
</clipPath>
<clipPath id="clip2_6430_346">
<path d="M329.5 188C329.5 183.582 333.082 180 337.5 180H388.5C392.918 180 396.5 183.582 396.5 188C396.5 192.418 392.918 196 388.5 196H337.5C333.082 196 329.5 192.418 329.5 188Z" fill="white"/>
</clipPath>
<clipPath id="clip3_6430_346">
<path d="M329.5 236C329.5 231.582 333.082 228 337.5 228H404.5C408.918 228 412.5 231.582 412.5 236C412.5 240.418 408.918 244 404.5 244H337.5C333.082 244 329.5 240.418 329.5 236Z" fill="white"/>
</clipPath>
<clipPath id="clip4_6430_346">
<path d="M329.5 284C329.5 279.582 333.082 276 337.5 276H404.5C408.918 276 412.5 279.582 412.5 284C412.5 288.418 408.918 292 404.5 292H337.5C333.082 292 329.5 288.418 329.5 284Z" fill="white"/>
</clipPath>
</defs>
</svg>
