<svg width="118" height="118" viewBox="0 0 118 118" fill="none" xmlns="http://www.w3.org/2000/svg">
<g filter="url(#filter0_bdi_1_13422)">
<rect x="33.1135" y="10" width="64" height="64" rx="16" transform="rotate(10 33.1135 10)" fill="white" fill-opacity="0.1" shape-rendering="crispEdges"/>
<rect x="33.5191" y="10.5792" width="63" height="63" rx="15.5" transform="rotate(10 33.5191 10.5792)" stroke="url(#paint0_linear_1_13422)" stroke-opacity="0.2" shape-rendering="crispEdges"/>
<g opacity="0.6">
<path d="M65.3748 35.0015L56.8365 33.496C56.2456 33.3918 55.8563 32.8358 55.9605 32.2449C56.0646 31.654 56.6233 31.2499 57.2142 31.354L65.7525 32.8596C66.3434 32.9638 66.7327 33.5198 66.6285 34.1107C66.5243 34.7016 65.9657 35.1057 65.3748 35.0015Z" fill="url(#paint1_linear_1_13422)"/>
<path d="M65.4616 34.5091L56.9233 33.0036C56.6044 32.9474 56.3966 32.6506 56.4529 32.3317C56.5107 32.0039 56.8172 31.7918 57.1274 31.8464L65.6657 33.352C65.9846 33.4082 66.1924 33.7049 66.1361 34.0239C66.0783 34.3517 65.7718 34.5638 65.4616 34.5091Z" stroke="white" stroke-opacity="0.5"/>
<path d="M59.7571 59.1731L60.5229 54.8301C60.9943 52.1563 63.1143 50.6719 65.788 51.1433L70.131 51.9091C70.4708 51.969 70.7906 52.0559 71.0904 52.1697C71.1824 51.8203 71.2745 51.471 71.3396 51.1017C72.5873 44.0259 67.8542 37.2663 60.7931 36.0212C53.732 34.7762 46.9724 39.5093 45.7248 46.5851C44.4797 53.6462 49.2128 60.4058 56.2739 61.6509C57.5295 61.8723 58.7625 61.8764 59.9721 61.7546C59.6809 60.9874 59.5904 60.1185 59.7571 59.1731ZM59.726 48.5513C59.6193 49.157 59.0284 49.5707 58.4228 49.4639C57.8171 49.3571 57.4034 48.7663 57.5102 48.1606L58.8126 40.7745C58.9194 40.1689 59.5102 39.7552 60.1159 39.862C60.7215 39.9688 61.1352 40.5596 61.0284 41.1652L59.726 48.5513Z" fill="url(#paint2_linear_1_13422)"/>
<path d="M60.0305 54.7432L59.2647 59.0862C59.1261 59.8723 59.1497 60.6178 59.3129 61.3069C58.3377 61.3675 57.3544 61.3337 56.3607 61.1585C49.5716 59.9613 45.0201 53.4611 46.2172 46.672C47.4169 39.8677 53.9175 35.3166 60.7063 36.5136C67.495 37.7107 72.047 44.2106 70.8472 51.0149C70.8164 51.1895 70.7791 51.3601 70.7377 51.5315C70.5687 51.4863 70.3954 51.448 70.2179 51.4167L65.8749 50.6509C64.4247 50.3952 63.0882 50.6657 62.0428 51.3977C60.9974 52.1297 60.2862 53.2931 60.0305 54.7432ZM58.336 49.9563C59.2136 50.111 60.0637 49.5157 60.2185 48.6381L61.5208 41.2521C61.6756 40.3745 61.0803 39.5243 60.2027 39.3696C59.3251 39.2148 58.4749 39.8101 58.3202 40.6877L57.0178 48.0738C56.8631 48.9514 57.4584 49.8015 58.336 49.9563Z" stroke="white" stroke-opacity="0.5"/>
<path d="M69.8706 53.3863L65.5423 52.6232C63.6515 52.2898 62.3309 53.2145 62.0001 55.0905L61.2343 59.4335C60.9035 61.3096 61.8282 62.6302 63.719 62.9636L68.0473 63.7268C69.9233 64.0576 71.244 63.1329 71.5748 61.2568L72.3405 56.9138C72.6713 55.0378 71.7466 53.7171 69.8706 53.3863ZM65.5243 60.3271C65.4409 60.7998 64.9891 61.1161 64.5017 61.0302C64.029 60.9468 63.7126 60.495 63.796 60.0223L64.6086 55.4134C64.692 54.9407 65.1438 54.6244 65.6165 54.7077C66.104 54.7937 66.4203 55.2455 66.337 55.7182L65.5243 60.3271ZM68.9662 60.934C68.8828 61.4067 68.431 61.723 67.9583 61.6397C67.4856 61.5563 67.1545 61.1019 67.2379 60.6292L68.0505 56.0203C68.1339 55.5476 68.6005 55.2339 69.0732 55.3172C69.5459 55.4006 69.8622 55.8524 69.7789 56.3251L68.9662 60.934Z" fill="url(#paint3_linear_1_13422)"/>
<path d="M65.4555 53.1156L69.7837 53.8787C70.6234 54.0268 71.1922 54.3841 71.5236 54.8574C71.8549 55.3307 71.9962 55.9874 71.8481 56.827L71.0824 61.17C70.9343 62.0096 70.577 62.5784 70.1037 62.9098C69.6304 63.2412 68.9737 63.3825 68.1341 63.2344L63.8059 62.4712C62.9578 62.3217 62.3854 61.9631 62.0526 61.4896C61.7199 61.0163 61.5786 60.36 61.7267 59.5204L62.4925 55.1774C62.6405 54.3378 62.9978 53.7694 63.4722 53.4384C63.947 53.1072 64.6075 52.966 65.4555 53.1156ZM64.4148 61.5226C65.1688 61.6555 65.8844 61.164 66.0167 60.4139L66.8294 55.805C66.9616 55.0549 66.4572 54.3482 65.7033 54.2153C64.9587 54.084 64.2475 54.5819 64.1162 55.3266L63.3036 59.9355C63.1722 60.6801 63.6702 61.3913 64.4148 61.5226ZM67.8715 62.1321C68.6162 62.2634 69.3273 61.7654 69.4586 61.0208L70.2713 56.4119C70.4026 55.6672 69.9046 54.9561 69.16 54.8248C68.4263 54.6954 67.6913 55.178 67.5581 55.9335L66.7455 60.5424C66.6122 61.2979 67.1378 62.0027 67.8715 62.1321Z" stroke="white" stroke-opacity="0.5"/>
</g>
</g>
<defs>
<filter id="filter0_bdi_1_13422" x="-2" y="-2" width="122.141" height="122.141" filterUnits="userSpaceOnUse" color-interpolation-filters="sRGB">
<feFlood flood-opacity="0" result="BackgroundImageFix"/>
<feGaussianBlur in="BackgroundImageFix" stdDeviation="2"/>
<feComposite in2="SourceAlpha" operator="in" result="effect1_backgroundBlur_1_13422"/>
<feColorMatrix in="SourceAlpha" type="matrix" values="0 0 0 0 0 0 0 0 0 0 0 0 0 0 0 0 0 0 127 0" result="hardAlpha"/>
<feOffset dy="12"/>
<feGaussianBlur stdDeviation="12"/>
<feComposite in2="hardAlpha" operator="out"/>
<feColorMatrix type="matrix" values="0 0 0 0 0.0509804 0 0 0 0 0.0509804 0 0 0 0 0.0705882 0 0 0 0.25 0"/>
<feBlend mode="normal" in2="effect1_backgroundBlur_1_13422" result="effect2_dropShadow_1_13422"/>
<feBlend mode="normal" in="SourceGraphic" in2="effect2_dropShadow_1_13422" result="shape"/>
<feColorMatrix in="SourceAlpha" type="matrix" values="0 0 0 0 0 0 0 0 0 0 0 0 0 0 0 0 0 0 127 0" result="hardAlpha"/>
<feOffset dy="-6"/>
<feGaussianBlur stdDeviation="2"/>
<feComposite in2="hardAlpha" operator="arithmetic" k2="-1" k3="1"/>
<feColorMatrix type="matrix" values="0 0 0 0 1 0 0 0 0 1 0 0 0 0 1 0 0 0 0.15 0"/>
<feBlend mode="normal" in2="shape" result="effect3_innerShadow_1_13422"/>
</filter>
<linearGradient id="paint0_linear_1_13422" x1="65.1135" y1="10" x2="65.1135" y2="74" gradientUnits="userSpaceOnUse">
<stop stop-color="white"/>
<stop offset="1" stop-color="white" stop-opacity="0"/>
</linearGradient>
<linearGradient id="paint1_linear_1_13422" x1="61.4833" y1="32.1068" x2="61.1057" y2="34.2488" gradientUnits="userSpaceOnUse">
<stop stop-color="white"/>
<stop offset="1" stop-color="white" stop-opacity="0.5"/>
</linearGradient>
<linearGradient id="paint2_linear_1_13422" x1="60.7931" y1="36.0212" x2="56.2739" y2="61.6509" gradientUnits="userSpaceOnUse">
<stop stop-color="white"/>
<stop offset="1" stop-color="white" stop-opacity="0.5"/>
</linearGradient>
<linearGradient id="paint3_linear_1_13422" x1="67.6991" y1="53.0034" x2="65.8758" y2="63.3439" gradientUnits="userSpaceOnUse">
<stop stop-color="white"/>
<stop offset="1" stop-color="white" stop-opacity="0.5"/>
</linearGradient>
</defs>
</svg>
